<svg width="22" height="23" viewBox="0 0 22 23" fill="none" xmlns="http://www.w3.org/2000/svg">
<path fill-rule="evenodd" clip-rule="evenodd" d="M0 3.32661C0 1.48937 1.68448 0 3.76239 0H16.3037C18.3816 0 20.0661 1.48937 20.0661 3.32661V6.65321C20.0661 7.26562 19.5046 7.76208 18.812 7.76208C18.1193 7.76208 17.5578 7.26562 17.5578 6.65321V3.32661C17.5578 2.71419 16.9963 2.21774 16.3037 2.21774H3.76239C3.06975 2.21774 2.50826 2.71419 2.50826 3.32661V18.8508C2.50826 19.4632 3.06975 19.9596 3.76239 19.9596H16.3037C16.9963 19.9596 17.5578 19.4632 17.5578 18.8508V15.5242C17.5578 14.9117 18.1193 14.4153 18.812 14.4153C19.5046 14.4153 20.0661 14.9117 20.0661 15.5242V18.8508C20.0661 20.688 18.3816 22.1774 16.3037 22.1774H3.76239C1.68448 22.1774 0 20.688 0 18.8508V3.32661ZM12.174 5.86912C12.6637 6.30216 12.6637 7.00426 12.174 7.4373L9.29839 9.97982L20.0661 9.97982C20.7587 9.97982 21.3202 10.4763 21.3202 11.0887C21.3202 11.7011 20.7587 12.1976 20.0661 12.1976L9.29839 12.1976L12.174 14.7401C12.6637 15.1731 12.6637 15.8752 12.174 16.3082C11.6842 16.7413 10.8901 16.7413 10.4004 16.3082L5.38385 11.8728C4.89408 11.4397 4.89408 10.7376 5.38385 10.3046L10.4004 5.86912C10.8901 5.43608 11.6842 5.43608 12.174 5.86912Z" fill="black"/>
</svg>
