<svg width="601" height="72" viewBox="0 0 601 72" fill="none" xmlns="http://www.w3.org/2000/svg">
<path d="M68.32 31.4C70.56 31.4533 72.72 31.56 74.8 31.72C76.88 31.8267 78.9333 32.2 80.96 32.84V33.16C79.8933 33.2133 78.88 33.32 77.92 33.48C76.96 33.5867 75.9467 33.6667 74.88 33.72C73.7067 33.8267 72.5333 33.88 71.36 33.88C70.24 33.88 69.0667 33.88 67.84 33.88C66.9867 33.88 66.2933 34.28 65.76 35.08C63.04 39.08 60.32 43.1067 57.6 47.16C54.88 51.16 52.16 55.16 49.44 59.16C48.8533 59.96 48.2667 60.76 47.68 61.56C47.0933 62.36 46.5067 63.16 45.92 63.96C45.1733 65.0267 44.4267 65.32 43.68 64.84C42.9333 64.4133 42.88 63.6133 43.52 62.44C43.7867 61.6933 44.1333 61.0533 44.56 60.52C45.04 59.9867 45.5467 59.4267 46.08 58.84C46.9333 57.9867 47.7067 57.08 48.4 56.12C49.0933 55.16 49.7867 54.2 50.48 53.24C52.56 50.2 54.6133 47.1867 56.64 44.2C58.6667 41.16 60.6933 38.12 62.72 35.08C62.8267 34.92 62.9067 34.76 62.96 34.6C63.0667 34.44 63.2 34.2533 63.36 34.04C63.0933 33.9867 62.8533 33.96 62.64 33.96C62.48 33.9067 62.32 33.88 62.16 33.88C60.6133 33.88 59.0667 33.9067 57.52 33.96C56.0267 33.96 54.5067 33.9333 52.96 33.88C52 33.88 51.3333 34.28 50.96 35.08C49.8933 36.68 48.8 38.3067 47.68 39.96C46.6133 41.6133 45.52 43.2133 44.4 44.76C43.76 45.7733 43.0667 46.7067 42.32 47.56C41.5733 48.36 40.8267 49.2133 40.08 50.12C39.76 50.6 39.4133 51.0533 39.04 51.48C38.72 51.8533 38.4 52.2533 38.08 52.68C37.76 52.4133 37.6533 52.1467 37.76 51.88C37.8667 51.6133 37.9733 51.3733 38.08 51.16C38.72 50.0933 39.3333 49.0267 39.92 47.96C40.5067 46.84 41.1467 45.7467 41.84 44.68C42.9067 42.9733 43.9733 41.32 45.04 39.72C46.16 38.0667 47.28 36.3867 48.4 34.68C48.4533 34.5733 48.48 34.4933 48.48 34.44C48.5333 34.3333 48.6133 34.2 48.72 34.04C48.4533 34.04 48.24 34.04 48.08 34.04C47.9733 33.9867 47.8133 33.96 47.6 33.96C45.04 33.96 42.48 33.96 39.92 33.96C37.36 33.96 34.8 33.9867 32.24 34.04C28.5067 34.1467 24.7733 34.28 21.04 34.44C17.36 34.5467 13.6267 34.6533 9.84 34.76C8.56 34.76 7.30667 34.8133 6.08 34.92C4.85333 34.9733 3.6 35.0267 2.32 35.08C2.05333 35.08 1.73333 35.0533 1.36 35C0.986667 34.9467 0.8 34.7067 0.8 34.28C0.746667 33.8533 0.88 33.56 1.2 33.4C1.52 33.24 1.86667 33.1333 2.24 33.08C3.25333 32.9733 4.24 32.8667 5.2 32.76C6.21333 32.6 7.17333 32.52 8.08 32.52C12.08 32.36 16.0267 32.2267 19.92 32.12C23.8133 31.96 27.7067 31.8267 31.6 31.72C37.4133 31.56 43.28 31.48 49.2 31.48C50.16 31.48 50.88 31.0533 51.36 30.2C53.4933 27.1067 55.6267 24.04 57.76 21C59.8933 17.9067 62.0267 14.7867 64.16 11.64C64.9067 10.68 65.6 9.72 66.24 8.76C66.9333 7.8 67.68 6.81333 68.48 5.8C68.64 5.53333 68.8533 5.29333 69.12 5.08C69.3867 4.81333 69.8133 4.76 70.4 4.92C70.2933 5.29333 70.1867 5.64 70.08 5.96C69.9733 6.22666 69.8133 6.49333 69.6 6.76C68.6933 8.14667 67.7867 9.56 66.88 11C65.9733 12.3867 65.0667 13.7733 64.16 15.16C62.4533 17.72 60.7467 20.28 59.04 22.84C57.3333 25.4 55.6267 27.96 53.92 30.52C53.8667 30.6267 53.8133 30.7333 53.76 30.84C53.7067 30.9467 53.6267 31.1333 53.52 31.4H54.88H64.08C64.5067 31.4 64.8267 31.32 65.04 31.16C65.2533 31 65.4933 30.7333 65.76 30.36C67.84 27.32 69.8933 24.28 71.92 21.24C74 18.1467 76.0533 15.0267 78.08 11.88C79.2 10.2267 80.32 8.54666 81.44 6.84C82.6133 5.13333 83.76 3.42666 84.88 1.72C85.04 1.45333 85.2267 1.18666 85.44 0.919996C85.6533 0.65333 85.9733 0.626664 86.4 0.839997C87.04 1.16 87.0933 1.82666 86.56 2.84C85.9733 3.85333 85.3867 4.86667 84.8 5.88C84.2133 6.84 83.6 7.8 82.96 8.76C80.6667 12.3333 78.3733 15.88 76.08 19.4C73.7867 22.8667 71.4933 26.36 69.2 29.88C69.04 30.04 68.9067 30.2533 68.8 30.52C68.6933 30.7867 68.5333 31.08 68.32 31.4ZM100.295 31.64C100.562 31.5333 100.802 31.4533 101.015 31.4C101.228 31.2933 101.468 31.1867 101.735 31.08C102.375 30.9733 102.828 31.16 103.095 31.64C103.362 32.28 103.202 32.7333 102.615 33C100.642 34.0133 98.5883 34.7867 96.455 35.32C94.3217 35.8533 92.1883 36.1733 90.055 36.28C89.3083 36.3333 88.5083 36.3333 87.655 36.28C86.855 36.2267 86.1083 36.04 85.415 35.72C84.775 35.4 84.295 34.9467 83.975 34.36C83.655 33.72 83.6283 32.8667 83.895 31.8C84.2683 30.7333 84.615 29.9867 84.935 29.56C85.255 29.1333 85.8683 28.68 86.775 28.2C87.735 27.7733 88.7217 27.48 89.735 27.32C90.8017 27.1067 91.815 27 92.775 27C93.6817 27.1067 94.215 27.56 94.375 28.36C94.535 29.2133 94.2417 29.8533 93.495 30.28C92.9617 30.6 92.4017 30.8933 91.815 31.16C91.2283 31.3733 90.615 31.5867 89.975 31.8C89.495 31.9067 88.9883 31.9867 88.455 32.04C87.9217 32.0933 87.3883 32.12 86.855 32.12C86.055 32.12 85.6017 32.3067 85.495 32.68C85.4417 33 85.6017 33.3467 85.975 33.72C86.5083 34.2533 87.4417 34.5467 88.775 34.6C90.1083 34.6 91.5217 34.4933 93.015 34.28C94.5617 34.0133 96.0017 33.64 97.335 33.16C98.7217 32.68 99.7083 32.1733 100.295 31.64ZM92.215 29.32C92.5883 28.84 92.5883 28.6 92.215 28.6C91.895 28.5467 91.3883 28.6267 90.695 28.84C90.055 29.0533 89.3083 29.3733 88.455 29.8C87.6017 30.2267 86.855 30.6533 86.215 31.08C87.015 31.1867 88.055 31.08 89.335 30.76C90.615 30.3867 91.575 29.9067 92.215 29.32ZM112.044 35.88C112.418 35.72 112.711 35.5867 112.924 35.48C113.138 35.3733 113.351 35.24 113.564 35.08C114.578 34.5467 115.564 34.0133 116.524 33.48C117.484 32.9467 118.471 32.4133 119.484 31.88C120.018 31.56 120.578 31.4 121.164 31.4C121.378 31.4 121.591 31.48 121.804 31.64C122.018 31.8 122.178 31.9333 122.284 32.04C122.551 32.52 122.338 32.9733 121.644 33.4C121.111 33.72 120.551 34.0133 119.964 34.28C119.378 34.5467 118.791 34.8667 118.204 35.24C116.818 36.1467 115.431 37.0533 114.044 37.96C112.658 38.8133 111.271 39.6933 109.884 40.6C109.031 41.1867 108.338 41.88 107.804 42.68C107.271 43.48 106.711 44.28 106.124 45.08C104.471 47.64 102.764 50.0933 101.004 52.44C99.191 54.7867 97.2177 57.0533 95.0844 59.24C94.1777 60.0933 93.2444 60.84 92.2844 61.48C91.9644 61.7467 91.6444 61.96 91.3244 62.12C90.951 62.3333 90.551 62.4933 90.1244 62.6C89.5377 62.7067 89.031 62.6 88.6044 62.28C88.1777 61.96 88.0177 61.4533 88.1244 60.76C88.1244 60.12 88.311 59.48 88.6844 58.84C89.431 57.2933 90.3377 55.88 91.4044 54.6C92.4177 53.32 93.5377 52.0933 94.7644 50.92C96.5777 49.2133 98.391 47.5333 100.204 45.88C102.018 44.1733 103.858 42.4667 105.724 40.76C105.991 40.44 106.258 40.12 106.524 39.8C106.844 39.4267 107.138 39.0533 107.404 38.68C108.311 37.2933 109.191 35.88 110.044 34.44C110.898 32.9467 111.778 31.4533 112.684 29.96C112.258 29.96 111.911 30.0667 111.644 30.28C111.431 30.44 111.218 30.6 111.004 30.76C110.044 31.4533 109.058 32.1467 108.044 32.84C107.084 33.48 106.018 34.0133 104.844 34.44C104.471 34.7067 104.124 34.84 103.804 34.84C102.738 35 101.911 34.8133 101.324 34.28C100.738 33.6933 100.578 32.8667 100.844 31.8C101.004 31.2667 101.191 30.76 101.404 30.28C101.618 29.8 101.858 29.32 102.124 28.84C102.551 28.0933 102.978 27.3733 103.404 26.68C103.884 25.9867 104.364 25.2933 104.844 24.6C105.111 24.28 105.404 24.0667 105.724 23.96C106.044 23.8 106.418 23.9333 106.844 24.36C106.738 24.5733 106.631 24.8133 106.524 25.08C106.471 25.2933 106.338 25.5067 106.124 25.72C105.698 26.6267 105.244 27.48 104.764 28.28C104.284 29.08 103.804 29.9067 103.324 30.76C103.218 31.0267 103.111 31.32 103.004 31.64C102.951 31.96 102.818 32.3333 102.604 32.76C103.031 32.6533 103.378 32.6 103.644 32.6C103.964 32.6 104.258 32.5467 104.524 32.44C105.271 32.0133 105.991 31.5867 106.684 31.16C107.378 30.7333 108.071 30.28 108.764 29.8C109.671 29.1067 110.524 28.4133 111.324 27.72C112.124 27.0267 112.978 26.3067 113.884 25.56C114.204 25.24 114.551 25 114.924 24.84C115.298 24.6267 115.751 24.6533 116.284 24.92C117.031 25.3467 117.058 26.2267 116.364 27.56C115.778 28.7333 115.164 29.9067 114.524 31.08C113.884 32.2533 113.271 33.4533 112.684 34.68C112.578 34.7867 112.471 34.92 112.364 35.08C112.311 35.24 112.204 35.5067 112.044 35.88ZM100.604 48.68C99.6977 49.4267 98.7644 50.28 97.8044 51.24C96.791 52.2 95.8577 53.16 95.0044 54.12C94.151 55.08 93.4044 55.9867 92.7644 56.84C92.1244 57.6933 91.6977 58.3867 91.4844 58.92C92.0177 58.6 92.7377 58.04 93.6444 57.24C94.4977 56.44 95.3777 55.5333 96.2844 54.52C97.1377 53.5067 97.9644 52.4933 98.7644 51.48C99.5644 50.4133 100.178 49.48 100.604 48.68ZM125.176 35.88C125.282 35.6133 125.389 35.2133 125.496 34.68C126.082 32.5467 126.856 30.52 127.816 28.6C128.776 26.6267 129.736 24.6533 130.696 22.68C131.762 20.4933 132.776 18.3333 133.736 16.2C134.696 14.0667 135.709 11.9067 136.776 9.72C136.829 9.61333 136.882 9.50667 136.936 9.4C137.042 9.24 137.122 9.10667 137.176 9C137.602 8.09333 138.162 7.77333 138.856 8.04C139.442 8.30666 139.602 8.89333 139.336 9.8C139.229 10.0667 139.122 10.3333 139.016 10.6C138.962 10.8667 138.882 11.1067 138.776 11.32C138.349 12.2267 137.949 13.1333 137.576 14.04C137.202 14.9467 136.802 15.8533 136.376 16.76C135.149 19.0533 133.976 21.3467 132.856 23.64C131.736 25.9333 130.562 28.2 129.336 30.44C128.802 31.5067 128.189 32.4667 127.496 33.32C126.856 34.1733 126.216 35.08 125.576 36.04C125.469 35.9867 125.389 35.96 125.336 35.96C125.336 35.96 125.282 35.9333 125.176 35.88ZM124.136 44.76C124.029 45.1333 123.896 45.5067 123.736 45.88C123.576 46.2533 123.389 46.5733 123.176 46.84C122.589 47.32 122.002 47.3733 121.416 47C120.989 46.4133 120.962 45.8 121.336 45.16C121.602 44.7333 122.002 44.3333 122.536 43.96C122.802 43.6933 123.122 43.6133 123.496 43.72C123.656 43.88 123.869 44.2267 124.136 44.76ZM206.261 3.88C202.795 3.98666 199.461 4.2 196.261 4.52C193.061 4.78666 189.808 5.13333 186.501 5.56C184.955 5.77333 183.408 5.98666 181.861 6.2C180.315 6.41333 178.768 6.62666 177.221 6.84C176.688 6.89333 176.128 6.94666 175.541 7C175.008 7.05333 174.528 6.84 174.101 6.36C174.208 5.88 174.395 5.58666 174.661 5.48C174.981 5.32 175.328 5.18666 175.701 5.08C177.088 4.81333 178.475 4.57333 179.861 4.36C181.301 4.14667 182.741 3.93333 184.181 3.72C188.768 3.02666 193.328 2.49333 197.861 2.12C202.395 1.69333 206.928 1.4 211.461 1.24C212.635 1.18666 213.781 1.16 214.901 1.16C216.075 1.10667 217.221 1.05333 218.341 0.999995C220.101 0.946663 221.488 0.999997 222.501 1.16C223.515 1.26666 224.075 1.45333 224.181 1.72C224.341 1.93333 223.968 2.17333 223.061 2.44C222.208 2.70666 220.768 2.92 218.741 3.08C217.355 3.24 215.941 3.34667 214.501 3.4C213.115 3.45333 211.728 3.53333 210.341 3.64C209.435 3.64 208.741 3.96 208.261 4.6C205.701 7.90667 203.248 11.4267 200.901 15.16C198.608 18.84 196.341 22.44 194.101 25.96C191.435 30.0133 188.768 34.04 186.101 38.04C183.488 42.04 180.821 46.0667 178.101 50.12C177.835 50.4933 177.541 51 177.221 51.64C176.901 52.2267 176.528 52.84 176.101 53.48C175.728 54.12 175.328 54.7333 174.901 55.32C174.528 55.9067 174.181 56.36 173.861 56.68C173.701 56.7867 173.515 56.92 173.301 57.08C173.141 57.24 172.928 57.4267 172.661 57.64C173.621 57.64 174.528 57.64 175.381 57.64C176.235 57.64 177.061 57.6133 177.861 57.56C181.541 57.56 185.168 57.5333 188.741 57.48C192.315 57.3733 195.888 57.3467 199.461 57.4C203.248 57.5067 205.088 57.7467 204.981 58.12C204.875 58.4933 203.008 58.8933 199.381 59.32C197.835 59.4267 196.261 59.5333 194.661 59.64C193.061 59.6933 191.488 59.72 189.941 59.72C187.381 59.72 184.848 59.7467 182.341 59.8C179.888 59.8533 177.381 59.9333 174.821 60.04C172.421 60.0933 170.075 60.1467 167.781 60.2C165.488 60.2 163.141 60.2 160.741 60.2C159.568 60.2533 158.395 60.28 157.221 60.28C156.048 60.28 154.901 60.3333 153.781 60.44C153.035 60.4933 152.501 60.4667 152.181 60.36C151.861 60.2533 151.488 59.9867 151.061 59.56C151.168 58.9733 151.435 58.6267 151.861 58.52C152.235 58.36 152.635 58.28 153.061 58.28C154.128 58.1733 155.168 58.12 156.181 58.12C157.248 58.0667 158.288 58.0133 159.301 57.96C161.061 57.9067 162.795 57.88 164.501 57.88C166.261 57.88 167.995 57.8533 169.701 57.8C169.968 57.8 170.208 57.8 170.421 57.8C170.635 57.7467 170.795 57.72 170.901 57.72C172.235 56.12 173.515 54.36 174.741 52.44C175.968 50.52 177.168 48.5733 178.341 46.6C179.515 44.5733 180.661 42.5733 181.781 40.6C182.901 38.6267 184.021 36.7867 185.141 35.08C188.341 30.1733 191.568 25.1333 194.821 19.96C198.128 14.7333 201.621 9.77333 205.301 5.08C205.408 4.97333 205.515 4.81333 205.621 4.6C205.781 4.38666 205.995 4.14666 206.261 3.88ZM221.333 5L221.573 4.76C221.733 4.49333 221.919 4.33333 222.133 4.28C222.346 4.22666 222.533 4.25333 222.693 4.36C222.906 4.41333 223.066 4.54667 223.173 4.76C223.279 4.97333 223.279 5.18666 223.173 5.4C222.799 6.30666 222.399 7.18666 221.973 8.04C221.546 8.84 221.119 9.66666 220.693 10.52C220.159 11.2667 219.706 11.4 219.333 10.92C218.959 10.44 218.906 9.85333 219.173 9.16L221.333 5ZM234.636 31C235.062 31.2133 235.436 31.2667 235.756 31.16C236.076 31 236.396 30.84 236.716 30.68C237.836 30.04 238.929 29.4267 239.996 28.84C241.062 28.2 242.156 27.5867 243.276 27C243.702 26.7333 244.156 26.52 244.636 26.36C245.169 26.1467 245.676 25.9867 246.156 25.88C247.809 25.5067 248.769 26.1467 249.036 27.8C249.249 28.76 249.276 29.7733 249.116 30.84C249.009 32.0667 249.196 32.84 249.676 33.16C250.209 33.48 251.009 33.48 252.076 33.16C252.822 33 253.622 32.7333 254.476 32.36C255.329 31.9867 256.102 31.6667 256.796 31.4C257.436 31.1867 257.889 31.1067 258.156 31.16C258.476 31.16 258.689 31.2667 258.796 31.48C258.956 31.7467 258.956 32.0667 258.796 32.44C258.689 32.76 258.316 33.0533 257.676 33.32C256.662 33.9067 255.622 34.4133 254.556 34.84C253.542 35.2667 252.449 35.5333 251.276 35.64C248.449 35.96 246.982 34.68 246.876 31.8C246.876 31.48 246.876 31.1867 246.876 30.92C246.929 30.6533 246.956 30.36 246.956 30.04C246.956 28.92 246.902 28.12 246.796 27.64C246.742 27.16 246.182 27.2933 245.116 28.04C244.049 28.6267 242.876 29.3467 241.596 30.2C240.369 31.0533 239.222 31.7733 238.156 32.36C237.462 32.84 236.662 33.16 235.756 33.32C234.156 33.8 233.062 33.1867 232.476 31.48C232.316 31.0533 232.182 30.68 232.076 30.36C232.022 30.04 231.942 29.8 231.836 29.64C231.782 29.48 231.649 29.4533 231.436 29.56C231.222 29.6133 230.876 29.8 230.396 30.12C229.329 30.92 228.262 31.9067 227.196 33.08C226.129 34.2533 225.062 35.2667 223.996 36.12C223.729 36.3333 223.489 36.5467 223.276 36.76C223.062 36.92 222.822 37.08 222.556 37.24C222.076 37.4 221.676 37.3733 221.356 37.16C221.036 36.8933 220.929 36.4933 221.036 35.96C221.089 35.5867 221.276 35.16 221.596 34.68C222.182 33.4533 222.796 32.2533 223.436 31.08C224.022 29.9067 224.662 28.7067 225.356 27.48C225.409 27.32 225.462 27.16 225.516 27C225.622 26.7867 225.729 26.6267 225.836 26.52C225.996 26.4133 226.182 26.3067 226.396 26.2C226.609 26.0933 226.796 26.0933 226.956 26.2C227.329 26.3067 227.516 26.6267 227.516 27.16C227.409 27.4267 227.302 27.6933 227.196 27.96C227.142 28.1733 227.062 28.4133 226.956 28.68C226.849 28.8933 226.689 29.1867 226.476 29.56C226.316 29.9333 226.129 30.3333 225.916 30.76C225.702 31.1333 225.516 31.5333 225.356 31.96C225.196 32.3333 225.116 32.6267 225.116 32.84C225.329 32.68 225.596 32.44 225.916 32.12C226.236 31.8 226.556 31.48 226.876 31.16C227.249 30.7867 227.596 30.44 227.916 30.12C228.236 29.7467 228.529 29.48 228.796 29.32C229.116 29.0533 229.436 28.84 229.756 28.68C230.076 28.52 230.396 28.36 230.716 28.2C232.529 27.4533 233.756 28.04 234.396 29.96C234.449 30.12 234.476 30.3067 234.476 30.52C234.529 30.68 234.582 30.84 234.636 31ZM296.871 36.28C295.965 36.1733 295.085 36.12 294.231 36.12C293.378 36.0667 292.498 35.9867 291.591 35.88C290.525 35.7733 289.405 35.6933 288.231 35.64C287.111 35.5867 285.991 35.6133 284.871 35.72C283.325 35.88 281.885 36.4133 280.551 37.32C278.951 38.3867 278.471 39.8267 279.111 41.64C279.325 42.3333 279.618 42.9467 279.991 43.48C280.418 44.0133 280.898 44.5733 281.431 45.16C282.818 46.6 284.338 47.8533 285.991 48.92C287.698 49.9867 289.485 50.9467 291.351 51.8C296.365 53.9867 301.538 54.92 306.871 54.6C307.938 54.5467 308.951 54.4133 309.911 54.2C310.925 53.9867 311.938 53.6667 312.951 53.24C313.111 53.24 313.218 53.2133 313.271 53.16C315.298 52.2 316.551 51.0533 317.031 49.72C317.565 48.3867 317.698 46.84 317.431 45.08C317.111 43 316.391 41.0267 315.271 39.16C314.418 37.7733 313.565 36.4133 312.711 35.08C311.858 33.7467 311.005 32.3867 310.151 31C309.138 29.4533 308.178 27.88 307.271 26.28C306.365 24.6267 305.698 22.8667 305.271 21C304.471 17.5867 305.271 14.6533 307.671 12.2C308.418 11.4533 309.218 10.7867 310.071 10.2C310.925 9.61333 311.805 9.10666 312.711 8.68C315.218 7.56 317.751 6.70666 320.311 6.12C322.871 5.53333 325.538 5.32 328.311 5.48C328.791 5.48 329.298 5.50667 329.831 5.56C330.365 5.61333 330.871 5.74666 331.351 5.96C333.858 6.76 335.191 8.46666 335.351 11.08C335.511 13.0533 335.058 14.8933 333.991 16.6C333.565 17.2933 333.085 18.0133 332.551 18.76C332.018 19.4533 331.458 20.0933 330.871 20.68C329.805 21.8533 328.685 23 327.511 24.12C326.338 25.24 325.165 26.3333 323.991 27.4C323.671 27.72 323.325 28.0133 322.951 28.28C322.631 28.5467 322.205 28.68 321.671 28.68C321.565 28.4133 321.565 28.2 321.671 28.04C321.831 27.88 321.965 27.7467 322.071 27.64C323.191 26.52 324.311 25.4 325.431 24.28C326.551 23.16 327.645 22.0133 328.711 20.84C329.458 19.9867 330.125 19.1333 330.711 18.28C331.298 17.3733 331.885 16.4667 332.471 15.56C333.271 14.28 333.591 12.8933 333.431 11.4C333.378 10.44 333.111 9.64 332.631 9C332.151 8.30666 331.405 7.88 330.391 7.72C329.165 7.4 327.965 7.24 326.791 7.24C321.458 7.4 316.551 8.73333 312.071 11.24C311.218 11.72 310.391 12.3067 309.591 13C307.245 15.0267 306.445 17.56 307.191 20.6C307.458 21.72 307.805 22.7867 308.231 23.8C308.658 24.76 309.165 25.72 309.751 26.68C310.605 28.0667 311.458 29.4267 312.311 30.76C313.165 32.0933 314.045 33.4533 314.951 34.84C315.805 36.12 316.578 37.4533 317.271 38.84C317.965 40.2267 318.525 41.6667 318.951 43.16C319.165 43.7467 319.298 44.28 319.351 44.76C319.458 45.24 319.538 45.7467 319.591 46.28C319.751 48.2 319.431 49.8533 318.631 51.24C317.831 52.6267 316.605 53.7733 314.951 54.68C313.618 55.4267 312.231 55.9333 310.791 56.2C309.351 56.4667 307.885 56.6267 306.391 56.68C297.911 57 290.205 54.6267 283.271 49.56C282.311 48.8133 281.405 48.04 280.551 47.24C279.698 46.44 278.925 45.5067 278.231 44.44C276.845 42.4133 276.445 40.4933 277.031 38.68C277.565 36.8667 278.978 35.5067 281.271 34.6C282.605 34.0133 283.965 33.6933 285.351 33.64C286.791 33.5333 288.205 33.5333 289.591 33.64C291.938 33.8 294.151 34.44 296.231 35.56C296.391 35.6667 296.525 35.7467 296.631 35.8C296.738 35.8533 296.845 35.9333 296.951 36.04V36.12C296.951 36.1733 296.925 36.2267 296.871 36.28ZM349.983 31.64C350.249 31.5333 350.489 31.4533 350.703 31.4C350.916 31.2933 351.156 31.1867 351.423 31.08C352.063 30.9733 352.516 31.16 352.783 31.64C353.049 32.28 352.889 32.7333 352.303 33C350.329 34.0133 348.276 34.7867 346.143 35.32C344.009 35.8533 341.876 36.1733 339.743 36.28C338.996 36.3333 338.196 36.3333 337.343 36.28C336.543 36.2267 335.796 36.04 335.103 35.72C334.463 35.4 333.982 34.9467 333.662 34.36C333.342 33.72 333.316 32.8667 333.582 31.8C333.956 30.7333 334.303 29.9867 334.623 29.56C334.943 29.1333 335.556 28.68 336.463 28.2C337.423 27.7733 338.409 27.48 339.423 27.32C340.489 27.1067 341.503 27 342.463 27C343.369 27.1067 343.903 27.56 344.062 28.36C344.223 29.2133 343.929 29.8533 343.183 30.28C342.649 30.6 342.089 30.8933 341.503 31.16C340.916 31.3733 340.303 31.5867 339.663 31.8C339.183 31.9067 338.676 31.9867 338.143 32.04C337.609 32.0933 337.076 32.12 336.543 32.12C335.743 32.12 335.289 32.3067 335.183 32.68C335.129 33 335.289 33.3467 335.663 33.72C336.196 34.2533 337.129 34.5467 338.463 34.6C339.796 34.6 341.209 34.4933 342.703 34.28C344.249 34.0133 345.689 33.64 347.023 33.16C348.409 32.68 349.396 32.1733 349.983 31.64ZM341.903 29.32C342.276 28.84 342.276 28.6 341.903 28.6C341.583 28.5467 341.076 28.6267 340.383 28.84C339.743 29.0533 338.996 29.3733 338.143 29.8C337.289 30.2267 336.543 30.6533 335.903 31.08C336.703 31.1867 337.743 31.08 339.023 30.76C340.303 30.3867 341.263 29.9067 341.903 29.32ZM368.932 32.6C368.132 33.2933 367.145 33.8533 365.972 34.28C364.852 34.7067 363.759 34.9467 362.692 35C361.679 35.0533 360.825 34.84 360.132 34.36C359.439 33.88 359.119 33.0533 359.172 31.88C359.172 31.7733 359.145 31.6933 359.092 31.64C359.092 31.5333 359.065 31.3733 359.012 31.16C358.585 31.4267 358.212 31.6933 357.892 31.96C357.572 32.2267 357.199 32.4933 356.772 32.76C356.185 33.1333 355.625 33.5333 355.092 33.96C354.559 34.3333 353.972 34.6533 353.332 34.92C352.799 35.1867 352.265 35.32 351.732 35.32C350.665 35.32 350.132 34.7867 350.132 33.72C350.132 33.24 350.212 32.7867 350.372 32.36C350.745 31.4533 351.225 30.6267 351.812 29.88C352.399 29.1333 352.985 28.3867 353.572 27.64C354.159 27.16 354.665 27.0533 355.092 27.32C355.519 27.7467 355.519 28.28 355.092 28.92C354.825 29.3467 354.532 29.7467 354.212 30.12C353.945 30.4933 353.652 30.8933 353.332 31.32C353.172 31.5867 352.905 32.04 352.532 32.68C352.852 32.52 353.092 32.44 353.252 32.44C353.465 32.3867 353.652 32.3067 353.812 32.2C354.719 31.4533 355.625 30.7333 356.532 30.04C357.492 29.2933 358.425 28.5467 359.332 27.8C359.545 27.6933 359.732 27.5333 359.892 27.32C360.105 27.1067 360.345 26.9467 360.612 26.84C360.772 26.7333 360.985 26.68 361.252 26.68C361.572 26.68 361.839 26.7333 362.052 26.84C362.692 27.1067 362.825 27.6133 362.452 28.36C362.345 28.7333 362.212 29.1067 362.052 29.48C361.945 29.8 361.839 30.12 361.732 30.44C361.465 31.4533 361.439 32.1467 361.652 32.52C361.919 32.8933 362.319 33.08 362.852 33.08C363.385 33.08 363.972 32.9733 364.612 32.76C365.252 32.5467 365.865 32.36 366.452 32.2C366.719 32.1467 367.065 32.04 367.492 31.88C367.972 31.6667 368.372 31.5333 368.692 31.48C369.065 31.4267 369.305 31.48 369.412 31.64C369.519 31.7467 369.359 32.0667 368.932 32.6ZM382.83 37.08C384.217 36.5467 385.817 35.8267 387.63 34.92C389.443 33.96 391.043 33.1067 392.43 32.36C393.283 31.9867 393.95 31.8267 394.43 31.88C394.963 31.88 395.283 32.0133 395.39 32.28C395.497 32.4933 395.39 32.8133 395.07 33.24C394.803 33.6133 394.27 33.9867 393.47 34.36C391.817 35.1067 390.137 35.8533 388.43 36.6C386.777 37.2933 385.097 37.9867 383.39 38.68C382.217 39.16 381.123 39.2133 380.11 38.84C379.15 38.36 378.777 37.4533 378.99 36.12C379.097 35.5867 379.257 35.1333 379.47 34.76C379.683 34.3333 379.843 33.88 379.95 33.4C380.163 32.8133 380.35 32.28 380.51 31.8C380.723 31.32 380.803 30.9467 380.75 30.68C380.75 30.36 380.563 30.1733 380.19 30.12C379.87 30.0667 379.283 30.1733 378.43 30.44C377.523 30.92 376.617 31.4267 375.71 31.96C374.857 32.44 374.003 32.9467 373.15 33.48C372.35 34.0667 371.55 34.6533 370.75 35.24C370.003 35.8267 369.203 36.4133 368.35 37C368.243 37.1067 368.137 37.24 368.03 37.4C367.87 37.5067 367.683 37.6133 367.47 37.72C367.203 37.8267 366.937 37.9333 366.67 38.04C366.35 38.1467 366.03 38.04 365.71 37.72C365.443 37.4533 365.337 37.1867 365.39 36.92C365.39 36.6 365.497 36.3067 365.71 36.04C366.137 35.4 366.563 34.76 366.99 34.12C367.363 33.48 367.763 32.84 368.19 32.2C368.723 31.5067 369.23 30.8133 369.71 30.12C370.19 29.4267 370.67 28.7067 371.15 27.96C371.417 27.64 371.603 27.32 371.71 27C372.617 25.88 373.283 25.5333 373.71 25.96C374.19 26.28 374.03 27.0533 373.23 28.28C372.857 28.8667 372.51 29.4533 372.19 30.04C371.87 30.5733 371.497 31.1067 371.07 31.64C370.91 31.8533 370.617 32.2 370.19 32.68C369.763 33.16 369.39 33.6133 369.07 34.04C368.75 34.4133 368.59 34.6533 368.59 34.76C368.537 34.8667 368.83 34.6267 369.47 34.04C370.643 33.08 371.87 32.1733 373.15 31.32C374.483 30.4133 375.817 29.64 377.15 29C377.683 28.7333 378.27 28.4933 378.91 28.28C379.603 28.0133 380.217 27.9067 380.75 27.96C381.337 27.96 381.817 28.1467 382.19 28.52C382.617 28.8933 382.883 29.5067 382.99 30.36C383.097 31.2133 382.937 32.0133 382.51 32.76C382.083 33.4533 381.683 34.2 381.31 35C380.937 36.0133 380.83 36.7333 380.99 37.16C381.15 37.5333 381.763 37.5067 382.83 37.08ZM404.864 35.72C406.518 35.1333 407.744 34.7067 408.544 34.44C409.398 34.1733 410.144 33.9333 410.784 33.72C411.478 33.5067 412.224 33.2667 413.024 33C413.878 32.68 415.131 32.2267 416.784 31.64C417.318 31.4267 417.691 31.3467 417.904 31.4C418.118 31.4533 418.358 31.5333 418.624 31.64C418.891 31.6933 419.104 31.8267 419.264 32.04C419.478 32.3067 419.504 32.5733 419.344 32.84C419.238 33.1067 419.078 33.2933 418.864 33.4C418.598 33.56 418.304 33.72 417.984 33.88C417.664 34.04 417.371 34.1467 417.104 34.2C415.878 34.6267 415.051 34.8933 414.624 35C414.198 35.0533 413.851 35.08 413.584 35.08C413.371 35.08 413.051 35.1333 412.624 35.24C412.251 35.2933 411.451 35.5333 410.224 35.96C408.998 36.3867 407.744 36.84 406.464 37.32C405.238 37.7467 403.958 38.1733 402.624 38.6C402.198 38.8133 401.771 39.1867 401.344 39.72C400.971 40.2 400.651 40.68 400.384 41.16C398.784 43.7733 396.998 46.2267 395.024 48.52C393.051 50.76 390.758 52.7067 388.144 54.36C386.438 55.4267 384.731 56.3333 383.024 57.08C381.264 57.8267 379.371 58.28 377.344 58.44C376.278 58.5467 375.318 58.4667 374.464 58.2C373.451 57.9867 372.758 57.5067 372.384 56.76C372.011 56.0133 372.091 55.1867 372.624 54.28C373.211 53.16 373.984 52.1467 374.944 51.24C375.851 50.4933 376.784 49.8 377.744 49.16C378.651 48.4667 379.558 47.7733 380.464 47.08C383.024 45.3733 385.691 43.9067 388.464 42.68C391.184 41.4533 393.904 40.2533 396.624 39.08C397.691 38.76 398.651 38.2533 399.504 37.56C400.411 36.8667 401.104 36.04 401.584 35.08C402.491 33.7467 403.051 32.5467 403.264 31.48C403.478 30.4133 403.638 29.88 403.744 29.88C403.051 30.2 402.198 30.7333 401.184 31.48C400.171 32.2267 399.344 32.76 398.704 33.08C398.118 33.4 397.558 33.6667 397.024 33.88C396.491 34.04 395.931 34.2 395.344 34.36C394.918 34.5733 394.518 34.6267 394.144 34.52C393.771 34.36 393.424 34.12 393.104 33.8C392.678 33.0533 392.731 32.3067 393.264 31.56C393.531 31.1333 393.851 30.7067 394.224 30.28C394.598 29.8533 394.998 29.48 395.424 29.16C396.384 28.2533 397.398 27.5333 398.464 27C399.531 26.4667 400.678 26.04 401.904 25.72C402.224 25.6133 402.544 25.56 402.864 25.56C403.238 25.56 403.584 25.56 403.904 25.56C404.171 25.5067 404.384 25.48 404.544 25.48C404.758 25.48 404.998 25.4267 405.264 25.32C405.584 25.2133 405.878 25.16 406.144 25.16C406.464 25.1067 406.704 25.2133 406.864 25.48C407.344 25.9067 407.398 26.52 407.024 27.32C406.331 28.8667 405.638 30.4133 404.944 31.96C404.304 33.5067 403.611 34.9733 402.864 36.36L404.864 35.72ZM378.864 56.6C380.784 56.0667 382.731 55.24 384.704 54.12C386.624 52.9467 388.464 51.6133 390.224 50.12C391.984 48.6267 393.584 47.0267 395.024 45.32C396.464 43.6133 397.638 41.9067 398.544 40.2C397.104 40.6267 395.424 41.2933 393.504 42.2C391.584 43.0533 389.664 44.04 387.744 45.16C385.824 46.28 384.011 47.4267 382.304 48.6C380.544 49.7733 379.104 50.84 377.984 51.8C377.024 52.4933 376.251 53.2133 375.664 53.96C375.024 54.6533 374.704 55.2667 374.704 55.8C374.651 56.3333 374.944 56.7067 375.584 56.92C376.224 57.08 377.318 56.9733 378.864 56.6ZM396.464 31.32C396.091 32.0133 396.118 32.36 396.544 32.36C397.024 32.3067 397.664 32.0667 398.464 31.64C399.264 31.2133 400.144 30.6533 401.104 29.96C402.118 29.2133 402.998 28.4667 403.744 27.72C403.211 27.72 402.598 27.8267 401.904 28.04C401.211 28.2 400.518 28.44 399.824 28.76C399.184 29.08 398.544 29.48 397.904 29.96C397.318 30.3867 396.838 30.84 396.464 31.32ZM435.591 35.8C435.591 35.3733 435.725 35 435.991 34.68C436.205 34.3067 436.445 33.9867 436.711 33.72C437.618 32.8133 438.525 31.9333 439.431 31.08C440.391 30.1733 441.351 29.2933 442.311 28.44C445.565 25.6133 448.845 22.8667 452.151 20.2C455.458 17.5333 458.845 14.92 462.311 12.36C463.538 11.4 464.791 10.4933 466.071 9.64C467.405 8.73333 468.685 7.88 469.911 7.08C471.031 6.44 472.151 5.96 473.271 5.64C474.338 5.37333 475.218 5.48 475.911 5.96C476.605 6.44 476.925 7.26667 476.871 8.44C476.818 9.18667 476.711 9.96 476.551 10.76C476.445 11.56 476.285 12.3333 476.071 13.08C475.485 15.2667 474.898 17.4533 474.311 19.64C473.725 21.8267 473.138 24.04 472.551 26.28C472.285 27.5067 472.018 28.7333 471.751 29.96C471.538 31.1867 471.458 32.4133 471.511 33.64C471.511 34.0667 471.538 34.3867 471.591 34.6C471.805 35.72 472.471 36.3067 473.591 36.36C474.391 36.4133 475.138 36.3067 475.831 36.04C476.525 35.72 477.218 35.3733 477.911 35C478.711 34.5733 479.511 34.1467 480.311 33.72C481.111 33.24 481.885 32.7067 482.631 32.12C485.511 30.0933 488.231 27.9333 490.791 25.64C493.351 23.2933 495.831 20.84 498.231 18.28C499.458 17 500.658 15.72 501.831 14.44C503.058 13.16 504.285 11.88 505.511 10.6C505.778 10.3333 506.018 10.0933 506.231 9.88C506.445 9.66666 506.711 9.50667 507.031 9.4C507.671 8.92 508.098 8.70666 508.311 8.76C508.525 8.81333 508.631 9 508.631 9.32C508.631 9.58666 508.525 9.93333 508.311 10.36C508.098 10.7333 507.885 11.08 507.671 11.4C506.391 12.84 505.085 14.3067 503.751 15.8C502.471 17.2933 501.218 18.76 499.991 20.2C497.858 22.76 495.751 25.3467 493.671 27.96C491.645 30.52 489.671 33.16 487.751 35.88C485.138 39.56 482.578 43.2667 480.071 47C477.618 50.7333 475.245 54.5733 472.951 58.52C469.965 63.8 467.831 67.2667 466.551 68.92C465.271 70.6267 464.711 71.0267 464.871 70.12C465.031 69.2667 465.805 67.4 467.191 64.52C468.631 61.64 470.551 58.28 472.951 54.44C475.511 50.2267 478.151 46.0933 480.871 42.04C483.645 37.9867 486.551 33.9867 489.591 30.04C489.698 29.88 489.778 29.72 489.831 29.56C489.938 29.4 490.018 29.1867 490.071 28.92C489.325 29.5067 488.551 30.12 487.751 30.76C486.951 31.3467 486.178 31.9333 485.431 32.52C484.045 33.5867 482.631 34.5733 481.191 35.48C479.805 36.3867 478.311 37.16 476.711 37.8C475.858 38.0667 474.898 38.2533 473.831 38.36C472.711 38.4667 471.751 38.2 470.951 37.56C470.205 36.8667 469.778 35.96 469.671 34.84C469.565 33.7733 469.538 32.7067 469.591 31.64C469.698 30.5733 469.885 29.5333 470.151 28.52C470.578 26.6533 471.031 24.7867 471.511 22.92C471.991 21.0533 472.471 19.1867 472.951 17.32C473.271 16.0933 473.565 14.8933 473.831 13.72C474.151 12.5467 474.471 11.3467 474.791 10.12C474.845 9.8 474.871 9.48 474.871 9.16C474.925 8.84 474.925 8.52 474.871 8.2C474.871 7.45333 474.498 7.18666 473.751 7.4C473.485 7.50666 473.191 7.61333 472.871 7.72C472.605 7.82666 472.338 7.93333 472.071 8.04C470.685 8.68 469.378 9.42666 468.151 10.28C466.925 11.1333 465.698 12.0133 464.471 12.92C460.898 15.5867 457.378 18.3067 453.911 21.08C450.445 23.8533 447.031 26.68 443.671 29.56C442.551 30.5733 441.458 31.56 440.391 32.52C439.325 33.4267 438.231 34.3867 437.111 35.4C436.898 35.6133 436.685 35.8 436.471 35.96C436.205 36.12 435.911 36.0667 435.591 35.8ZM519.592 31.64C519.859 31.5333 520.099 31.4533 520.312 31.4C520.525 31.2933 520.765 31.1867 521.032 31.08C521.672 30.9733 522.125 31.16 522.392 31.64C522.659 32.28 522.499 32.7333 521.912 33C519.939 34.0133 517.885 34.7867 515.752 35.32C513.619 35.8533 511.485 36.1733 509.352 36.28C508.605 36.3333 507.805 36.3333 506.952 36.28C506.152 36.2267 505.405 36.04 504.712 35.72C504.072 35.4 503.592 34.9467 503.272 34.36C502.952 33.72 502.925 32.8667 503.192 31.8C503.565 30.7333 503.912 29.9867 504.232 29.56C504.552 29.1333 505.165 28.68 506.072 28.2C507.032 27.7733 508.019 27.48 509.032 27.32C510.099 27.1067 511.112 27 512.072 27C512.979 27.1067 513.512 27.56 513.672 28.36C513.832 29.2133 513.539 29.8533 512.792 30.28C512.259 30.6 511.699 30.8933 511.112 31.16C510.525 31.3733 509.912 31.5867 509.272 31.8C508.792 31.9067 508.285 31.9867 507.752 32.04C507.219 32.0933 506.685 32.12 506.152 32.12C505.352 32.12 504.899 32.3067 504.792 32.68C504.739 33 504.899 33.3467 505.272 33.72C505.805 34.2533 506.739 34.5467 508.072 34.6C509.405 34.6 510.819 34.4933 512.312 34.28C513.859 34.0133 515.299 33.64 516.632 33.16C518.019 32.68 519.005 32.1733 519.592 31.64ZM511.512 29.32C511.885 28.84 511.885 28.6 511.512 28.6C511.192 28.5467 510.685 28.6267 509.992 28.84C509.352 29.0533 508.605 29.3733 507.752 29.8C506.899 30.2267 506.152 30.6533 505.512 31.08C506.312 31.1867 507.352 31.08 508.632 30.76C509.912 30.3867 510.872 29.9067 511.512 29.32ZM530.221 31.64C530.861 31.5333 531.475 31.4533 532.061 31.4C532.648 31.2933 533.235 31.1867 533.821 31.08C534.248 30.9733 534.781 30.8933 535.421 30.84C536.061 30.7867 536.621 30.7067 537.101 30.6C537.368 30.6 537.555 30.6 537.661 30.6C537.821 30.6 538.035 30.6533 538.301 30.76C538.461 30.8667 538.595 31.0267 538.701 31.24C538.861 31.4 538.915 31.5867 538.861 31.8C538.861 31.9067 538.755 32.04 538.541 32.2C538.328 32.36 538.168 32.44 538.061 32.44C537.528 32.5467 537.021 32.6533 536.541 32.76C536.115 32.8133 535.635 32.8667 535.101 32.92C534.088 33.1333 533.075 33.32 532.061 33.48C531.101 33.5867 530.141 33.7467 529.181 33.96C528.595 34.0667 528.115 34.3333 527.741 34.76C526.621 35.8267 525.688 36.7067 524.941 37.4C524.248 38.0933 523.395 38.6 522.381 38.92C521.635 39.1333 520.941 39.1867 520.301 39.08C519.661 38.92 519.181 38.5467 518.861 37.96C518.541 37.3733 518.488 36.5733 518.701 35.56C518.915 34.4933 519.501 33.1867 520.461 31.64C521.155 30.5733 521.955 29.6133 522.861 28.76C523.821 27.8533 524.835 26.9733 525.901 26.12C526.328 25.8 526.781 25.5333 527.261 25.32C527.741 25.0533 528.301 24.8933 528.941 24.84C529.848 24.7333 530.541 24.8933 531.021 25.32C531.501 25.6933 531.715 26.3333 531.661 27.24C531.661 27.6667 531.581 28.12 531.421 28.6C531.261 29.0267 531.128 29.48 531.021 29.96C530.915 30.2267 530.781 30.4933 530.621 30.76C530.515 30.9733 530.381 31.2667 530.221 31.64ZM522.541 32.04C521.635 33.16 521.181 34.12 521.181 34.92C521.181 35.6667 521.421 36.1733 521.901 36.44C522.435 36.6533 523.048 36.6 523.741 36.28C524.488 35.9067 525.128 35.16 525.661 34.04C524.808 34.04 524.115 33.9067 523.581 33.64C523.048 33.32 522.701 32.7867 522.541 32.04ZM529.341 26.76C527.475 27.3467 526.088 28.44 525.181 30.04C525.075 30.2533 525.021 30.4667 525.021 30.68C525.021 30.8933 525.155 31.1067 525.421 31.32C525.741 31.64 526.168 31.7733 526.701 31.72C527.288 31.6667 527.688 31.4267 527.901 31C528.221 30.5733 528.488 30.0933 528.701 29.56C528.968 29.0267 529.181 28.52 529.341 28.04C529.448 27.9333 529.475 27.7733 529.421 27.56C529.368 27.3467 529.341 27.08 529.341 26.76ZM551.502 37.08C552.889 36.5467 554.489 35.8267 556.302 34.92C558.115 33.96 559.715 33.1067 561.102 32.36C561.955 31.9867 562.622 31.8267 563.102 31.88C563.635 31.88 563.955 32.0133 564.062 32.28C564.169 32.4933 564.062 32.8133 563.742 33.24C563.475 33.6133 562.942 33.9867 562.142 34.36C560.489 35.1067 558.809 35.8533 557.102 36.6C555.449 37.2933 553.769 37.9867 552.062 38.68C550.889 39.16 549.795 39.2133 548.782 38.84C547.822 38.36 547.449 37.4533 547.662 36.12C547.769 35.5867 547.929 35.1333 548.142 34.76C548.355 34.3333 548.515 33.88 548.622 33.4C548.835 32.8133 549.022 32.28 549.182 31.8C549.395 31.32 549.475 30.9467 549.422 30.68C549.422 30.36 549.235 30.1733 548.862 30.12C548.542 30.0667 547.955 30.1733 547.102 30.44C546.195 30.92 545.289 31.4267 544.382 31.96C543.529 32.44 542.675 32.9467 541.822 33.48C541.022 34.0667 540.222 34.6533 539.422 35.24C538.675 35.8267 537.875 36.4133 537.022 37C536.915 37.1067 536.809 37.24 536.702 37.4C536.542 37.5067 536.355 37.6133 536.142 37.72C535.875 37.8267 535.609 37.9333 535.342 38.04C535.022 38.1467 534.702 38.04 534.382 37.72C534.115 37.4533 534.009 37.1867 534.062 36.92C534.062 36.6 534.169 36.3067 534.382 36.04C534.809 35.4 535.235 34.76 535.662 34.12C536.035 33.48 536.435 32.84 536.862 32.2C537.395 31.5067 537.902 30.8133 538.382 30.12C538.862 29.4267 539.342 28.7067 539.822 27.96C540.089 27.64 540.275 27.32 540.382 27C541.289 25.88 541.955 25.5333 542.382 25.96C542.862 26.28 542.702 27.0533 541.902 28.28C541.529 28.8667 541.182 29.4533 540.862 30.04C540.542 30.5733 540.169 31.1067 539.742 31.64C539.582 31.8533 539.289 32.2 538.862 32.68C538.435 33.16 538.062 33.6133 537.742 34.04C537.422 34.4133 537.262 34.6533 537.262 34.76C537.209 34.8667 537.502 34.6267 538.142 34.04C539.315 33.08 540.542 32.1733 541.822 31.32C543.155 30.4133 544.489 29.64 545.822 29C546.355 28.7333 546.942 28.4933 547.582 28.28C548.275 28.0133 548.889 27.9067 549.422 27.96C550.009 27.96 550.489 28.1467 550.862 28.52C551.289 28.8933 551.555 29.5067 551.662 30.36C551.769 31.2133 551.609 32.0133 551.182 32.76C550.755 33.4533 550.355 34.2 549.982 35C549.609 36.0133 549.502 36.7333 549.662 37.16C549.822 37.5333 550.435 37.5067 551.502 37.08ZM586.035 35.88C586.142 35.6133 586.248 35.2133 586.355 34.68C586.942 32.5467 587.715 30.52 588.675 28.6C589.635 26.6267 590.595 24.6533 591.555 22.68C592.622 20.4933 593.635 18.3333 594.595 16.2C595.555 14.0667 596.568 11.9067 597.635 9.72C597.688 9.61333 597.742 9.50667 597.795 9.4C597.902 9.24 597.982 9.10667 598.035 9C598.462 8.09333 599.022 7.77333 599.715 8.04C600.302 8.30666 600.462 8.89333 600.195 9.8C600.088 10.0667 599.982 10.3333 599.875 10.6C599.822 10.8667 599.742 11.1067 599.635 11.32C599.208 12.2267 598.808 13.1333 598.435 14.04C598.062 14.9467 597.662 15.8533 597.235 16.76C596.008 19.0533 594.835 21.3467 593.715 23.64C592.595 25.9333 591.422 28.2 590.195 30.44C589.662 31.5067 589.048 32.4667 588.355 33.32C587.715 34.1733 587.075 35.08 586.435 36.04C586.328 35.9867 586.248 35.96 586.195 35.96C586.195 35.96 586.142 35.9333 586.035 35.88ZM584.995 44.76C584.888 45.1333 584.755 45.5067 584.595 45.88C584.435 46.2533 584.248 46.5733 584.035 46.84C583.448 47.32 582.862 47.3733 582.275 47C581.848 46.4133 581.822 45.8 582.195 45.16C582.462 44.7333 582.862 44.3333 583.395 43.96C583.662 43.6933 583.982 43.6133 584.355 43.72C584.515 43.88 584.728 44.2267 584.995 44.76Z" fill="black"/>
</svg>
