<svg width="453" height="683" viewBox="0 0 453 683" fill="none" xmlns="http://www.w3.org/2000/svg">
<path fill-rule="evenodd" clip-rule="evenodd" d="M14.1134 251.456C15.0917 250.634 15.1156 249.582 15.3086 248.129C14.0648 250.077 14.5719 248.877 14.1134 251.456ZM113.993 207.511C114.343 207.927 114.742 209.721 115.889 208.5C116.977 208.167 116.517 207.262 116.469 205.883C114.657 206.437 115.031 205.8 114.029 207.674L113.993 207.511ZM100.243 193.248C95.1318 185.925 95.6396 188.209 92.7519 185.085C91.5799 183.875 91.0481 182.644 90.2385 181.323L87.7012 178.615C85.6231 176.811 80.9115 174.767 78.6524 173.889C76.1517 173.086 73.9169 172.898 71.6578 172.021C67.9975 171.223 67.9372 172.113 65.0382 172.999C55.1334 176.026 50.3264 179.935 44.1316 190.365C40.9797 195.335 40.8463 192.414 36.3182 201.638C34.2534 206.276 33.323 204.992 30.0511 213.484C29.363 215.61 29.0489 215.358 28.6023 217.411C27.7575 221.153 27.7702 224.111 25.7294 227.697C22.928 233.082 21.1534 239.025 18.5936 244.338C15.3456 251.776 13.8736 260.24 10.6256 267.679C7.48646 275.607 7.14942 281.633 6.0278 290.512C5.69008 293.055 5.15902 295.307 4.8213 297.85C3.66338 306.566 5.49074 322.906 5.85523 333.247C6.81451 357.867 9.27823 355.023 15.1639 368.729C18.6929 377.058 17.8241 381.853 18.707 386.984C20.3755 394.487 19.1803 397.814 19.3264 403.693C23.0709 402.548 20.3287 401.819 22.4543 399.775C24.6525 398.058 26.5492 399.046 28.8802 396.766C30.2328 395.307 30.6554 394.307 32.2496 392.774C39.7739 385.422 47.6021 387.559 55.2961 383.291C59.1973 380.53 59.4864 376.609 61.8895 372.913C69.9685 360.513 89.2943 351.122 95.2124 345.828C97.3017 343.622 97.5433 343.548 100.019 341.92C102.701 340.055 106.142 331.164 114.161 323.138C126.118 312.514 122.338 315.238 129.849 304.928C132.108 302.321 133.001 299.957 134.667 297.009C135.971 294.171 138.17 292.454 139.594 289.58L141.731 283.526C142.927 280.199 142.321 273.415 141.511 268.611C139.552 259.802 147.174 256.95 148.538 251.481C149.057 249.754 149.66 246.085 149.612 244.707C149.454 242.838 148.304 230.124 148.014 228.819C146.672 222.783 143.047 220.407 140.377 214.777C139.059 211.173 137.996 210.453 136.534 207.938C134.153 203.614 134.939 205.987 132.293 202.789L127.812 204.681C126.929 203.034 127.171 202.961 125.89 201.261L123.716 201.926C126.894 209.839 127.995 215.949 128.552 224.838C128.795 228.248 128.65 229.337 127.37 231.122C126.56 226.318 127.114 221.27 126.062 216.54C125.954 216.05 124.165 212.067 123.875 210.762C122.448 206.669 123.476 208.968 123.125 205.068L121.397 203.68C119.549 205.813 118.354 209.14 117.183 211.414C116.555 212.652 116.072 212.799 115.697 213.436L112.208 224.433C111.231 228.739 110.156 232.029 108.937 236.408C108.249 238.535 106.559 246.02 105.69 247.331C106.052 243.736 106.208 242.12 107.283 238.83L108.876 230.33C109.998 224.934 112.582 220.312 113.112 214.575C111.156 216.218 108.897 218.825 107.158 221.447C103.547 225.512 105.118 225.032 102.726 228.202C101.966 230.003 101.314 230.55 100.553 232.351C99.7922 234.151 99.5507 234.225 98.5121 235.936C95.7347 240.27 90.6396 253.325 87.4275 259.185L82.6332 266.051C80.9668 268.999 80.7013 270.126 78.3101 273.296C76.4623 275.428 75.291 277.703 73.6246 280.651C70.1224 285.206 67.5023 291.407 64.785 294.851C60.4133 300.717 53.8332 317.537 49.2565 325.381C46.5879 330.204 48.3878 330.177 44.6432 331.321C43.8224 334.011 38.6185 346.577 36.5531 347.731C35.586 344.542 38.1099 340.809 39.2932 338.009C40.4645 335.734 42.1788 330.681 43.1811 328.806C44.9563 326.347 45.1017 328.742 46.0674 324.963C47.1538 321.146 46.1515 323.021 48.8448 320.629C50.3303 318.607 60.57 299.101 62.8644 294.916C64.1082 292.968 64.7121 292.783 65.6419 290.582C68.0689 285.834 70.4601 282.664 73.4792 278.257C74.4814 276.382 74.7832 275.419 75.5439 273.619L81.4493 265.368C82.4515 263.493 81.9684 263.641 83.6228 261.219C84.6011 260.397 85.4706 259.086 86.5091 257.375C87.4388 255.175 87.4388 255.175 88.5738 252.737L99.5257 230.052C100.395 228.741 101.12 228.519 102.17 226.282L111.831 209.392L110.779 204.661L100.654 192.774L100.243 193.248ZM113.629 200.654C112.42 197.539 111.357 196.819 108.7 197.631C110.053 199.657 111.346 200.829 113.629 200.654ZM147.646 143.044C146.052 144.577 146.342 142.398 146.584 145.808C148.54 144.165 147.889 146.454 147.646 143.044ZM295.231 49.6747L295.22 53.685C295.461 53.6112 295.594 53.048 295.594 53.048L297.056 52.0786L303.351 60.0845C301.865 62.1065 302.264 60.4168 302.663 62.2112C304.583 62.1467 302.795 61.648 304.837 61.5466C306.033 61.7037 306.142 62.193 306.299 64.0613C300.707 67.3386 300.113 56.5447 296.017 53.7897C296.96 58.031 301.25 64.5594 300.538 67.7387L291.414 48.751C284.493 52.4345 285.941 48.5073 282.003 47.6206C283.72 53.0192 286.813 57.6484 288.094 61.0895C285.328 61.4124 280.614 45.4321 275.611 38.599C271.744 32.8124 271.369 29.9654 264.979 27.912C263.191 27.4132 259.53 26.6157 257.332 28.3329C255.629 29.3761 255.751 32.8233 251.438 32.5736C248.322 32.4809 241.797 27.5066 238.379 26.6353C235.878 25.8318 233.462 26.5702 230.732 27.0563C228.099 26.816 225.55 28.1176 222.917 27.8773C214.702 26.904 208.784 32.1972 202.854 38.0168C199.617 41.4451 193.517 42.4387 191.972 45.3501L190.969 47.2244C189.423 46.6518 188.336 46.9841 186.742 48.5167C187.358 51.2898 187.624 50.1634 188.639 52.9889C185.583 52.0068 187.467 51.7792 185.039 49.5599C179.881 53.0527 172.383 69.8044 168.543 76.9014C167.541 78.7757 165.391 81.8717 165.295 84.3401C165.26 89.4031 164.668 89.0614 161.806 91.8527C154.776 98.5308 158.086 95.4287 156.058 101.972L153.522 109.715C151.362 116.822 150.155 124.159 148.707 131.57C147.862 135.313 149.047 139.48 148.202 143.223C147.755 145.276 147.96 143.297 147.514 145.349C147.237 150.486 145.438 153.998 145.717 159.313C145.814 163.813 144.667 165.035 145.018 168.934C145.369 172.834 146.687 176.438 149.115 178.657L149.827 175.478C149.984 173.862 150.165 172.936 150.08 171.394C150.224 166.82 151.13 165.672 151.165 160.609C151.189 159.557 151.612 158.557 151.768 156.941C151.997 153.909 151.973 151.478 152.733 149.677C152.999 148.551 152.866 149.114 153.361 148.44L155.075 143.386C155.836 141.586 155.341 142.26 155.788 140.207C156.053 139.081 156.476 138.08 156.741 136.954C157.26 135.227 157.26 135.227 157.804 134.19L161.051 123.268L162.223 124.477C162.669 122.424 163.828 118.934 164.649 116.244L167.426 108.427C168.984 104.989 170.095 103.604 171.024 101.404C172.196 99.1295 172.449 95.0453 174.756 93.8175C174.635 97.3384 168.755 108.021 166.799 113.148C166.111 115.275 165.954 116.891 165.435 118.617C163.479 123.745 161.016 128.33 159.652 133.8C159.205 135.852 158.916 138.031 158.36 139.595C157.841 141.322 157.986 140.232 157.431 141.795L154.667 156.055C154.33 158.597 153.846 158.744 153.303 161.524C152.833 164.629 152.485 178.15 152.74 181.034C154.876 174.98 156.952 162.847 161.517 159.013C161.047 165.602 157.05 170.831 155.408 176.211C154.829 178.827 154.672 180.443 153.984 182.57C155.53 183.142 155.071 182.237 155.204 181.674C154.938 182.801 155.12 183.616 154.866 184.216C154.42 186.269 154.492 184.853 153.453 186.565C152.825 187.802 151.521 190.639 151.92 192.434C154.855 189.969 155.024 189.569 156.534 186.494C160.605 186.818 166.102 189.493 172.359 188.625C175.838 188.607 183.592 185.192 189.306 185.361C194.295 185.753 196.578 182.093 201.494 182.158C206.411 182.224 206.097 183.713 212.716 182.735C220.073 181.009 218.877 180.852 225.279 178.895C229.76 177.003 232.876 177.095 237.249 174.714C243.856 170.778 267.229 164.504 270.441 158.644C272.868 153.896 273.617 152.621 279.052 150.96C283.642 149.557 294.79 141.097 298.281 137.069C303.112 132.108 307.255 132.757 308.667 123.441C309.028 119.846 310.224 120.003 309.982 116.593C309.413 111.715 305.414 106.492 305.461 102.644C308.626 104.116 314.029 117.969 309.453 129.298C307.63 133.862 304.864 134.185 301.385 137.688C296.446 142.159 288.861 150.401 283.051 152.699C277.35 155.487 275.477 153.447 272.652 159.885C271.07 164.375 267.543 166.499 263.871 167.969C260.586 170.019 257.434 174.989 254.535 175.875C251.479 174.893 252.457 174.072 249.063 175.632C244.34 177.598 233.928 181.826 229.471 182.666C221.281 184.124 218.721 185.952 208.61 187.474C206.931 187.465 204.781 187.077 202.546 186.889C196.591 186.793 190.092 191.218 182.41 191.476C179.644 191.799 178.508 190.753 176.092 191.491C172.48 192.072 167.117 192.318 163.915 190.684C158.962 188.713 156.1 191.505 152.791 194.607L152.307 194.754L151.715 194.413L151.365 193.997C150.604 195.798 147.597 196.194 145.314 196.37C140.868 196.683 132.871 193.204 128.244 192.702C125.369 192.536 122.953 193.274 120.006 192.782C117.372 192.541 118.701 192.135 117.082 191.236C116.49 190.895 114.448 190.996 113.856 190.654L106.753 188.296C105.207 187.723 105.098 187.234 103.588 186.825C102.283 186.178 101.691 185.836 100.423 185.353C98.5259 184.365 99.009 184.217 97.0158 183.956C103.312 195.445 107.925 189.506 115.839 196.669L130.384 200.585C137.185 200.422 142.829 214.202 146.804 220.478C151.021 226.68 151.991 243.805 150.966 251.958C150.206 257.242 150.472 256.116 146.885 259.129C142.561 262.889 144.471 270.319 144.46 277.814C144.485 280.245 143.387 284.588 142.698 286.715C141.721 291.02 139.571 290.632 140.381 295.437C137.228 296.923 136.516 300.102 134.717 303.614C134.198 305.341 133.848 304.925 133.051 306.562L125.841 317.651L126.699 320.35C124.284 321.089 125.612 320.683 123.474 319.768C119.368 324.508 114.935 327.779 110.95 332.481C108.45 335.162 109.586 337.951 108.028 341.388C106.724 344.226 104.272 346.543 101.833 348.334L80.2132 365.395C73.8 371.363 72.7129 371.695 65.8404 376.757C62.0118 379.844 63.7757 381.395 61.735 384.981C58.9335 390.367 49.0773 394.773 44.801 394.687C35.8498 394.461 37.3961 395.034 29.3524 402.37C26.9126 404.161 23.7601 405.648 21.2841 407.276C19.0859 408.993 18.4224 413.551 15.2213 413.658C13.0823 409.26 16.5253 410.821 16.4993 401.421C16.4746 398.99 16.9698 398.316 16.7275 394.906C16.1461 387.069 14.2962 378.75 12.386 371.32C10.4034 363.564 4.65261 359.747 2.70445 343.444C2.00296 339.129 2.2072 333.666 2.21847 329.655C2.18114 324.266 2.07162 320.293 1.20074 314.636C-0.383642 305.19 1.45076 296.615 2.83829 288.351C4.9618 275.856 2.09945 278.647 7.96751 265.007C9.65788 261.006 10.5876 258.805 11.4563 254.01L20.8612 227.268C23.5538 221.393 23.1435 223.609 24.35 216.272C24.9772 211.55 27.0074 215.459 25.5812 211.366L27.5018 211.301C27.7307 208.27 29.0587 204.38 30.5924 201.994C32.8748 198.335 34.4211 198.908 34.5891 193.282C41.0149 190.272 43.9252 185.376 47.7412 179.331C48.6107 178.02 51.2195 175.829 51.8474 174.592C47.8606 172.326 44.321 171.492 40.0078 167.758L35.6706 165.077C30.3424 160.26 24.3021 158.622 19.3243 154.22L13.501 150.077C9.98541 148.19 6.21621 146.903 2.72454 143.963C1.31099 142.828 0.779224 141.596 -0.875945 140.534C-3.19563 138.804 -2.66386 140.036 -4.71799 137.179C-6.77216 134.323 -9.91342 131.799 -10.4459 127.084C-7.29334 125.597 -4.98493 131.338 -2.43566 133.52C0.923265 137.023 2.43332 137.432 6.05776 139.809C12.2554 143.315 17.6924 148.621 23.9264 152.291C30.124 155.797 35.3797 160.288 41.8189 163.72C43.1237 164.367 45.093 165.681 46.3977 166.327C47.944 166.9 49.1886 168.436 50.8437 169.498C52.1485 170.144 54.1417 170.406 55.7969 171.468C57.1016 172.115 59.3125 173.355 60.1334 170.665C56.4001 167.8 51.7854 166.771 47.9433 163.416L43.4973 160.246C41.8422 159.184 41.2864 159.005 39.5105 157.98C38.0969 156.844 36.5869 156.435 35.1733 155.299C32.4913 153.68 30.0628 151.46 27.1028 149.752C24.0704 147.717 21.8233 146.313 19.0324 144.205C13.9218 140.366 -2.36312 133.846 -4.70814 126.201C-3.5122 126.358 2.95169 132.222 6.68495 135.087C12.7498 139.157 18.875 142.337 24.8311 145.917C26.1358 146.563 26.7278 146.905 27.8635 147.951C34.9796 153.267 42.1316 157.004 48.8973 161.905C50.3109 163.041 50.625 163.293 51.9298 163.94L61.5705 169.007C62.9841 170.142 62.3801 170.327 64.4456 169.173C65.7743 168.767 67.5981 167.687 69.0356 167.77C70.2316 167.927 73.6384 169.325 75.7887 169.713C79.6906 170.436 85.2118 173.801 88.7154 176.214C90.7935 178.018 91.4704 179.902 94.0196 182.084C97.281 181.087 99.2263 183.454 104.288 185.914L115.04 189.596C118.942 190.319 119.401 191.224 123.122 191.132C125.888 190.809 128.763 190.976 131.469 191.542C141.097 193.652 149.687 197.472 144.597 178.645L142.386 177.404C139.485 164.354 142.601 164.447 142.926 155.463C143.046 151.942 142.285 153.742 143.202 150.326C146.582 138.84 145.697 123.257 149.464 110.608L154.317 97.6259L152.964 95.6006C155.536 93.2463 154.377 93.2524 156.828 90.935C161.418 86.0479 159.231 83.7548 164.206 74.2203C166.005 70.7087 168.396 67.5388 169.954 64.101C170.642 61.9743 171.403 60.1739 172.405 58.2996C174.554 55.2036 177.114 49.8916 178.709 48.359L183.165 44.0351C185.363 42.3179 183.08 42.4931 186.752 41.0223C188.081 40.6161 190.146 39.4622 192.091 38.3451C194.398 37.1173 195.461 37.8376 197.297 36.2311C204.145 32.2214 202.647 29.5436 213.639 26.1837C220.754 24.5316 231.408 23.7139 238.619 23.0774C241.144 22.8284 244.442 23.7366 246.81 25.1034C247.402 25.445 247.982 26.313 248.888 26.9071C253.516 30.8933 253.103 22.6571 258.793 23.8795C260.822 24.3044 261.475 25.4987 263.746 25.8497C268.24 26.9151 269.654 28.0509 272.711 32.517C273.955 34.053 275.852 35.0411 277.266 36.1769C280.274 39.2642 281.036 44.4319 285.578 45.1341C287.366 45.6328 288.972 43.5739 290.628 44.6359C291.8 45.8456 292.658 48.5449 294.627 49.8593L295.231 49.6747Z" fill="black"/>
<path fill-rule="evenodd" clip-rule="evenodd" d="M298.203 486.563C300.159 484.92 299.205 484.689 300.352 483.467C301.463 482.082 303.385 485.502 303.02 475.16C302.789 467.74 301.665 462.683 299.996 455.179C299.839 456.795 299.187 453.859 300.637 460.384L301.619 473.498L298.166 486.4L298.203 486.563ZM273.608 309.241C272.992 306.467 272.557 304.51 271.312 302.974C271.796 306.31 272.364 307.705 273.608 309.241ZM263.661 282.491C263.069 278.665 259.757 271.315 257.812 268.948C254.876 264.445 254.899 259.908 250.538 258.28C252.218 261.773 255.13 267.329 257.051 270.748C258.864 273.678 261.62 280.85 263.698 282.654L263.661 282.491ZM214.496 401.35C215.171 392.782 215.568 384.124 215.288 375.324C215.177 364.383 213.327 352.579 213.338 348.569C213.349 341.075 211.352 326.877 209.817 318.81L209.116 317.979C208.415 317.148 203.445 291.315 203.046 289.521C201.922 284.464 200.169 278.902 198.936 273.356C198.319 270.583 197.944 267.736 197.327 264.963C196.493 261.211 195.792 260.38 194.741 257.391L195.912 255.117C194.969 250.875 194.341 252.113 193.241 249.487C192.141 246.862 193.108 246.566 191.162 244.199C185.98 245.261 186.658 250.628 184.931 254.466C183.869 257.23 183.736 257.793 182.722 260.194C182.275 262.247 181.635 264.01 180.947 266.137C179.885 268.901 179.294 275.527 178.449 279.27C175.77 291.587 176.265 287.429 175.228 299.592C174.999 302.623 174.843 304.239 174.505 306.782C173.227 319.019 174.364 325.291 174.306 336.633C174.101 342.096 174.561 346.485 174.599 351.874C174.144 371.874 177.152 374.961 177.649 384.739C178.122 392.086 182.063 408.651 183.382 419.223C185.004 434.058 194.806 461.898 196.1 470.038C196.693 473.864 199.763 481.288 201.708 483.655C203.302 482.122 202.468 478.371 202.806 475.828C203.083 470.692 203.675 471.033 205.076 469.211C207.853 464.878 210.712 444.666 211.834 439.271C212.812 434.966 213.862 429.244 213.655 424.255C213.209 426.308 213.74 425.797 212.653 426.129L214.581 401.15L214.496 401.35ZM251.71 320.986C249.969 313.156 236.434 285.935 232.095 276.286C229.026 268.862 225.401 263.002 221.051 257.363C219.879 256.153 215.505 251.567 214.369 250.52C209.017 246.756 206.057 245.047 203.835 247.817C203.992 249.685 209.054 252.145 210.649 254.096C218.116 263.312 222.262 274.414 227.604 285.673C229.634 289.582 231.628 293.328 233.296 297.347C234.178 298.994 248.345 345.882 246.921 352.241C245.749 351.031 246.837 354.183 245.93 350.105L245.531 348.31L244.781 342.616C242.604 332.829 238.591 321.164 237.757 317.412C233.223 297.021 222.346 272.472 209.925 257.802C203.956 251.264 205.213 252.274 199.909 249.888C198.254 248.826 197.94 248.574 196.43 249.906C195.126 252.744 204.299 274.852 203.334 278.632C201.606 277.243 201.242 270.386 198.838 267.114C202.37 289.379 204.495 283.852 205.619 288.909C209.972 308.484 214.29 338.348 215.563 357.993C217.393 388.27 216.692 387.439 214.523 415.976L216.009 417.438C215.914 423.39 215.287 428.112 215.3 434.553C215.458 436.422 213.757 447.917 213.346 450.133L211.789 457.055C210.836 460.308 206.357 472.652 206.261 478.605L215.672 479.735C227.003 480.801 244.37 462.601 248.607 446.846C249.56 443.593 249.572 439.582 250.525 436.329C255.583 417.885 253.374 423.612 254.276 403.302C255.262 384.534 257.976 361.928 255.629 343.83C253.705 329.958 254.648 334.2 251.746 321.15L251.71 320.986ZM142.63 205.202C140.214 205.941 138.535 205.932 138.051 202.595C143.751 196.323 156.184 206.983 161.488 212.852L186.172 235.098C191.101 238.121 188.455 234.923 192.068 241.309C195.536 245.302 203.326 240.307 207.88 240.483C216.119 240.404 231.678 243.661 239.205 246.761C248.41 249.871 248.242 255.497 251.902 256.295L251.261 251.09C252.131 249.779 253.519 248.483 255.38 249.308L281.028 264.29C285.124 267.045 287.601 270.643 291.781 271.456C294.523 272.186 307.97 283.929 308.502 285.16C306.69 285.714 306.606 284.172 303.791 283.116C302.003 282.617 283.215 266.583 277.453 263.293C276.148 262.646 274.287 261.821 273.224 261.101C270.808 261.839 273.224 261.101 270.917 262.329C268.839 260.525 267.075 258.974 264.478 258.896C261.494 258.241 261.095 256.446 258.522 255.316C259.984 257.831 261.567 260.309 263.633 262.639C266.388 266.326 266.147 266.4 267.875 271.272L266.038 269.395C265.579 268.49 265.229 268.074 264.685 267.37L259.465 259.558C257.87 257.606 258.003 257.043 256.215 256.544C255.612 260.213 260.421 270.241 261.944 273.608L264.083 274.522L265.026 278.764C265.267 278.69 265.376 279.179 265.376 279.179L266.79 280.315C271.417 284.301 274.547 290.835 278.438 295.569C285.204 303.954 279.299 312.205 287.418 319.131C291.622 322.375 294.57 322.868 297.724 328.35C303.862 337.971 296.179 338.229 309.832 347.993C312.151 349.723 313.323 350.933 315.051 352.321C319.255 355.565 325.224 362.103 328.015 364.212C329.187 365.421 329.32 364.858 330.697 365.831C331.156 366.736 332.534 367.708 333.234 368.54L348.749 389.581C351.13 393.905 354.828 400.092 357.498 402.237C359.345 400.105 361.253 397.082 362.425 394.808C369.876 383.646 355.885 372.94 358.614 367.228C360.1 368.69 363.665 377.182 364.995 380.26C366.068 373.485 364.134 363.624 361.136 356.526C360.145 354.39 358.865 352.691 357.874 350.555C356.556 346.951 358.477 346.887 357.377 344.261C354.863 337.016 351.419 330.229 351.43 322.735C353.604 322.07 355.331 323.458 356.117 325.831L354.414 326.874C354.572 328.743 359.527 344.649 360.93 349.795C362.912 357.552 366.151 364.575 368.001 372.895C369.077 376.573 368.727 376.157 368.147 378.773C367.194 382.026 366.712 389.142 366.459 393.226C365.941 398.437 361.122 406.356 354.973 404.228C353.56 403.093 352.46 400.467 351.215 398.931C349.862 396.906 348.92 396.149 347.699 393.56L340.678 382.292C339.796 380.645 338.492 379.999 336.897 378.047C335.434 375.532 334.734 374.701 333.247 373.239C328.535 367.711 323.533 364.362 318.882 359.687C313.203 354.454 314.279 358.132 311.983 355.349C310.147 353.472 310.038 352.982 308.032 351.505C296.047 342.276 301.109 344.736 296.675 337.555C295.321 335.53 293.884 335.447 293.521 332.073L296.42 334.671C293.761 325.031 290.826 327.496 286.513 323.763L283.649 319.586C281.945 317.145 281.076 318.456 279.915 313.236L278.693 303.679C278.536 301.811 278.559 300.759 277.991 299.364C277.242 297.154 277 297.228 275.937 296.508C273.726 295.267 275.454 296.656 273.883 293.652C272.53 291.626 273.182 292.821 271.72 290.306C270.367 288.281 269.34 285.981 267.479 285.156C269.884 291.912 271.359 297.385 274.139 303.504C277.317 311.417 283.942 334.827 285.683 342.657C287.134 349.182 289.467 357.354 290.386 362.648C292.733 377.261 296.697 391.032 298.379 404.977C299.202 412.74 301.03 432.564 301.092 440.384C301.359 442.742 301.31 441.363 301.008 442.326C300.065 438.085 299.544 429.36 298.975 424.481C297.764 407.43 295.175 389.406 291.439 372.605C289.263 362.817 279.215 317.631 274.539 312.266C275.265 315.529 276.957 321.98 277.924 325.168C282.263 338.302 291.512 374.673 293.194 388.618C293.545 392.518 294.162 395.291 294.501 399.717C294.756 406.085 298.056 420.929 298.88 432.176C299.377 441.954 299.026 438.054 298.665 441.649C298.399 442.776 299.186 450.375 299.512 451.843C300.866 453.868 301.191 451.852 302.449 456.346C303.633 460.513 304.662 471.523 304.518 476.096C304.494 477.149 304.556 481.485 304.556 481.485C304.327 484.517 303.71 481.744 304.037 486.696C304.388 490.596 303.181 494.449 302.711 497.554C298.483 498.847 302.687 498.607 300.029 499.419C299.63 497.625 300.173 494.846 300.499 492.83C300.97 489.724 301.477 488.524 301.597 485.003C298.179 487.616 298.373 494.873 294.979 496.433C295.099 492.912 296.646 493.485 297.249 489.816L295.835 488.68C295.955 485.16 298.371 480.937 298.865 476.779C299.312 474.726 299.819 473.526 299.915 471.057C299.649 468.7 299.769 465.179 299.333 463.221C298.608 459.959 297.98 461.196 297.532 456.281L296.152 441.372C296.271 434.367 294.772 426.463 294.058 419.19C293.416 413.986 293.21 408.996 292.327 403.866C291.251 396.704 290.488 388.052 288.819 380.548C288.42 378.754 288.07 378.338 287.743 376.87C285.651 365.14 284.733 363.331 282.375 352.727C279.691 340.656 276.947 329.474 273.175 317.735C263.831 287.317 260.666 285.845 249.101 263.422C246.43 257.793 243.072 254.29 238.662 251.283C237.248 250.147 227.064 247.859 224.6 247.219C223.404 247.062 222.208 246.905 220.698 246.495C219.261 246.412 219.019 246.486 217.473 245.913C216.168 245.267 211.892 245.18 210.454 245.097C211.071 247.87 217.86 251.718 220.519 254.39C231.792 266.797 224.518 259.613 228.711 266.868C233.11 273.885 236.301 283.014 240.457 290.106C242.838 294.431 248.978 309.278 250.984 314.24C253.172 320.017 255.323 327.373 255.361 332.762C256.548 350.866 257.936 344.344 257.675 369.859C257.412 381.438 256.871 392.927 255.786 403.711C254.569 418.543 256.442 422.326 252.41 436.102C251.179 441.008 250.491 446.618 249.369 452.014C248.681 454.14 244.466 461.874 242.86 463.933C239.6 468.414 232.498 476.508 227.884 478.964C216.567 484.34 217.255 482.213 204.668 483.621C203.738 485.822 202.64 493.649 196.684 490.069L187.72 483.401C183.878 480.046 183.6 481.699 181.353 480.295C181.147 475.306 184.831 476.793 187.187 476.944C189.084 481.416 188.976 480.927 192.273 481.835C195.571 482.743 194.678 485.107 197.734 486.089C197.408 484.621 197.009 482.827 196.199 481.506C195.136 480.786 194.52 481.497 191.838 479.878C190.666 478.668 190.533 479.231 190.376 477.363C193.36 478.019 191.367 479.499 194.628 478.502C193.553 474.824 192.114 471.257 190.833 467.816C189.516 464.212 189.092 459.986 187.907 455.818C186.191 450.42 184.003 444.642 183.193 439.838C182.709 436.502 180.498 431.777 179.191 420.678C178.21 411.048 175.792 401.334 174.208 391.888C173.615 388.063 173.228 382.258 172.285 378.017C170.676 369.623 170.119 360.735 170.201 351.824C170.103 343.841 170.053 335.494 169.351 327.695L171.156 292.3C171.409 288.216 172.097 286.089 172.833 281.857C173.678 278.115 174.607 275.914 175.102 271.756C175.705 268.088 183.915 244.673 184.579 243.599C182.97 235.205 178.658 234.956 175.226 231.127C173.39 229.249 171.976 228.113 169.657 226.383C168.956 225.552 168.412 224.847 167.252 223.111L156.837 213.403C153.829 210.316 146.531 204.184 142.545 205.403L142.63 205.202Z" fill="black"/>
<path fill-rule="evenodd" clip-rule="evenodd" d="M305.185 596.274C307.141 594.631 306.03 596.015 305.341 594.658L305.185 596.274ZM289.407 530.54C291.11 529.497 292.511 527.675 293.973 526.706C294.831 529.405 294.299 528.174 294.698 529.968C295.097 531.763 295.157 530.873 295.665 533.157L294.735 535.358L296.149 536.493C297.877 537.882 297.853 538.934 297.032 541.624C295.485 541.051 293.975 540.642 291.801 541.307L291.548 545.391C293.602 548.247 295.04 548.33 297.746 548.897C297.771 551.328 297.589 550.513 296.551 552.224C299.293 552.954 297.638 551.892 298.278 553.612L296.503 556.071L298.473 560.87C301.046 558.515 297.229 559.334 302.737 557.998C303.823 554.182 302.53 553.009 300.827 550.568C300.319 548.285 300.572 544.201 301.924 542.742C303.979 545.598 302.976 547.472 304.016 550.987L307.277 549.99C308.22 554.232 307.435 551.859 305.804 554.97C310.263 561.098 314.176 554.328 315.88 560.253C317.233 562.278 315.88 560.253 318.091 561.493C318.684 565.319 317.089 563.367 319.192 567.603L321.716 567.354C322.817 573.463 315.593 574.626 314.469 569.569C313.526 565.328 315.337 564.774 313.971 559.791L309.828 559.141C309.599 562.173 308.983 562.883 309.491 565.167C309.89 566.962 311.412 568.587 311.92 570.871L309.021 571.757C309.903 573.403 309.589 573.151 310.616 573.708L310.374 573.782L308.708 576.73L308.007 575.899C307.898 575.41 307.548 574.994 307.198 574.579C304.334 570.402 301.798 574.661 300.663 577.099L302.089 581.193L304.855 580.87L307.478 585.12L306.391 588.937L307.709 592.541C308.905 592.698 309.388 592.55 310.451 593.271L310.826 596.118C308.543 596.293 310.258 594.723 307.528 595.209C306.805 602.399 306.574 598.462 305.609 602.242C306.418 603.562 306.781 603.451 307.071 604.757C306.093 605.578 306.443 605.994 304.897 605.421C304.788 604.932 303.41 603.959 303.06 603.543C300.656 600.272 303.506 598.007 301.681 592.119C300.605 588.441 302.018 589.576 300.58 586.009L297.548 583.974C297.909 580.38 296.836 587.154 297.704 582.359C298.44 578.127 297.208 576.064 298.621 573.716C299.623 571.842 299.466 573.458 300.444 569.152L305.384 568.165C304.018 563.182 305.36 569.217 302.146 561.141C298.993 562.627 300.455 565.142 296.227 566.434L292.119 560.721L292.154 555.658C292.239 553.716 293.326 553.384 292.057 551.159C290.946 552.543 292.432 554.006 289.847 556.886C286.852 560.241 288.41 556.803 287.529 562.124C285.741 561.626 286.937 561.783 284.738 560.016C280.715 555.845 283.421 556.412 280.606 555.356C279.301 554.709 280.606 555.356 279.652 555.125C277.138 547.879 279.866 542.167 282.282 541.429C282.79 543.713 282.126 543.045 282.307 543.86C282.924 546.633 282.331 542.808 283.189 545.507C283.516 546.975 282.851 548.049 283.468 550.822C286.005 553.531 287.781 554.556 290.487 551.639C285.87 543.642 290.487 551.639 287.718 541.509C290.713 538.155 289.808 539.303 289.661 533.424C289.444 532.445 289.637 530.993 289.419 530.014L289.407 530.54Z" fill="black"/>
<path fill-rule="evenodd" clip-rule="evenodd" d="M291.432 209.544C293.51 211.348 293.329 214.016 297.207 212.308C309.66 207.979 306.484 210.518 310.362 212.294C311.666 212.941 312.041 212.304 313.66 213.202C314.723 213.923 315.315 214.264 316.583 214.748L334.125 225.762L339.079 231.216C346.703 238.816 352.406 246.48 357.687 256.886C360.709 262.932 362.075 267.915 364.721 274.597C366.401 278.09 367.175 279.247 367.876 283.563C368.602 286.825 369.919 290.429 371.647 291.818C371.2 293.87 370.887 297.102 371.395 299.386C372.096 303.701 371.118 304.523 371.433 308.259L371.772 316.169C371.87 320.669 373.138 321.152 372.052 324.968C370.821 329.874 370.157 334.432 368.817 338.849C368.129 340.976 367.84 343.155 365.883 344.798C362.888 348.152 365.038 348.54 363.722 351.904C361.668 349.048 363.31 343.668 366.994 339.929L365.809 335.762C366.787 334.94 366.183 335.125 367.73 335.697C368.309 333.081 369.154 329.339 369.515 325.744C369.962 323.691 369.986 322.638 369.961 320.207C370.118 318.591 369.755 315.218 369.815 314.328C370.286 311.223 370.456 316.049 370.019 308.865C369.995 306.434 370.272 304.781 370.224 303.402C370.139 301.86 368.385 291.072 368.059 289.604C365 278.17 356.285 253.482 349.857 246.04C347.803 243.183 345.858 240.816 343.913 238.449L331.093 225.469C328.665 223.25 327.251 222.114 324.086 220.642L316.584 216.49C314.01 215.36 311.63 214.52 308.948 212.9C302.509 209.468 296.954 218.135 293.003 214.29C292.303 213.459 292.895 213.801 292.194 212.97C290.708 211.508 286.854 212.163 284.571 212.338C282.047 212.587 279.716 214.868 278.012 212.427C279.365 210.968 289.221 210.046 291.746 209.796L291.432 209.544Z" fill="black"/>
<path fill-rule="evenodd" clip-rule="evenodd" d="M311.469 425.54C309.138 427.821 307.881 425.069 309.694 431.483C310.685 433.619 313.923 433.675 315.71 434.174L319.708 428.945L317.061 422.263C317.303 422.189 317.303 422.189 317.194 421.7L317.568 421.063C318.147 418.447 317.59 409.558 325.527 412.184C326.252 415.447 325.986 413.089 325.552 414.616L322.677 414.449L320.527 417.545C321.12 421.371 323.573 426.022 326.363 424.646C326.592 421.615 326.567 419.183 325.733 415.431C327.871 416.345 326.325 415.773 328.029 418.214C328.548 416.487 327.944 416.672 327.545 414.877C329.115 414.397 329.224 414.887 330.082 417.586C329.454 418.823 329.817 418.712 329.08 419.46C325.686 424.504 330.916 421.338 326.412 427.767C324.395 430.3 326.545 430.688 322.91 432.322C322.657 436.406 322.463 434.375 321.219 436.323C323.273 439.179 321.328 436.812 324.143 437.868L324.023 441.389C321.015 441.786 320.036 439.123 318.091 436.756L314.938 438.243L315.664 441.505C313.006 442.318 311.943 441.597 309.89 442.225C309.129 444.025 309.262 443.462 309.045 445.967C307.849 445.81 308.562 446.115 307.39 444.905C304.961 442.686 304.515 444.739 302.702 441.809C304.272 441.329 305.819 441.901 307.087 442.385C305.492 440.433 306.242 442.643 305.383 439.944C308.318 437.479 306.797 441.08 310.082 439.03C302.833 430.793 307.626 420.443 311.275 425.251L311.469 425.54Z" fill="black"/>
<path fill-rule="evenodd" clip-rule="evenodd" d="M284.496 493.367C286.452 491.724 288.132 491.733 289.412 493.432L286.864 494.734C286.261 498.402 287.505 499.938 288.931 504.032C290.393 503.063 289.559 502.795 291.214 503.857C292.157 508.098 290.103 505.242 291.361 509.735C294.622 508.738 294.863 508.665 296.518 506.242C295.901 503.469 295.418 503.617 294.065 501.592C298.691 502.094 298.632 508.209 293.849 511.065C293.863 517.507 290.987 513.856 286.711 513.77C286.567 518.343 285.733 518.076 285.746 521.033C286.99 522.569 287.473 522.422 288.887 523.557C288.621 524.684 287.583 526.395 286.955 527.632C280.83 524.452 283.885 520.208 281.964 516.789C279.934 516.364 280.502 517.758 278.002 516.955C278.002 516.955 274.643 513.452 275.453 518.256C275.852 520.051 276.516 518.977 276.638 522.424C275.309 522.83 275.068 522.904 274.004 522.183C273.738 519.826 273.654 521.768 273.98 519.752L274.064 517.81C274.426 514.215 274.088 516.757 275.041 513.504C273.857 509.337 273.253 509.521 273.433 505.111C273.408 502.679 274.302 500.316 276.67 501.682C277.021 505.582 273.083 504.695 278.037 510.15C281.298 509.153 280.102 508.996 283.327 509.578C284.21 511.224 283.787 510.483 283.944 512.351L286.625 510.486C285.634 508.35 280.003 497.528 284.327 493.767L284.496 493.367Z" fill="black"/>
<path fill-rule="evenodd" clip-rule="evenodd" d="M199.125 425.039C195.417 431.573 204.458 457.729 204.11 467.765C203.76 467.35 203.869 467.839 203.542 466.371L203.675 465.808C203.215 461.419 198.464 443.533 197.592 434.392C197.435 432.524 197.35 430.982 197.205 428.587C196.721 425.251 196.613 428.246 195.307 424.115C196.889 419.625 196.551 422.167 196.055 415.873C195.812 412.463 196.259 410.41 195.908 406.51C195.533 403.663 194.59 399.422 194.577 396.464C194.552 394.033 194.915 393.922 194.539 387.591C194.283 377.739 192.057 359.605 191.475 348.285C191.341 345.364 190.978 341.99 190.494 338.654C189.998 332.36 189.705 317.119 190.247 310.855C190.585 308.313 190.101 304.977 190.1 301.493C190.847 293.251 190.315 288.535 190.809 284.377C190.966 282.762 191.28 281.272 191.195 279.73C191.17 277.298 190.929 277.372 192.281 275.914C192.898 278.687 192.186 281.866 191.848 284.408C190.775 291.182 192.321 291.755 191.248 302.013C190.753 306.171 192.144 313.586 190.998 320.033C190.395 323.702 192.331 344.016 192.393 348.352C192.539 354.231 193.966 361.809 194.112 367.687C193.908 373.15 195.093 380.802 195.59 387.096C196.074 390.432 195.736 392.974 196.22 396.311C197.334 408.862 195.994 413.278 198.811 424.787L199.125 425.039Z" fill="black"/>
<path fill-rule="evenodd" clip-rule="evenodd" d="M331.549 261.74C329.713 259.862 330.244 261.094 328.625 260.195C327.925 259.364 327.381 258.659 326.439 257.902C324.469 256.587 322.234 254.657 321.268 254.953C322.077 256.273 322.15 256.599 323.696 257.172L329.229 260.01C330.643 261.146 329.797 261.404 331.549 261.74ZM300.271 242.904L301.817 243.477C301.116 242.646 301.467 243.061 300.271 242.904ZM300.271 242.904C299.57 242.073 301.116 242.646 299.099 241.695C298.615 241.842 298.253 241.953 297.419 241.685L298.833 242.821C299.896 243.541 299.183 243.237 300.271 242.904ZM297.456 241.848C296.755 241.017 298.543 241.516 296.151 241.202C295.197 240.971 295.668 241.35 295.668 241.35L297.456 241.848ZM336.66 265.579C339.16 266.382 341.238 268.186 342.447 271.301C339.814 271.06 340.151 268.518 333.954 265.012L313.512 251.4C311.458 248.544 311.216 248.618 306.36 247.663C299.498 245.231 288.939 240.096 286.197 239.367C278.466 238.246 276.569 237.257 268.838 239.62C266.181 240.433 265.903 242.085 263.004 242.972C263.342 240.429 261.941 242.251 264.308 240.134C267.171 237.343 274.95 236.359 278.417 236.867C280.7 236.691 282.029 236.285 283.949 236.221C289.591 236.064 306.057 243.4 311.771 247.054C313.427 248.116 314.562 249.163 316.217 250.225C317.764 250.797 318.791 251.354 320.446 252.416L333.168 260.897C336.067 263.495 334.738 260.417 336.575 265.779L336.66 265.579Z" fill="black"/>
<path fill-rule="evenodd" clip-rule="evenodd" d="M303.033 523.936C301.004 523.511 300.133 521.338 299.01 519.765C298.925 518.223 298.876 516.845 299.154 515.192C299.189 510.129 300.325 512.917 301.001 509.575L302.123 504.18C303.063 494.485 311.278 495.458 311.519 495.384C311.761 495.31 313.97 489.583 317.305 490.654C317.438 493.575 316.218 494.471 315.639 497.087C315.615 498.139 318.938 501.479 316.22 504.923C313.467 508.203 313.552 509.745 312.005 509.173C312.271 508.046 312.935 506.972 313.672 506.224C312.463 503.11 312.922 504.015 311.267 502.953L310.759 500.669C309.551 497.554 307.643 500.576 306.169 502.072C307.246 509.234 309.77 505.501 311.112 511.536C308.008 514.402 308.093 515.944 303.647 512.773L303.068 515.389C302.597 518.495 303.419 519.289 302.997 523.773L303.033 523.936Z" fill="black"/>
<path fill-rule="evenodd" clip-rule="evenodd" d="M250.691 235.76C252.022 245.806 236.535 241.132 233.297 241.077C229.226 240.753 223.996 240.436 219.743 239.296C211.903 237.686 205.706 237.664 200.125 236.931C188.25 235.16 190.569 229.922 183.356 227.074C181.218 226.16 179.732 224.698 178.004 223.31L162.443 209.6C157.706 205.124 153.623 201.843 154.25 197.122C155.736 198.584 155.132 198.768 156.171 200.541C157.657 202.003 160.508 203.222 161.741 205.285C163.203 207.799 161.826 206.827 163.904 208.63C169.123 212.958 165.608 211.071 174.56 218.265L185.361 226.81C187.79 229.029 194.217 232.988 196.948 234.244L224.406 238.22C228.718 238.469 241.898 240.887 245.111 240.253C249.097 239.034 248.348 236.824 250.655 235.597L250.691 235.76Z" fill="black"/>
<path fill-rule="evenodd" clip-rule="evenodd" d="M186.059 398.196C184.815 396.66 182.867 383.841 182.565 381.32C180.763 370.896 177.03 310.017 177.85 303.843C179.37 295.016 178.669 290.701 181.18 284.01C182.11 281.81 181.542 280.415 182.713 278.141C183.68 281.33 181.12 286.642 180.59 290.636C180.506 292.579 180.204 295.284 180.12 297.226C179.782 299.768 179.275 300.968 179.046 304C178.708 306.542 178.661 308.647 178.685 311.079C178.674 315.089 179.496 315.883 179.581 319.167L180.115 334.335C180.226 345.276 180.747 354.002 182.054 365.101C184.026 380.351 182.323 377.91 186.059 394.712C187.002 398.954 186.301 398.122 185.939 398.233L186.059 398.196Z" fill="black"/>
<path fill-rule="evenodd" clip-rule="evenodd" d="M100.522 268.77C100.378 273.344 98.4463 277.419 96.8887 280.856C96.6232 281.983 96.3696 282.583 95.8262 283.62C95.3071 285.347 95.0655 285.421 94.5222 286.458L86.9032 303.246C84.3433 308.558 77.4001 322.005 74.7068 324.396C72.3758 326.676 72.267 326.187 71.555 329.366C69.3702 337.525 61.8698 343.825 57.353 349.038C56.0004 350.497 55.0707 352.697 53.4884 353.704C53.0046 350.367 53.6451 352.088 55.4204 349.629C56.4226 347.755 57.0868 346.68 58.1979 345.296C59.2001 343.421 59.9731 342.837 61.0842 341.452C62.328 339.504 62.9922 338.429 63.8617 337.118C65.5408 337.128 65.2752 338.254 66.6518 335.743L68.5838 331.668L66.3856 333.385C66.8561 330.28 69.6462 328.904 71.4215 326.445C74.0662 322.675 79.2715 317.077 81.5172 311.513L89.6074 295.103C91.8169 289.375 95.1377 284.005 97.2384 277.788C98.4336 274.461 98.7111 272.808 100.643 268.733L100.522 268.77Z" fill="black"/>
<path fill-rule="evenodd" clip-rule="evenodd" d="M337.599 440.375C337.224 441.012 336.753 440.634 336.729 441.686C336.367 445.281 337.237 443.97 337.237 443.97C337.37 443.407 337.611 443.333 337.756 442.243C337.889 441.68 337.538 441.265 337.599 440.375ZM337.669 431.991C335.99 431.982 337.077 431.65 335.858 432.545C336.716 435.244 337.779 435.965 338.396 438.738C339.629 444.284 338.36 443.801 338.735 446.648C344.135 446.565 339.835 449.273 341.406 452.277L343.134 453.665C344.547 454.801 343.726 454.007 344.378 455.201C343.509 456.512 342.18 456.919 340.719 457.888C337.806 452.332 336.817 457.164 336.863 448.091C337.092 445.059 335.619 446.555 335.763 441.982C336.1 439.439 336.342 439.365 335.858 436.029C333.889 434.715 334.179 436.02 331.63 433.837L331.871 433.763L332.004 433.2C335.482 429.698 334.021 430.667 336.751 430.181C336.835 428.239 337.004 426.097 338.115 424.712C341.703 425.184 347.188 431.869 342.019 435.888C341.777 432.478 341.559 431.499 341.655 429.031C338.84 427.975 337.668 426.765 337.754 431.791L337.669 431.991Z" fill="black"/>
<path fill-rule="evenodd" clip-rule="evenodd" d="M298.073 311.345L298.157 309.403C300.186 309.828 303.703 315.199 307.871 318.281C308.572 319.112 308.463 318.622 309.284 319.416C310.456 320.626 309.744 320.321 311.362 321.22C313.573 322.461 322.574 329.291 324.145 332.295C322.816 332.701 323.408 333.043 322.357 331.796C321.656 330.965 320.944 330.661 320.388 330.482C318.974 329.346 317.597 328.374 316.184 327.238C314.347 325.36 310.638 321.442 308.282 321.291C309.744 323.805 310.36 323.094 312.306 325.461C310.626 325.452 311.327 326.283 307.509 321.875L294.436 309.495C291.295 306.971 278.801 291.975 279.344 289.196C281 290.258 282.208 293.373 283.803 295.324C285.857 298.181 295.693 310.505 297.952 311.382L298.073 311.345Z" fill="black"/>
<path fill-rule="evenodd" clip-rule="evenodd" d="M27.9143 277.55C28.0232 278.04 29.6174 276.507 28.1566 280.961C27.7823 281.598 26.9128 282.909 26.8526 283.798C26.8286 284.851 27.6027 289.492 28.1707 290.886C26.8181 292.345 27.4699 290.055 26.2141 292.53C25.695 294.256 25.8764 295.072 25.6109 296.198C25.1404 299.304 24.4885 301.594 24.2716 304.099C22.6185 313.489 23.4507 306.789 22.4611 311.621C21.4113 317.342 21.7005 313.421 19.9013 316.933L22.7714 292.711C22.9042 292.148 23.2658 288.553 23.5074 288.479C23.1324 285.632 22.5164 286.343 21.3684 284.081C23.3979 284.506 21.9604 284.423 23.8691 284.884C28.1327 282.013 25.0516 278.6 27.9506 277.714L27.9143 277.55Z" fill="black"/>
<path fill-rule="evenodd" clip-rule="evenodd" d="M234.264 414.821C232.669 412.869 234.395 403.805 234.115 395.006C233.532 376.718 228.054 348.602 224.897 329.183C224.063 325.432 223.58 325.579 224.51 323.379C226.104 325.33 227.799 342.234 228.924 347.29C230.266 353.326 232.467 365.545 233.205 371.765C233.944 381.47 236.244 408.641 234.228 414.658L234.264 414.821Z" fill="black"/>
<path fill-rule="evenodd" clip-rule="evenodd" d="M271.887 214.472C270.22 217.42 266.656 214.154 261.367 225.178C259.194 229.327 256.646 237.597 253.639 237.994C252.696 233.752 256.728 225.203 259.071 222.396C260.847 219.937 268.262 212.095 271.887 214.472Z" fill="black"/>
<path fill-rule="evenodd" clip-rule="evenodd" d="M19.0012 352.922C15.8973 355.787 18.6769 361.906 18.5329 366.479C18.6663 369.4 18.6417 366.969 18.3762 368.095C16.6724 365.654 17.5532 360.333 17.1781 357.486C16.9119 355.128 16.9119 355.128 16.8992 352.171C17.0559 350.555 17.0193 348.65 16.8619 346.781L15.0866 349.24C14.6267 344.851 15.0866 349.24 16.0755 340.924C16.8228 332.682 17.3774 327.635 16.9288 319.235C16.6499 313.92 16.6865 315.825 17.6648 315.003L19.0315 323.471C18.8026 326.502 17.9817 329.192 17.8736 332.187C17.7535 335.708 18.6237 337.881 18.3709 341.965C18.0092 345.56 18.1427 348.481 19.0858 352.722L19.0012 352.922Z" fill="black"/>
<path fill-rule="evenodd" clip-rule="evenodd" d="M312.687 64.373C312.458 67.4046 309.668 68.7801 309.064 72.4487C306.784 86.5602 315.374 90.3805 313.95 96.739C311.135 95.6831 312.85 94.1136 310.928 90.694C309.357 87.6899 310.482 92.7468 307.907 84.649C307.158 82.439 305.635 80.8138 304.886 78.6039C304.318 77.2096 303.895 76.4678 303.569 74.9997C303.085 71.6633 303.544 72.5683 304.522 71.7466C305.405 76.8773 305.091 76.6249 306.964 80.4077C307.725 78.6073 307.592 79.1705 307.459 76.2496C307.301 74.3814 307.216 72.8394 307.494 71.1867C308.182 69.06 309.269 68.7277 309.317 66.6225L309.45 66.0593L309.534 64.1172L309.425 63.6278L312.65 64.2098L312.687 64.373Z" fill="black"/>
<path fill-rule="evenodd" clip-rule="evenodd" d="M264.994 234.523C263.073 234.588 263.073 234.588 262.735 237.13L264.994 234.523ZM278.425 225.888C278.05 226.525 272.422 229.64 268.617 233.416C267.132 235.438 265.864 236.696 264.27 238.229C262.917 239.688 261.033 241.657 259.922 243.042C259.463 242.137 259.112 241.722 258.677 241.506L256.841 239.629C258.435 238.096 264.425 231.387 266.467 231.286C267.795 230.879 266.793 232.754 269.366 230.399C271.069 229.356 275.151 225.669 276.83 225.679C279.596 225.356 277.313 225.531 278.376 226.251L278.425 225.888Z" fill="black"/>
<path fill-rule="evenodd" clip-rule="evenodd" d="M282.449 57.7619L272.554 53.2951C270.525 52.8702 271.927 54.5323 266.973 52.5621C265.077 51.574 263.386 52.0909 262.636 49.881C265.898 48.8841 265.669 51.9157 268.568 51.0295C266.139 48.8102 252.609 45.9774 251.147 43.4627C252.632 41.4408 256.486 44.2696 258.625 45.1839C261.548 46.7292 264.291 47.4589 267.105 48.5148C268.652 49.0874 269.316 49.7554 270.621 50.4018C275.091 52.5198 280.648 54.3054 282.207 57.8358L282.449 57.7619Z" fill="black"/>
<path fill-rule="evenodd" clip-rule="evenodd" d="M308.352 611.682C308.98 610.445 309.064 608.503 310.635 608.023C312.338 606.98 313.268 608.263 314.041 609.421C313.221 612.111 313.064 613.726 310.153 615.139L312.654 615.942C312.933 621.258 312.521 616.506 314.442 619.925C313.38 622.689 311.507 622.39 309.043 620.008C308.644 618.213 308.208 616.256 307.326 614.609C306.226 611.984 306.444 612.963 306.516 609.805L308.352 611.682Z" fill="black"/>
<path fill-rule="evenodd" clip-rule="evenodd" d="M327.423 520.489C326.069 518.463 322.119 514.619 319.545 513.489C315.776 512.202 317.818 512.101 317.818 512.101C320.257 510.31 326.806 517.716 327.749 518.473C329.827 520.277 329.536 518.972 330.89 520.997C330.757 521.56 330.999 521.486 330.153 521.745C330.153 521.745 329.199 521.514 328.957 521.588C330.528 524.592 333.693 526.063 333.223 529.169C331.544 529.159 330.686 526.46 329.199 524.998C325.176 520.827 318.157 520.011 316.26 515.539C320.331 515.862 323.871 520.181 327.302 520.526L327.423 520.489Z" fill="black"/>
<path fill-rule="evenodd" clip-rule="evenodd" d="M160.698 177.381C159.646 172.65 163.5 171.995 165.13 170.625C166.35 169.73 165.891 168.825 166.543 168.277C167.545 166.403 169.587 166.301 171.217 164.932C181.701 155.804 173.476 162.325 185.144 155.623C188.67 153.5 192.016 150.561 195.76 149.416C195.423 151.958 196.932 150.626 191.787 153.592C189.613 154.257 188.502 155.642 187.04 156.611C183.513 158.734 179.177 159.537 175.964 161.913C174.503 162.882 173.464 164.594 171.882 165.6C170.529 167.059 168.488 167.16 167.449 168.871C165.783 171.82 167.293 170.487 164.08 172.863C161.749 175.143 162.413 175.811 160.578 177.418L160.698 177.381Z" fill="black"/>
<path fill-rule="evenodd" clip-rule="evenodd" d="M177.694 177.238C177.476 176.259 177.211 177.386 177.211 177.386C177.296 178.928 177.67 178.29 177.694 177.238ZM183.468 176.518C179.7 178.715 174.058 178.872 167.898 180.755L161.496 182.712C157.993 183.783 159.407 184.918 156.931 186.546C156.966 181.483 161.653 181.096 166.001 179.767L178.938 175.29C181.112 174.625 182.114 172.751 184.144 173.176L183.432 176.355L183.468 176.518Z" fill="black"/>
<path fill-rule="evenodd" clip-rule="evenodd" d="M263.997 79.7786C263.236 81.579 263.731 80.905 261.69 81.0064C258.682 81.4032 260.361 81.4126 258.755 83.4715C256.544 82.2309 258.428 82.0033 255.88 83.305C252.727 84.7913 247.63 87.3946 244.755 87.2281C244.597 85.3599 243.692 86.5078 245.443 85.1015C246.421 84.2798 250.142 84.1878 252.34 82.4706C255.758 79.8579 255.976 80.8366 260.892 77.4176C263.32 79.637 261 77.907 264.033 79.9417L263.997 79.7786Z" fill="black"/>
<path fill-rule="evenodd" clip-rule="evenodd" d="M330.652 436.401L331.002 436.817L331.352 437.232C331.244 436.743 331.594 437.159 331.594 437.159L330.388 444.496C332.224 446.374 332.417 444.921 333.396 447.583C331.621 450.042 328.951 447.897 327.972 445.234C327.005 442.046 327.004 438.562 326.991 435.604L329.189 433.887L330.652 436.401Z" fill="black"/>
<path fill-rule="evenodd" clip-rule="evenodd" d="M291.068 74.4648C285.886 75.5262 286.272 70.8787 275.038 74.3125C272.864 74.9771 270.956 77.9993 267.899 77.0172C268.479 74.4012 268.056 75.4014 272.332 73.7459C274.144 73.1921 278.275 70.8842 279.471 71.0412C280.316 70.7828 284.025 71.2171 285.535 71.6266C290.089 71.8024 290.089 71.8024 291.068 74.4648Z" fill="black"/>
<path fill-rule="evenodd" clip-rule="evenodd" d="M314.585 601.416C314.234 597.516 315.9 594.568 318.69 593.192C319.79 595.818 319.174 596.528 319.513 600.954C321.833 602.684 320.709 601.111 321.459 603.321L318.415 605.297C317.714 604.466 317.352 604.577 316.337 603.493C315.165 602.284 315.382 603.262 314.5 601.616L314.585 601.416Z" fill="black"/>
<path fill-rule="evenodd" clip-rule="evenodd" d="M213.837 165.146C217.473 163.512 221.7 162.22 225.698 160.475C230.18 158.583 232.088 155.56 237.379 154.988C245.677 154.02 252.09 148.052 258.371 142.648C258.214 144.264 258.77 144.443 257.308 145.412C256.33 146.234 255.605 146.455 254.869 147.203C252.538 149.484 252.779 149.41 249.953 150.622C238.985 156.414 238.345 154.693 226.641 161.232C223.597 163.208 223.488 162.719 221.084 162.931L214.079 165.072L213.837 165.146Z" fill="black"/>
<path fill-rule="evenodd" clip-rule="evenodd" d="M211.916 165.21C210.721 168.537 210.069 167.342 206.759 168.702C204.694 169.856 203.099 171.389 200.925 172.054C199.488 171.97 187.481 174.247 187.118 174.358C187.033 172.816 185.705 173.222 187.879 172.557C189.208 172.151 192.264 173.133 198.726 170.287C200.055 169.881 202.338 169.705 203.558 168.81C205.37 168.256 205.152 167.277 206.734 166.271C209.368 166.511 206.734 166.271 208.764 166.696C209.138 166.059 209.633 165.385 209.875 165.311C210.72 165.053 211.796 165.247 211.796 165.247L211.916 165.21Z" fill="black"/>
<path fill-rule="evenodd" clip-rule="evenodd" d="M322.649 568.637C322.515 565.716 322.986 562.611 325.269 562.435C325.644 565.282 325.016 566.52 326.478 569.034C328.267 573.017 327.844 574.017 326.842 575.892C323.967 575.725 322.891 572.047 322.685 568.8L322.649 568.637Z" fill="black"/>
<path fill-rule="evenodd" clip-rule="evenodd" d="M177.364 93.3681C176.867 87.074 188.739 71.4246 191.396 70.6123C191.421 73.0438 191.239 72.2281 188.22 76.6352C187.109 78.0201 184.984 80.0636 183.872 81.4485C177.81 87.8313 179.912 92.0665 177.364 93.3681Z" fill="black"/>
<path fill-rule="evenodd" clip-rule="evenodd" d="M322.83 511.44C321.222 506.53 323.069 500.914 326.898 501.311L324.738 508.417L325.439 512.733C325.439 512.733 325.548 513.222 325.306 513.296C324.086 514.191 324.086 514.191 322.987 511.566L322.83 511.44Z" fill="black"/>
<path fill-rule="evenodd" clip-rule="evenodd" d="M315.273 232.048C310.646 231.545 306.224 227.322 296.572 226.266C294.542 225.841 295.243 226.672 293.999 225.136C299.072 223.585 307.529 227.969 312.832 230.355C314.729 231.343 314.27 230.438 315.152 232.084L315.273 232.048Z" fill="black"/>
<path fill-rule="evenodd" clip-rule="evenodd" d="M237.123 92.3486C235.638 94.3705 236.302 95.0385 234.466 93.1609C235.287 90.471 236.555 90.9543 238.548 89.4741C240.988 87.683 240.142 87.9415 243.536 86.3813C244.419 91.5121 239.998 92.515 237.123 92.3486Z" fill="black"/>
<path fill-rule="evenodd" clip-rule="evenodd" d="M210.243 268.506C208.673 268.986 209.398 268.765 208.782 269.476C207.211 266.471 205.652 262.941 204.323 259.863C202.86 257.348 200.589 253.513 199.839 251.303C202.763 252.849 208.213 264.597 210.243 268.506Z" fill="black"/>
<path fill-rule="evenodd" clip-rule="evenodd" d="M175.766 142.462L175.392 143.099C173.81 147.589 170.356 150.039 168.774 154.529C167.579 157.856 166.516 157.136 165.247 156.653C165.766 154.926 166.25 154.778 167.53 152.993L172.698 145.49C173.942 143.542 173.894 142.163 175.802 142.625L175.766 142.462Z" fill="black"/>
<path fill-rule="evenodd" clip-rule="evenodd" d="M79.0695 218.708C78.2246 222.451 75.8081 219.705 73.8395 221.875C71.8829 223.518 71.5572 225.534 68.5135 227.51C68.4888 225.078 67.6313 225.863 72.2207 220.976C74.0684 218.843 77.3178 218.372 79.2265 218.834L79.0695 218.708Z" fill="black"/>
<path fill-rule="evenodd" clip-rule="evenodd" d="M329.038 574.175C328.905 571.254 328.821 573.196 330.705 571.227C331.079 570.59 331.465 569.426 331.767 568.463C331.851 566.521 331.501 566.105 331.174 564.637C330.34 560.885 330.908 562.279 331.645 561.532C332.998 563.557 333.361 566.93 333.869 569.214C332.625 571.162 331.418 575.015 329.038 574.175Z" fill="black"/>
<path fill-rule="evenodd" clip-rule="evenodd" d="M339.56 517.649C339.669 518.138 339.645 519.191 339.645 519.191L339.26 523.838C338.922 526.381 339.031 526.87 338.983 528.975C334.839 528.325 336.432 519.825 339.597 517.812L339.56 517.649Z" fill="black"/>
<path fill-rule="evenodd" clip-rule="evenodd" d="M310.21 108.335C309.642 106.941 310.487 103.198 310.571 101.256C311.065 97.0981 309.229 95.2204 311.487 92.6138C311.971 95.9501 313.085 108.501 310.089 108.372L310.21 108.335Z" fill="black"/>
<path fill-rule="evenodd" clip-rule="evenodd" d="M120.42 271.225L123.293 257.455C123.812 255.729 123.811 252.245 124.258 250.192C125.102 246.449 124.402 245.618 125.573 243.344C125.682 243.833 125.814 243.27 126.141 244.738C126.141 244.738 125.984 246.354 126.057 246.68L121.616 267.898C121.387 270.93 121.882 270.256 120.42 271.225Z" fill="black"/>
<path fill-rule="evenodd" clip-rule="evenodd" d="M221.472 307.408C219.926 306.835 220.385 307.74 219.66 304.477L218.608 299.747C217.75 297.047 217.157 293.222 216.54 290.449C218.219 290.458 217.132 290.79 219.296 297.62C220.263 300.809 220.747 304.145 221.472 307.408Z" fill="black"/>
<path fill-rule="evenodd" clip-rule="evenodd" d="M208.737 111.478C209.003 110.351 208.387 111.062 209.003 110.351L216.141 104.163C216.492 108.062 215.054 107.979 211.032 110.776C209.438 112.309 209.921 112.161 208.616 111.515L208.737 111.478Z" fill="black"/>
<path fill-rule="evenodd" clip-rule="evenodd" d="M340.396 349.104C338.186 347.864 333.099 342.972 332.193 340.636C334.113 340.572 335.225 342.671 336.639 343.807C338.234 345.758 339.538 346.405 340.396 349.104Z" fill="black"/>
<path fill-rule="evenodd" clip-rule="evenodd" d="M303.034 523.937L304.822 524.436C305.148 525.904 305.197 527.283 305.463 529.64C305.971 531.924 305.862 531.435 305.102 533.235C304.642 532.33 304.86 533.309 304.292 531.915L304.074 530.936C304.098 529.883 303.99 529.394 303.808 528.578C303.3 526.295 302.926 526.932 302.998 523.774L303.034 523.937Z" fill="black"/>
<path fill-rule="evenodd" clip-rule="evenodd" d="M100.52 268.771C100.966 266.718 101.642 263.375 102.33 261.249C103.175 257.506 103.513 254.964 104.624 253.579C104.637 260.021 102.681 261.664 102.078 265.333C101.631 267.386 102.102 267.764 100.52 268.771Z" fill="black"/>
<path fill-rule="evenodd" clip-rule="evenodd" d="M179.107 115.135C179.506 116.929 174.047 123.128 172.96 123.46C173.322 119.865 175.11 120.364 177.151 116.778C179.324 112.63 178.636 114.756 179.107 115.135Z" fill="black"/>
<path fill-rule="evenodd" clip-rule="evenodd" d="M190.248 128.104C190.164 130.046 189.186 130.868 188.075 132.253C186.589 134.275 187.145 134.454 184.971 135.118C184.596 132.271 189.052 127.947 190.248 128.104Z" fill="black"/>
<path fill-rule="evenodd" clip-rule="evenodd" d="M193.506 165.959C191.707 169.472 189 168.905 186.391 167.611C187.127 166.863 188.456 166.457 189.543 166.125L191.355 165.571C192.442 165.238 192.201 165.312 193.385 165.996L193.506 165.959Z" fill="black"/>
<path fill-rule="evenodd" clip-rule="evenodd" d="M24.5287 378.932C22.8735 377.87 24.4086 382.453 22.921 374.023C22.7636 372.155 21.978 369.782 21.4701 367.498C24.0434 368.628 24.2497 373.617 24.5287 378.932Z" fill="black"/>
<path fill-rule="evenodd" clip-rule="evenodd" d="M300.29 526.691C297.717 525.562 300.265 524.26 295.421 522.779C295.687 521.653 294.829 522.437 296.182 520.979C297.16 520.157 297.861 520.988 299.48 521.887L300.29 526.691Z" fill="black"/>
<path fill-rule="evenodd" clip-rule="evenodd" d="M216.842 50.4653L212.76 54.1521C212.361 52.3577 211.816 49.9109 214.715 49.0247C216.044 48.6186 216.153 49.108 216.685 50.3391L216.842 50.4653Z" fill="black"/>
<path fill-rule="evenodd" clip-rule="evenodd" d="M313.781 520.651C312.126 519.589 309.758 516.481 309.069 515.123C311.835 514.8 310.241 516.333 313.43 516.752C313.938 519.036 314.071 518.472 313.781 520.651Z" fill="black"/>
<path fill-rule="evenodd" clip-rule="evenodd" d="M106.584 207.858C105.473 209.243 105.473 209.243 103.818 208.181C103.117 207.349 101.74 206.377 101.027 206.072C102.271 204.124 105.472 205.758 106.584 207.858Z" fill="black"/>
<path fill-rule="evenodd" clip-rule="evenodd" d="M296.303 109.624C294.648 108.562 295.421 107.977 295.734 104.745C296.181 102.692 296.446 101.566 298.27 100.486C298.295 102.917 297.401 101.797 297.184 104.302C296.665 106.029 297.064 107.823 296.424 109.587L296.303 109.624Z" fill="black"/>
<path fill-rule="evenodd" clip-rule="evenodd" d="M49.155 247.19C49.3124 249.058 49.3124 249.058 47.9597 250.517C47.0902 251.828 46.8487 251.902 45.52 252.308C45.3625 250.44 47.1255 246.765 49.2757 247.153L49.155 247.19Z" fill="black"/>
<path fill-rule="evenodd" clip-rule="evenodd" d="M39.6138 374.843C40.0604 372.79 43.321 368.309 44.7825 367.34C44.5536 370.371 41.3169 373.8 39.6138 374.843Z" fill="black"/>
<path fill-rule="evenodd" clip-rule="evenodd" d="M43.668 365.241C42.7985 366.552 41.4698 366.958 40.6729 368.596C39.4291 370.544 39.9848 370.722 37.7866 372.439C38.0155 369.408 36.6995 372.772 40.2137 367.691C41.2159 365.816 41.6625 363.763 43.6317 365.078L43.668 365.241Z" fill="black"/>
<path fill-rule="evenodd" clip-rule="evenodd" d="M301.351 451.978C301.351 451.978 300.481 453.289 300.36 449.842C300.601 449.768 300.516 448.226 300.806 447.789C300.673 444.869 299.997 446.469 300.95 443.216C301.917 446.404 302.51 450.23 301.472 451.941L301.351 451.978Z" fill="black"/>
<path fill-rule="evenodd" clip-rule="evenodd" d="M322.369 496.598C320.533 494.721 321.861 494.315 319.566 491.532C318.079 490.07 319.783 492.511 318.394 490.322C321.051 489.51 322.864 492.44 322.369 496.598Z" fill="black"/>
<path fill-rule="evenodd" clip-rule="evenodd" d="M310.149 543.189C311.104 543.42 311.828 543.198 312.336 545.482C312.953 548.255 312.494 547.35 311.165 547.757C309.92 546.221 310.065 545.131 310.113 543.026L310.149 543.189Z" fill="black"/>
<path fill-rule="evenodd" clip-rule="evenodd" d="M233.364 440.356C232.12 438.82 233.109 433.988 233.508 432.299C233.967 433.203 234.377 430.987 234.1 436.124C233.762 438.666 234.125 438.556 233.364 440.356Z" fill="black"/>
<path fill-rule="evenodd" clip-rule="evenodd" d="M88.4689 209.912L91.9719 208.841C92.3711 210.636 92.5888 211.616 90.9096 211.606C89.0977 212.16 89.2304 211.596 88.5897 209.875L88.4689 209.912Z" fill="black"/>
<path fill-rule="evenodd" clip-rule="evenodd" d="M190.044 258.304C189.403 256.584 190.079 253.241 190.985 252.094C192.713 253.482 191.264 257.409 190.044 258.304Z" fill="black"/>
<path fill-rule="evenodd" clip-rule="evenodd" d="M330.113 338.833C328.325 338.334 325.666 335.662 324.917 333.452C326.814 334.44 329.605 336.549 330.113 338.833Z" fill="black"/>
<path fill-rule="evenodd" clip-rule="evenodd" d="M301.119 73.8325C300.672 75.8853 299.187 77.9073 297.218 76.5929C297.978 74.7924 299.971 73.3122 301.119 73.8325Z" fill="black"/>
<path fill-rule="evenodd" clip-rule="evenodd" d="M329.242 501.989C330.22 501.167 331.053 501.435 331.924 503.608C330.921 505.482 331.767 505.224 329.725 505.325L329.242 501.989Z" fill="black"/>
<path fill-rule="evenodd" clip-rule="evenodd" d="M290.976 519.609C291.495 517.883 290.976 519.609 291.846 518.298C292.33 521.635 291.81 523.361 290.313 524.168C290.155 522.299 289.986 522.699 290.94 519.446L290.976 519.609Z" fill="black"/>
<path fill-rule="evenodd" clip-rule="evenodd" d="M200.866 121.897C199.163 119.457 199.078 117.915 201.252 117.25C201.518 119.608 202.086 121.002 200.866 121.897Z" fill="black"/>
<path fill-rule="evenodd" clip-rule="evenodd" d="M30.9151 370.534C30.4073 368.25 31.3007 365.887 32.2065 364.739C32.9559 366.949 32.1713 369.802 30.9151 370.534Z" fill="black"/>
<path fill-rule="evenodd" clip-rule="evenodd" d="M292.575 494.903C292.66 492.961 293.529 491.65 295.111 490.644C295.378 493.001 294.617 494.802 292.575 494.903Z" fill="black"/>
<path fill-rule="evenodd" clip-rule="evenodd" d="M225.236 98.0726L222.688 99.3742L223.049 95.7794L222.94 95.29C224.596 96.352 224.487 95.8627 225.236 98.0726Z" fill="black"/>
<path fill-rule="evenodd" clip-rule="evenodd" d="M343.499 518.536C344.309 519.856 343.766 520.893 343.766 520.893L342.195 521.373L341.82 518.526C343.149 518.12 342.69 517.215 343.499 518.536Z" fill="black"/>
<path fill-rule="evenodd" clip-rule="evenodd" d="M351.947 359.858C350.4 359.286 349.373 358.729 348.588 356.356C350.399 355.802 351.161 357.485 351.947 359.858Z" fill="black"/>
<path fill-rule="evenodd" clip-rule="evenodd" d="M354.506 289.566C353.02 288.104 353.044 287.051 352.053 284.915C350.591 282.4 349.89 281.569 349.14 279.359C350.445 280.006 349.273 278.796 350.626 280.821L354.506 289.566Z" fill="black"/>
<path fill-rule="evenodd" clip-rule="evenodd" d="M247.939 63.259C246.828 64.6443 246.719 64.1548 245.173 63.5818C245.329 61.9654 245.305 63.0184 245.691 61.8546C247.371 61.8642 246.911 60.9589 247.903 63.0959L247.939 63.259Z" fill="black"/>
<path fill-rule="evenodd" clip-rule="evenodd" d="M364.71 326.167C363.827 324.52 363.634 322.489 363.96 320.473C364.177 321.452 364.818 323.172 364.927 323.662C365.785 326.361 365.084 325.53 364.589 326.204L364.71 326.167Z" fill="black"/>
<path fill-rule="evenodd" clip-rule="evenodd" d="M343.971 529.367C342.376 527.416 342.98 527.231 344.091 525.846C345.444 527.871 345.082 527.982 343.971 529.367Z" fill="black"/>
<path fill-rule="evenodd" clip-rule="evenodd" d="M322.28 236.874C320.734 236.302 320.383 235.886 319.139 234.35C321.06 234.286 321.905 234.028 322.28 236.874Z" fill="black"/>
<path fill-rule="evenodd" clip-rule="evenodd" d="M293.418 584.541C293.261 582.672 293.575 582.925 294.179 582.74C295.351 583.95 294.578 584.535 294.421 586.15C294.18 586.224 293.552 587.461 293.539 584.504L293.418 584.541Z" fill="black"/>
<path fill-rule="evenodd" clip-rule="evenodd" d="M309.247 547.821C309.983 547.073 309.488 547.747 310.092 547.563C310.359 549.921 310.842 549.774 309.03 550.327L308.631 548.532L308.872 548.459C308.763 547.969 309.005 547.895 309.005 547.895L309.247 547.821Z" fill="black"/>
<path fill-rule="evenodd" clip-rule="evenodd" d="M213.257 282.045C212.447 280.725 211.178 276.757 210.743 274.8L213.172 280.503C213.922 282.713 213.281 280.993 213.257 282.045Z" fill="black"/>
<path fill-rule="evenodd" clip-rule="evenodd" d="M329.3 562.596C330.4 565.222 329.385 564.138 329.385 564.138C327.839 563.566 327.73 563.076 328.285 561.513C328.285 561.513 328.877 561.855 329.457 562.723L329.3 562.596Z" fill="black"/>
<path fill-rule="evenodd" clip-rule="evenodd" d="M305.267 102.355C304.675 102.013 304.53 103.103 303.539 100.967C302.33 97.8519 303.454 99.4247 303.696 99.3509L305.267 102.355Z" fill="black"/>
<path fill-rule="evenodd" clip-rule="evenodd" d="M313.548 427.345L313.149 425.551C315.046 426.539 314.804 426.613 314.72 428.555C313.415 427.909 314.587 429.118 313.548 427.345Z" fill="black"/>
<path fill-rule="evenodd" clip-rule="evenodd" d="M312.543 601.516C313.352 602.837 313.715 602.726 313.268 604.779C311.541 603.391 312.024 603.243 312.543 601.516Z" fill="black"/>
<path fill-rule="evenodd" clip-rule="evenodd" d="M84.4434 216.195C83.6828 217.996 83.6828 217.996 82.6315 216.749C83.3921 214.948 83.3921 214.948 84.4434 216.195Z" fill="black"/>
<path fill-rule="evenodd" clip-rule="evenodd" d="M117.787 281.437C117.943 279.822 118.873 277.621 119.151 275.968C119.175 278.4 119.248 280.468 117.787 281.437Z" fill="black"/>
<path fill-rule="evenodd" clip-rule="evenodd" d="M156.084 179.836C156.059 177.405 155.926 177.968 157.279 176.509C156.941 179.051 157.436 178.378 156.084 179.836Z" fill="black"/>
<path fill-rule="evenodd" clip-rule="evenodd" d="M241.183 43.8961C239.964 44.7919 239.855 44.3023 239.286 42.9074C240.374 42.5751 240.748 41.9379 241.183 43.8961Z" fill="black"/>
<path fill-rule="evenodd" clip-rule="evenodd" d="M303.437 539.668C303.171 537.31 302.869 538.273 304.367 537.467C304.633 539.825 305.176 538.788 303.437 539.668Z" fill="black"/>
<path fill-rule="evenodd" clip-rule="evenodd" d="M307.088 451.097C306.519 449.702 305.843 449.56 307.534 449.043C308.706 450.253 307.861 450.512 307.088 451.097Z" fill="black"/>
<path fill-rule="evenodd" clip-rule="evenodd" d="M40.051 262.517C39.2302 265.208 39.6046 264.571 38.4806 262.997C39.5917 261.612 38.7461 261.87 40.051 262.517Z" fill="black"/>
<path fill-rule="evenodd" clip-rule="evenodd" d="M184.217 161.307C185.328 159.922 185.328 159.922 187.007 159.932C185.787 160.827 185.763 161.88 184.217 161.307Z" fill="black"/>
<path fill-rule="evenodd" clip-rule="evenodd" d="M268.835 274.987L267.868 271.798C268.11 271.724 269.04 273.008 269.04 273.008C269.79 275.218 269.632 273.35 268.956 274.95L268.835 274.987Z" fill="black"/>
<path fill-rule="evenodd" clip-rule="evenodd" d="M357.502 300.148C356.862 298.427 356.511 298.011 356.777 296.885C358.021 298.421 357.659 298.532 357.502 300.148Z" fill="black"/>
<path fill-rule="evenodd" clip-rule="evenodd" d="M226.47 100.135C226.095 97.2873 225.902 98.7405 227.158 98.008C227.316 99.8769 227.617 98.9133 226.47 100.135Z" fill="black"/>
<path fill-rule="evenodd" clip-rule="evenodd" d="M115.88 287.943C116.641 286.142 115.53 287.527 116.883 286.068C117.04 287.937 117.523 287.79 115.88 287.943Z" fill="black"/>
<path fill-rule="evenodd" clip-rule="evenodd" d="M204.525 119.211L203.414 120.596C203.305 120.107 202.664 118.386 204.525 119.211Z" fill="black"/>
<path fill-rule="evenodd" clip-rule="evenodd" d="M50.3449 507.798C51.6496 508.444 51.6496 508.444 52.7734 510.017C51.3598 508.881 51.227 509.445 50.3449 507.798Z" fill="black"/>
<path fill-rule="evenodd" clip-rule="evenodd" d="M309.886 602.329C309.971 603.871 310.237 602.744 309.367 604.056C309.017 603.64 309.017 603.64 309.041 602.587L309.886 602.329Z" fill="black"/>
<path fill-rule="evenodd" clip-rule="evenodd" d="M158.427 180.515C157.364 179.794 157.473 180.284 157.787 178.794C158.487 179.625 158.741 179.025 158.427 180.515Z" fill="black"/>
<path fill-rule="evenodd" clip-rule="evenodd" d="M112.765 298.304C112.607 296.435 112.305 297.398 113.453 296.176C113.296 297.793 113.429 297.229 112.765 298.304Z" fill="black"/>
<path fill-rule="evenodd" clip-rule="evenodd" d="M280.788 503.385C279.109 503.376 280.16 504.622 279.484 502.739C280.329 502.48 279.858 502.102 280.788 503.385Z" fill="black"/>
<path fill-rule="evenodd" clip-rule="evenodd" d="M224.633 101.741C224.368 102.867 224.742 102.23 223.764 103.052C223.921 101.436 223.196 101.658 224.633 101.741Z" fill="black"/>
<path fill-rule="evenodd" clip-rule="evenodd" d="M311.653 447.262C311.979 448.73 311.738 448.804 311.279 447.899C310.71 446.504 311.653 447.262 311.653 447.262Z" fill="black"/>
<path fill-rule="evenodd" clip-rule="evenodd" d="M243.587 43.6833C242.609 44.5049 243.454 44.2465 242.5 44.0156C243.744 42.0674 243.345 43.7571 243.587 43.6833Z" fill="black"/>
<path fill-rule="evenodd" clip-rule="evenodd" d="M117.679 284.432C117.438 284.505 116.991 286.558 117.196 284.579C117.196 284.579 117.462 283.453 117.679 284.432Z" fill="black"/>
<path fill-rule="evenodd" clip-rule="evenodd" d="M111.294 303.283C111.136 301.414 111.076 302.304 111.813 301.556L111.294 303.283Z" fill="black"/>
<path fill-rule="evenodd" clip-rule="evenodd" d="M158.039 174.71L158.196 173.093C158.281 174.636 158.063 173.657 158.039 174.71Z" fill="black"/>
</svg>
