<svg width="14" height="22" viewBox="0 0 14 22" fill="none" xmlns="http://www.w3.org/2000/svg">
<path fill-rule="evenodd" clip-rule="evenodd" d="M12.7947 10.728C12.7752 10.7571 12.757 10.8159 12.7403 10.9045C12.1111 11.2696 11.5631 11.1325 11.0963 10.493C11.0519 10.4321 11.0394 10.3871 11.0589 10.358C10.984 10.0882 10.9355 9.93798 10.9133 9.90752L11.1896 9.11462C11.1478 9.11322 11.095 9.0966 11.031 9.06474L10.9644 8.9734C10.9199 8.91248 10.9172 8.85298 10.9562 8.79486C10.9952 8.73674 11.0453 8.69386 11.1066 8.6662C11.19 8.669 11.2513 8.64132 11.2903 8.58322C11.3683 8.46698 11.3978 8.20058 11.3788 7.78402C11.3793 7.3384 11.3879 7.0713 11.4047 6.98274C11.5217 6.8084 11.649 6.1739 11.7865 5.07924C11.9435 3.95554 11.9442 3.2871 11.7886 3.07394C11.7743 3.05438 11.7049 3.05136 11.5804 3.06488C11.5836 3.07852 11.5865 3.09214 11.589 3.10576C11.6166 3.25482 11.6052 3.46186 11.555 3.72686C11.527 4.02222 11.5073 4.27342 11.496 4.48044L11.6208 4.48462L11.6873 4.57574C11.7317 4.63648 11.6955 4.7538 11.5787 4.92768C11.4566 4.98284 11.2261 5.16774 10.8872 5.48234C10.8315 5.62864 10.787 5.7901 10.7535 5.96678C10.72 6.14344 10.6254 6.34768 10.4698 6.57952C10.392 6.69544 10.2642 6.85414 10.0863 7.0556C9.90854 7.25708 9.78072 7.41576 9.70291 7.53168C9.58618 7.70556 9.4527 7.96778 9.30248 8.31832C9.17444 8.69922 9.05205 8.97662 8.93532 9.1505C8.8964 9.20846 8.82696 9.28022 8.72697 9.36576L8.61024 9.53964L8.55187 9.62658C8.69076 9.48308 8.65457 9.60038 8.44327 9.97852C8.38762 10.1248 8.2598 10.2835 8.05983 10.4546C7.85985 10.6257 7.72096 10.7692 7.64313 10.8851C7.5264 11.059 7.47075 11.2053 7.47618 11.324L6.01703 13.4975C5.97813 13.5554 5.88922 13.6562 5.75032 13.7997L4.58301 15.5385C4.38303 15.7096 4.22468 15.8821 4.10795 16.0559C3.95231 16.2878 3.74102 16.6659 3.47407 17.1903C3.2682 17.6872 3.08745 18.0515 2.93181 18.2833C2.69834 18.6311 2.3538 19.0492 1.8982 19.5377C1.48151 19.9682 1.21774 20.1075 1.1069 19.9557C1.04039 19.8646 0.976837 19.6106 0.916226 19.1937C0.877782 18.8073 0.805852 18.5975 0.700439 18.5643C0.711757 18.3573 0.77578 18.1668 0.892512 17.9929L1.12597 17.6452C1.22596 17.5596 1.29541 17.4879 1.33432 17.4299C1.41214 17.314 1.47887 17.1829 1.53454 17.0366C1.59019 16.8903 1.63747 16.7882 1.67637 16.7302C1.7931 16.5563 2.0182 16.2527 2.35165 15.8194C2.70726 15.4165 2.94344 15.1281 3.06017 14.9542C3.09908 14.8963 3.16582 14.7652 3.26039 14.5609L3.49384 14.2131C3.57166 14.0972 3.74948 13.8958 4.02727 13.6087C4.32724 13.3521 4.53559 13.1368 4.65231 12.963L5.00251 12.4413C5.04143 12.3834 5.06653 12.2509 5.07785 12.0438C5.15025 11.8092 5.22536 11.6339 5.30317 11.518L5.75312 11.1331L5.92821 10.8722C6.04495 10.6984 6.21167 10.4817 6.42839 10.2223C6.64511 9.96284 6.81184 9.7462 6.92857 9.57232C7.0453 9.39844 7.15932 9.1652 7.27063 8.87262C7.38193 8.58004 7.47649 8.37578 7.55432 8.25986C7.63214 8.14396 7.7405 8.01424 7.87939 7.87072C8.07937 7.69964 8.19882 7.5851 8.23772 7.52714C8.78246 6.7157 9.24963 5.79798 9.63919 4.77394C9.69484 4.62764 9.68671 4.4496 9.61478 4.23978C9.58896 4.14666 9.58556 4.05428 9.60457 3.96266C8.8302 4.3724 7.70305 4.742 6.22312 5.0715C6.16189 5.09916 6.04077 5.18424 5.85977 5.32674C5.69826 5.44018 5.57579 5.4955 5.49232 5.49272C5.45059 5.49132 5.21129 5.49818 4.77445 5.51328C4.3376 5.52838 3.91186 5.55872 3.49725 5.60426C3.10213 5.62076 2.89346 5.6138 2.87124 5.58334C2.84901 5.55288 2.83518 5.47816 2.82973 5.35914C2.84925 5.33008 2.83678 5.2851 2.79231 5.22418C2.74786 5.16328 2.63242 5.14456 2.44598 5.16804C2.27903 5.16246 2.16223 5.114 2.09555 5.02264C1.69547 4.4745 1.6027 4.0406 1.81728 3.72098C1.91482 3.5757 2.38365 3.57652 3.22376 3.72344C4.10562 3.87176 4.59803 3.93278 4.70102 3.90652L5.38146 3.75102C5.42319 3.7524 5.48716 3.78426 5.57334 3.84656C5.70126 3.91026 5.79449 3.89852 5.85301 3.81134C5.80856 3.75044 5.81558 3.6764 5.8741 3.58922C5.97436 3.50344 6.12883 3.46406 6.3375 3.47102C6.58789 3.4794 6.76459 3.47046 6.86757 3.44418C7.39922 3.22428 8.15363 2.86328 9.13077 2.36118C10.1496 1.86048 10.7566 1.46485 10.9517 1.17427L11.298 1.23042C11.5067 1.23739 11.7308 1.12605 11.9703 0.896381C12.2321 0.697167 12.477 0.586521 12.7052 0.564439C12.9529 0.513301 13.2212 0.685673 13.5102 1.08156C13.5768 1.17291 13.6294 1.41235 13.668 1.79986C13.7483 2.18876 13.7911 2.44272 13.7966 2.56174C13.352 4.68594 13.1126 6.05942 13.0786 6.68218C13.0645 6.83026 13.0196 7.21498 12.9438 7.83634C12.9098 8.4591 12.8925 8.9933 12.892 9.43892C12.9111 9.85548 12.99 10.2146 13.1288 10.5164L13.1329 10.6056L13.0744 10.6928C12.9074 10.6872 12.8142 10.699 12.7947 10.728ZM5.01739 4.67468L5.02555 4.85322C5.06728 4.8546 5.0979 4.84078 5.11742 4.81172L5.01739 4.67468Z" fill="#4B8FB6"/>
</svg>
