<svg width="201" height="42" viewBox="0 0 201 42" fill="none" xmlns="http://www.w3.org/2000/svg">
<path d="M40.45 8.65C39.5833 9.01666 38.7167 9.4 37.85 9.8C36.9833 10.1667 36.1 10.5 35.2 10.8C33.3 11.5 31.3667 12.1833 29.4 12.85C27.4667 13.4833 25.5333 14.1 23.6 14.7C21.8333 15.2667 20.0833 15.8167 18.35 16.35C16.6167 16.8833 14.85 17.4 13.05 17.9C11.55 18.2333 10.0667 18.5667 8.6 18.9C7.13333 19.2333 5.65 19.5667 4.15 19.9C3.81667 20 3.48333 20.0667 3.15 20.1C2.85 20.1 2.51667 20.1 2.15 20.1C1.88333 20.1667 1.63333 20.1333 1.4 20C1.16667 19.8667 0.966667 19.5833 0.8 19.15C0.966667 19.0833 1.11667 19 1.25 18.9C1.35 18.7667 1.48333 18.7 1.65 18.7C5.05 18.2333 8.38333 17.5333 11.65 16.6C14.9167 15.6333 18.1833 14.6167 21.45 13.55C23.75 12.8833 26.0333 12.1667 28.3 11.4C30.6 10.6333 32.9 9.85 35.2 9.05C36.0667 8.71667 36.95 8.35 37.85 7.95C38.75 7.55 39.6333 7.15 40.5 6.75C40.6667 6.65 40.85 6.58333 41.05 6.55C41.25 6.48333 41.45 6.43333 41.65 6.4C42.1167 6.33333 42.4333 6.46667 42.6 6.8C42.8 7.1 42.8 7.5 42.6 8C42.5333 8.36667 42.4333 8.7 42.3 9C42.1667 9.26666 42.0333 9.56666 41.9 9.9C41.0333 11.5 40.1667 13.1167 39.3 14.75C38.4333 16.35 37.5667 17.9667 36.7 19.6C35.6667 21.7 34.6333 23.8167 33.6 25.95C32.5667 28.05 31.55 30.15 30.55 32.25C30.1167 33.15 29.7167 34.0667 29.35 35C28.9833 35.9333 28.5833 36.85 28.15 37.75C28.0833 37.9833 28.0333 38.2 28 38.4C27.9667 38.5667 27.9167 38.7333 27.85 38.9C27.8833 38.9667 27.9167 39 27.95 39C28.0167 39 28.05 39.0333 28.05 39.1C28.2167 38.9667 28.4 38.8333 28.6 38.7C28.8 38.5333 28.9833 38.3667 29.15 38.2C30.1167 37.1333 31.0667 36.0833 32 35.05C32.9667 33.9833 33.8833 32.9167 34.75 31.85C36.7167 29.3833 38.65 26.9167 40.55 24.45C42.45 21.9833 44.3667 19.5 46.3 17C47.2667 15.8 48.2333 14.6167 49.2 13.45C50.2 12.25 51.1833 11.05 52.15 9.85C52.55 9.41666 52.9 9.08333 53.2 8.85C53.7333 8.41666 54.1667 8.31667 54.5 8.55C54.8667 8.78333 55.0833 9.28333 55.15 10.05C55.15 10.3833 55.1167 10.7167 55.05 11.05C55.0167 11.3833 54.9667 11.7167 54.9 12.05C54.6333 13.8833 54.35 15.6833 54.05 17.45C53.75 19.2167 53.4333 21 53.1 22.8C52.6333 25.6667 52.2333 28.5167 51.9 31.35C51.7667 31.6833 51.7833 32.0167 51.95 32.35C52.05 32.15 52.1667 31.9333 52.3 31.7C52.4333 31.4667 52.5667 31.2333 52.7 31C53.8 29 54.8833 27.0167 55.95 25.05C57.05 23.0833 58.1667 21.1167 59.3 19.15C60.7 16.75 62.1333 14.45 63.6 12.25C65.1 10.0167 66.7167 7.86667 68.45 5.8C68.9833 5.16667 69.5167 4.55 70.05 3.95C70.5833 3.31667 71.1333 2.71667 71.7 2.15C72 1.75 72.4 1.5 72.9 1.4C73 1.4 73.1167 1.41667 73.25 1.45C73.3833 1.48333 73.4833 1.55 73.55 1.65C73.6167 1.98333 73.6167 2.28333 73.55 2.55C73.4167 2.71667 73.2833 2.9 73.15 3.1C73.05 3.26666 72.9167 3.45 72.75 3.65C72.1167 4.31667 71.4667 5 70.8 5.7C70.1667 6.36667 69.55 7.08333 68.95 7.85C67.35 9.78333 65.8333 11.8333 64.4 14C63 16.1667 61.65 18.4 60.35 20.7C59.1167 22.8 57.9 24.95 56.7 27.15C55.5 29.3167 54.2833 31.5 53.05 33.7C52.85 34.0667 52.6333 34.45 52.4 34.85C52.1667 35.2167 51.9167 35.5833 51.65 35.95C51.2833 36.55 50.85 36.75 50.35 36.55C50.0833 36.3833 49.9167 36.15 49.85 35.85C49.7833 35.55 49.7667 35.25 49.8 34.95C49.9 34.15 50 33.3667 50.1 32.6C50.2 31.8333 50.3167 31.0333 50.45 30.2C50.95 27.1667 51.4333 24.1667 51.9 21.2C52.4 18.2 52.8833 15.2 53.35 12.2C53.3833 12.0333 53.4 11.8667 53.4 11.7C53.4 11.5333 53.4167 11.3 53.45 11C53.2167 11.2 53.0167 11.3833 52.85 11.55C52.6833 11.7167 52.5333 11.8833 52.4 12.05C51.4667 13.2167 50.5167 14.4 49.55 15.6C48.6167 16.8 47.6667 18 46.7 19.2C44.4 22.2 42.1 25.1833 39.8 28.15C37.5333 31.1167 35.1833 33.9833 32.75 36.75C31.6167 38.0833 30.45 39.3 29.25 40.4C29.0167 40.6333 28.7667 40.8167 28.5 40.95C28.2333 41.0833 27.95 41.2333 27.65 41.4C27.1833 41.5333 26.7833 41.4333 26.45 41.1C26.15 40.8 26.0333 40.35 26.1 39.75C26.1333 39.4167 26.1833 39.0833 26.25 38.75C26.35 38.4167 26.45 38.0833 26.55 37.75C27.0833 36.55 27.6 35.3333 28.1 34.1C28.6 32.8333 29.1333 31.5833 29.7 30.35C31.3 26.9167 32.95 23.55 34.65 20.25C36.35 16.9167 38.0833 13.5833 39.85 10.25C40.0167 10.05 40.15 9.83333 40.25 9.6C40.35 9.36667 40.4667 9.11667 40.6 8.85C40.5333 8.78333 40.4833 8.71667 40.45 8.65ZM74.45 21.65C74.6167 21.5833 74.7667 21.5333 74.9 21.5C75.0333 21.4333 75.1833 21.3667 75.35 21.3C75.75 21.2333 76.0333 21.35 76.2 21.65C76.3667 22.05 76.2667 22.3333 75.9 22.5C74.6667 23.1333 73.3833 23.6167 72.05 23.95C70.7167 24.2833 69.3833 24.4833 68.05 24.55C67.5833 24.5833 67.0833 24.5833 66.55 24.55C66.05 24.5167 65.5833 24.4 65.15 24.2C64.75 24 64.45 23.7167 64.25 23.35C64.05 22.95 64.0333 22.4167 64.2 21.75C64.4333 21.0833 64.65 20.6167 64.85 20.35C65.05 20.0833 65.4333 19.8 66 19.5C66.6 19.2333 67.2167 19.05 67.85 18.95C68.5167 18.8167 69.15 18.75 69.75 18.75C70.3167 18.8167 70.65 19.1 70.75 19.6C70.85 20.1333 70.6667 20.5333 70.2 20.8C69.8667 21 69.5167 21.1833 69.15 21.35C68.7833 21.4833 68.4 21.6167 68 21.75C67.7 21.8167 67.3833 21.8667 67.05 21.9C66.7167 21.9333 66.3833 21.95 66.05 21.95C65.55 21.95 65.2667 22.0667 65.2 22.3C65.1667 22.5 65.2667 22.7167 65.5 22.95C65.8333 23.2833 66.4167 23.4667 67.25 23.5C68.0833 23.5 68.9667 23.4333 69.9 23.3C70.8667 23.1333 71.7667 22.9 72.6 22.6C73.4667 22.3 74.0833 21.9833 74.45 21.65ZM69.4 20.2C69.6333 19.9 69.6333 19.75 69.4 19.75C69.2 19.7167 68.8833 19.7667 68.45 19.9C68.05 20.0333 67.5833 20.2333 67.05 20.5C66.5167 20.7667 66.05 21.0333 65.65 21.3C66.15 21.3667 66.8 21.3 67.6 21.1C68.4 20.8667 69 20.5667 69.4 20.2ZM75.2934 24.2C75.66 23.8333 76.0267 23.4833 76.3934 23.15C76.76 22.8167 77.1434 22.4667 77.5434 22.1C78.2434 21.4 78.9767 20.7667 79.7434 20.2C80.51 19.6 81.3267 19.0167 82.1934 18.45C82.56 18.25 82.91 18.0833 83.2434 17.95C83.5434 17.85 83.8267 17.8 84.0934 17.8C84.36 17.8 84.6267 17.9167 84.8934 18.15C85.16 18.3833 85.2934 18.6333 85.2934 18.9C85.3267 19.1667 85.31 19.45 85.2434 19.75C85.1767 19.9833 85.0934 20.2 84.9934 20.4C84.9267 20.6 84.86 20.8333 84.7934 21.1C85.1267 21.1667 85.3767 21.2333 85.5434 21.3H87.2934C87.46 21.3 87.5934 21.3 87.6934 21.3C87.7934 21.3 87.9267 21.3167 88.0934 21.35C88.56 21.45 88.76 21.7333 88.6934 22.2C88.5934 22.5333 88.3267 22.7 87.8934 22.7C87.4267 22.6667 86.9434 22.65 86.4434 22.65C85.9434 22.65 85.46 22.6167 84.9934 22.55C84.56 22.5167 84.1767 22.5667 83.8434 22.7C83.51 22.8 83.1767 23.0333 82.8434 23.4C82.4767 23.9 82.0267 24.35 81.4934 24.75C80.96 25.15 80.3767 25.45 79.7434 25.65C78.4767 26.05 77.71 25.6 77.4434 24.3C77.4434 24.2333 77.4267 24.1667 77.3934 24.1C77.36 24.0333 77.3267 23.9167 77.2934 23.75C76.9267 24.0833 76.5767 24.4167 76.2434 24.75C75.9434 25.05 75.6434 25.35 75.3434 25.65C74.9767 26.0167 74.61 26.3833 74.2434 26.75C73.8767 27.1167 73.51 27.4833 73.1434 27.85C73.01 27.95 72.8767 28.0333 72.7434 28.1C72.5767 28.1333 72.3934 28.1 72.1934 28C72.0267 27.9 71.9267 27.7667 71.8934 27.6C71.86 27.4333 71.8934 27.2667 71.9934 27.1C72.16 26.6667 72.3267 26.2667 72.4934 25.9C72.66 25.5333 72.86 25.15 73.0934 24.75C73.5267 23.9833 73.96 23.2333 74.3934 22.5C74.8267 21.7333 75.2434 20.9667 75.6434 20.2C75.7434 20 75.8434 19.8333 75.9434 19.7C76.0767 19.5333 76.0767 19.3167 75.9434 19.05C75.9434 18.8167 76.01 18.6667 76.1434 18.6C76.81 18.1333 77.3267 17.6 77.6934 17C78.0934 16.3667 78.51 15.7333 78.9434 15.1C79.91 13.6667 80.8934 12.2667 81.8934 10.9C82.8934 9.53333 83.9767 8.2 85.1434 6.9C85.4767 6.53333 85.81 6.18333 86.1434 5.85C86.51 5.51667 86.8934 5.16667 87.2934 4.8C87.46 4.66667 87.61 4.55 87.7434 4.45C87.8767 4.35 88.0434 4.26666 88.2434 4.2C88.41 4.16667 88.5767 4.16667 88.7434 4.2C88.91 4.23333 89.06 4.3 89.1934 4.4C89.3934 4.46667 89.51 4.6 89.5434 4.8C89.5767 5 89.56 5.18333 89.4934 5.35C89.2934 5.78333 89.0934 6.2 88.8934 6.6C88.7267 7 88.51 7.38333 88.2434 7.75C87.5767 8.58333 86.91 9.4 86.2434 10.2C85.5767 10.9667 84.8934 11.7333 84.1934 12.5C83.46 13.3333 82.6934 14.1333 81.8934 14.9C81.1267 15.6667 80.3434 16.45 79.5434 17.25C78.9434 17.9167 78.3934 18.6167 77.8934 19.35C77.46 20.0167 77.0434 20.7 76.6434 21.4C76.2434 22.1 75.8267 22.8 75.3934 23.5C75.3267 23.6 75.2934 23.7 75.2934 23.8C75.2934 23.9 75.26 24 75.1934 24.1C75.1934 24.1333 75.21 24.15 75.2434 24.15L75.2934 24.2ZM80.2934 21.4C80.5934 21.3667 80.8934 21.35 81.1934 21.35C81.5267 21.3167 81.86 21.3 82.1934 21.3C82.7267 21.2333 83.1434 21 83.4434 20.6C83.7767 20.1667 83.91 19.6667 83.8434 19.1C83.11 19.3 82.46 19.6167 81.8934 20.05C81.3267 20.45 80.7934 20.9 80.2934 21.4ZM81.3934 22.8C80.66 22.7667 80.0767 22.8833 79.6434 23.15C79.21 23.4167 78.9934 23.8 78.9934 24.3C79.46 24.2667 79.91 24.1167 80.3434 23.85C80.7767 23.5833 81.1267 23.2333 81.3934 22.8ZM85.3434 8.9C85.31 8.93333 85.16 9.1 84.8934 9.4C84.6267 9.7 84.31 10.0667 83.9434 10.5C83.61 10.9 83.2434 11.3333 82.8434 11.8C82.4434 12.2667 82.0767 12.7167 81.7434 13.15C81.4434 13.55 81.21 13.8833 81.0434 14.15C80.8767 14.4167 80.8267 14.5667 80.8934 14.6C81.3267 14.1333 81.9267 13.4833 82.6934 12.65C83.46 11.7833 84.2434 10.9 85.0434 10C85.8434 9.1 86.56 8.28333 87.1934 7.55C87.86 6.81667 88.2767 6.31667 88.4434 6.05C88.6434 5.78333 88.5267 5.85 88.0934 6.25C87.66 6.61667 86.7434 7.5 85.3434 8.9ZM101.647 23.7C100.547 24.7333 99.5635 25.7667 98.6969 26.8C97.8302 27.8 97.0302 28.8333 96.2969 29.9C95.5302 30.9333 94.8135 32.0167 94.1469 33.15C93.4469 34.25 92.7469 35.4 92.0469 36.6C91.9135 36.7333 91.8135 36.8667 91.7469 37C91.6469 37.1333 91.5135 37.2833 91.3469 37.45C91.2135 37.5833 91.0635 37.6667 90.8969 37.7C90.6969 37.7333 90.5135 37.6833 90.3469 37.55C90.1802 37.4167 90.0802 37.2667 90.0469 37.1C90.0135 36.9333 90.0302 36.7667 90.0969 36.6C90.2302 36.3 90.3802 36.0333 90.5469 35.8C92.3802 33.3 94.0969 30.75 95.6969 28.15C97.2969 25.55 98.9135 22.95 100.547 20.35C100.914 19.7833 101.247 19.2333 101.547 18.7C101.88 18.1667 102.23 17.6167 102.597 17.05C102.697 16.8833 102.814 16.7333 102.947 16.6C103.114 16.4667 103.347 16.4 103.647 16.4C103.88 16.6 103.947 16.8 103.847 17C103.78 17.2 103.714 17.4167 103.647 17.65C103.414 18.05 103.18 18.45 102.947 18.85C102.747 19.25 102.53 19.6667 102.297 20.1C102.064 20.4 101.897 20.7167 101.797 21.05C101.797 21.05 101.83 21.0833 101.897 21.15C102.064 20.9833 102.197 20.85 102.297 20.75C102.43 20.65 102.58 20.5167 102.747 20.35C103.414 19.7833 104.047 19.2333 104.647 18.7C105.247 18.1333 105.88 17.5833 106.547 17.05C106.914 16.7833 107.297 16.5667 107.697 16.4C108.13 16.2333 108.564 16.0667 108.997 15.9C109.164 15.8 109.347 15.75 109.547 15.75C109.78 15.7167 109.997 15.7167 110.197 15.75C110.764 15.8167 111.197 16.0333 111.497 16.4C111.83 16.7333 111.997 17.15 111.997 17.65C111.997 18.15 111.897 18.6167 111.697 19.05C111.53 19.45 111.314 19.8333 111.047 20.2C110.847 20.4 110.63 20.6667 110.397 21C110.564 21.0333 110.697 21.05 110.797 21.05C110.93 21.05 111.03 21.05 111.097 21.05C111.53 21.0833 111.947 21.1 112.347 21.1C112.78 21.1 113.214 21.1167 113.647 21.15C113.88 21.1833 114.097 21.2167 114.297 21.25C114.53 21.2833 114.747 21.35 114.947 21.45C115.414 21.6167 115.58 21.9333 115.447 22.4C115.314 22.7667 115.03 22.9 114.597 22.8C113.63 22.6 112.68 22.5167 111.747 22.55C110.847 22.55 109.93 22.6333 108.997 22.8C108.664 22.8333 108.347 22.9 108.047 23C107.747 23.0667 107.464 23.1667 107.197 23.3C106.564 23.5333 105.947 23.7667 105.347 24C104.747 24.2333 104.164 24.4667 103.597 24.7C103.197 24.8333 102.83 24.85 102.497 24.75C102.164 24.6167 101.88 24.2667 101.647 23.7ZM102.697 22.55C103.464 22.35 104.18 22.1833 104.847 22.05C105.514 21.8833 106.164 21.7 106.797 21.5C107.564 21.2667 108.214 20.9 108.747 20.4C109.28 19.9 109.764 19.3333 110.197 18.7C110.264 18.6 110.314 18.5 110.347 18.4C110.414 18.3 110.464 18.1833 110.497 18.05C110.597 17.3833 110.33 17.0833 109.697 17.15C109.43 17.1833 109.164 17.25 108.897 17.35C108.664 17.45 108.43 17.55 108.197 17.65C107.33 18.1167 106.547 18.6667 105.847 19.3C105.147 19.9333 104.464 20.5833 103.797 21.25C103.63 21.45 103.464 21.65 103.297 21.85C103.13 22.05 102.93 22.2833 102.697 22.55ZM126.088 22.25C125.588 22.6833 124.972 23.0333 124.238 23.3C123.538 23.5667 122.855 23.7167 122.188 23.75C121.555 23.7833 121.022 23.65 120.588 23.35C120.155 23.05 119.955 22.5333 119.988 21.8C119.988 21.7333 119.972 21.6833 119.938 21.65C119.938 21.5833 119.922 21.4833 119.888 21.35C119.622 21.5167 119.388 21.6833 119.188 21.85C118.988 22.0167 118.755 22.1833 118.488 22.35C118.122 22.5833 117.772 22.8333 117.438 23.1C117.105 23.3333 116.738 23.5333 116.338 23.7C116.005 23.8667 115.672 23.95 115.338 23.95C114.672 23.95 114.338 23.6167 114.338 22.95C114.338 22.65 114.388 22.3667 114.488 22.1C114.722 21.5333 115.022 21.0167 115.388 20.55C115.755 20.0833 116.122 19.6167 116.488 19.15C116.855 18.85 117.172 18.7833 117.438 18.95C117.705 19.2167 117.705 19.55 117.438 19.95C117.272 20.2167 117.088 20.4667 116.888 20.7C116.722 20.9333 116.538 21.1833 116.338 21.45C116.238 21.6167 116.072 21.9 115.838 22.3C116.038 22.2 116.188 22.15 116.288 22.15C116.422 22.1167 116.538 22.0667 116.638 22C117.205 21.5333 117.772 21.0833 118.338 20.65C118.938 20.1833 119.522 19.7167 120.088 19.25C120.222 19.1833 120.338 19.0833 120.438 18.95C120.572 18.8167 120.722 18.7167 120.888 18.65C120.988 18.5833 121.122 18.55 121.288 18.55C121.488 18.55 121.655 18.5833 121.788 18.65C122.188 18.8167 122.272 19.1333 122.038 19.6C121.972 19.8333 121.888 20.0667 121.788 20.3C121.722 20.5 121.655 20.7 121.588 20.9C121.422 21.5333 121.405 21.9667 121.538 22.2C121.705 22.4333 121.955 22.55 122.288 22.55C122.622 22.55 122.988 22.4833 123.388 22.35C123.788 22.2167 124.172 22.1 124.538 22C124.705 21.9667 124.922 21.9 125.188 21.8C125.488 21.6667 125.738 21.5833 125.938 21.55C126.172 21.5167 126.322 21.55 126.388 21.65C126.455 21.7167 126.355 21.9167 126.088 22.25ZM126.075 24.2C126.441 23.8333 126.808 23.4833 127.175 23.15C127.541 22.8167 127.925 22.4667 128.325 22.1C129.025 21.4 129.758 20.7667 130.525 20.2C131.291 19.6 132.108 19.0167 132.975 18.45C133.341 18.25 133.691 18.0833 134.025 17.95C134.325 17.85 134.608 17.8 134.875 17.8C135.141 17.8 135.408 17.9167 135.675 18.15C135.941 18.3833 136.075 18.6333 136.075 18.9C136.108 19.1667 136.091 19.45 136.025 19.75C135.958 19.9833 135.875 20.2 135.775 20.4C135.708 20.6 135.641 20.8333 135.575 21.1C135.908 21.1667 136.158 21.2333 136.325 21.3H138.075C138.241 21.3 138.375 21.3 138.475 21.3C138.575 21.3 138.708 21.3167 138.875 21.35C139.341 21.45 139.541 21.7333 139.475 22.2C139.375 22.5333 139.108 22.7 138.675 22.7C138.208 22.6667 137.725 22.65 137.225 22.65C136.725 22.65 136.241 22.6167 135.775 22.55C135.341 22.5167 134.958 22.5667 134.625 22.7C134.291 22.8 133.958 23.0333 133.625 23.4C133.258 23.9 132.808 24.35 132.275 24.75C131.741 25.15 131.158 25.45 130.525 25.65C129.258 26.05 128.491 25.6 128.225 24.3C128.225 24.2333 128.208 24.1667 128.175 24.1C128.141 24.0333 128.108 23.9167 128.075 23.75C127.708 24.0833 127.358 24.4167 127.025 24.75C126.725 25.05 126.425 25.35 126.125 25.65C125.758 26.0167 125.391 26.3833 125.025 26.75C124.658 27.1167 124.291 27.4833 123.925 27.85C123.791 27.95 123.658 28.0333 123.525 28.1C123.358 28.1333 123.175 28.1 122.975 28C122.808 27.9 122.708 27.7667 122.675 27.6C122.641 27.4333 122.675 27.2667 122.775 27.1C122.941 26.6667 123.108 26.2667 123.275 25.9C123.441 25.5333 123.641 25.15 123.875 24.75C124.308 23.9833 124.741 23.2333 125.175 22.5C125.608 21.7333 126.025 20.9667 126.425 20.2C126.525 20 126.625 19.8333 126.725 19.7C126.858 19.5333 126.858 19.3167 126.725 19.05C126.725 18.8167 126.791 18.6667 126.925 18.6C127.591 18.1333 128.108 17.6 128.475 17C128.875 16.3667 129.291 15.7333 129.725 15.1C130.691 13.6667 131.675 12.2667 132.675 10.9C133.675 9.53333 134.758 8.2 135.925 6.9C136.258 6.53333 136.591 6.18333 136.925 5.85C137.291 5.51667 137.675 5.16667 138.075 4.8C138.241 4.66667 138.391 4.55 138.525 4.45C138.658 4.35 138.825 4.26666 139.025 4.2C139.191 4.16667 139.358 4.16667 139.525 4.2C139.691 4.23333 139.841 4.3 139.975 4.4C140.175 4.46667 140.291 4.6 140.325 4.8C140.358 5 140.341 5.18333 140.275 5.35C140.075 5.78333 139.875 6.2 139.675 6.6C139.508 7 139.291 7.38333 139.025 7.75C138.358 8.58333 137.691 9.4 137.025 10.2C136.358 10.9667 135.675 11.7333 134.975 12.5C134.241 13.3333 133.475 14.1333 132.675 14.9C131.908 15.6667 131.125 16.45 130.325 17.25C129.725 17.9167 129.175 18.6167 128.675 19.35C128.241 20.0167 127.825 20.7 127.425 21.4C127.025 22.1 126.608 22.8 126.175 23.5C126.108 23.6 126.075 23.7 126.075 23.8C126.075 23.9 126.041 24 125.975 24.1C125.975 24.1333 125.991 24.15 126.025 24.15L126.075 24.2ZM131.075 21.4C131.375 21.3667 131.675 21.35 131.975 21.35C132.308 21.3167 132.641 21.3 132.975 21.3C133.508 21.2333 133.925 21 134.225 20.6C134.558 20.1667 134.691 19.6667 134.625 19.1C133.891 19.3 133.241 19.6167 132.675 20.05C132.108 20.45 131.575 20.9 131.075 21.4ZM132.175 22.8C131.441 22.7667 130.858 22.8833 130.425 23.15C129.991 23.4167 129.775 23.8 129.775 24.3C130.241 24.2667 130.691 24.1167 131.125 23.85C131.558 23.5833 131.908 23.2333 132.175 22.8ZM136.125 8.9C136.091 8.93333 135.941 9.1 135.675 9.4C135.408 9.7 135.091 10.0667 134.725 10.5C134.391 10.9 134.025 11.3333 133.625 11.8C133.225 12.2667 132.858 12.7167 132.525 13.15C132.225 13.55 131.991 13.8833 131.825 14.15C131.658 14.4167 131.608 14.5667 131.675 14.6C132.108 14.1333 132.708 13.4833 133.475 12.65C134.241 11.7833 135.025 10.9 135.825 10C136.625 9.1 137.341 8.28333 137.975 7.55C138.641 6.81667 139.058 6.31667 139.225 6.05C139.425 5.78333 139.308 5.85 138.875 6.25C138.441 6.61667 137.525 7.5 136.125 8.9ZM139.616 29.05C140.683 27.95 141.75 26.7833 142.816 25.55C143.916 24.3167 144.9 23.2667 145.766 22.4C146.633 21.5 147.2 21.15 147.466 21.35C147.733 21.55 147.433 22.2167 146.566 23.35C145.733 24.45 144.816 25.4667 143.816 26.4C142.85 27.3 141.883 28.2167 140.916 29.15C140.65 29.4167 140.366 29.65 140.066 29.85C139.766 30.05 139.483 30.25 139.216 30.45C139.083 30.5167 138.933 30.6 138.766 30.7C138.6 30.7667 138.433 30.8333 138.266 30.9C137.633 31.0667 137.133 31 136.766 30.7C136.4 30.4 136.183 29.9333 136.116 29.3C136.05 28.7667 136.1 28.25 136.266 27.75C136.533 26.45 136.933 25.2167 137.466 24.05C137.966 22.8833 138.516 21.7167 139.116 20.55C139.316 20.0833 139.55 19.6667 139.816 19.3C139.983 19 140.116 18.7167 140.216 18.45C140.316 18.15 140.233 17.8667 139.966 17.6C140.066 17.4 140.15 17.2667 140.216 17.2C140.85 16.9333 141.333 16.5333 141.666 16C142.033 15.4667 142.4 14.95 142.766 14.45C143.733 13.0833 144.7 11.7333 145.666 10.4C146.633 9.03333 147.7 7.76667 148.866 6.6C149.266 6.2 149.7 5.81667 150.166 5.45C150.333 5.21667 150.633 5.01667 151.066 4.85C151.3 4.75 151.533 4.68333 151.766 4.65C152 4.61667 152.233 4.68333 152.466 4.85C152.7 5.05 152.816 5.28333 152.816 5.55C152.85 5.78333 152.8 6.01667 152.666 6.25C152.5 6.61667 152.316 6.98333 152.116 7.35C151.95 7.68333 151.75 8.01667 151.516 8.35C150.45 9.75 149.3 11.0667 148.066 12.3C146.833 13.5 145.55 14.6833 144.216 15.85C143.816 16.2167 143.433 16.6 143.066 17C142.7 17.4 142.35 17.8333 142.016 18.3C141.35 19.5 140.7 20.7 140.066 21.9C139.433 23.0667 138.866 24.2833 138.366 25.55C138.233 25.9833 138.116 26.4167 138.016 26.85C137.883 27.2833 137.766 27.7167 137.666 28.15C137.5 28.7167 137.483 29.1167 137.616 29.35C137.716 29.5833 137.883 29.7 138.116 29.7C138.35 29.7 138.6 29.6333 138.866 29.5C139.166 29.3667 139.416 29.2167 139.616 29.05ZM150.216 7.4C149.916 7.7 149.433 8.2 148.766 8.9C148.133 9.56666 147.483 10.3 146.816 11.1C146.15 11.9 145.55 12.6667 145.016 13.4C144.483 14.1333 144.183 14.6833 144.116 15.05C144.383 14.7833 144.8 14.35 145.366 13.75C145.966 13.15 146.583 12.5 147.216 11.8C147.883 11.1 148.516 10.4 149.116 9.7C149.75 9 150.25 8.41666 150.616 7.95C150.983 7.45 151.15 7.13333 151.116 7C151.116 6.83333 150.816 6.96667 150.216 7.4ZM153.823 22.85C153.09 23.25 152.34 23.6333 151.573 24C150.84 24.3667 150.056 24.65 149.223 24.85C148.956 24.8833 148.69 24.9167 148.423 24.95C148.156 24.95 147.89 24.9167 147.623 24.85C147.156 24.7833 146.823 24.5667 146.623 24.2C146.39 23.8333 146.306 23.4333 146.373 23C146.373 22.7333 146.406 22.45 146.473 22.15C146.506 21.85 146.606 21.5833 146.773 21.35C147.14 20.75 147.473 20.0833 147.773 19.35C148.106 18.6167 148.49 17.9667 148.923 17.4C149.09 17.2 149.29 17.1 149.523 17.1C149.756 17.0667 149.956 17.1333 150.123 17.3C150.323 17.4333 150.44 17.65 150.473 17.95C150.506 18.2167 150.39 18.5167 150.123 18.85C149.79 19.3833 149.456 19.9 149.123 20.4C148.79 20.9 148.456 21.4333 148.123 22C147.79 22.7 147.64 23.2167 147.673 23.55C147.74 23.85 147.906 24.0333 148.173 24.1C148.473 24.1667 148.84 24.1333 149.273 24C149.706 23.8667 150.14 23.6833 150.573 23.45C151.04 23.2167 151.473 22.9833 151.873 22.75C152.273 22.4833 152.556 22.25 152.723 22.05C153.056 21.6833 153.356 21.5 153.623 21.5C153.89 21.4667 154.073 21.5333 154.173 21.7C154.306 21.8333 154.356 22.0333 154.323 22.3C154.29 22.5333 154.123 22.7167 153.823 22.85ZM152.623 13.4C152.89 13.4 153.09 13.4833 153.223 13.65C153.39 13.8167 153.44 14.0167 153.373 14.25C153.306 14.5167 153.123 14.8 152.823 15.1C152.523 15.4 152.206 15.65 151.873 15.85C151.406 16.1167 151.073 16.2167 150.873 16.15C150.706 16.0833 150.69 15.7333 150.823 15.1C150.89 14.7 151.056 14.3167 151.323 13.95C151.623 13.5833 152.056 13.4 152.623 13.4ZM157.763 21.45C158.063 21.15 158.279 20.8 158.413 20.4C158.579 19.9667 158.629 19.6 158.563 19.3C158.496 18.9667 158.313 18.75 158.013 18.65C157.713 18.5167 157.279 18.6167 156.713 18.95C156.446 19.1167 156.163 19.3333 155.863 19.6C155.563 19.8667 155.313 20.1667 155.113 20.5C154.913 20.8 154.796 21.1167 154.763 21.45C154.763 21.7833 154.913 22.0667 155.212 22.3C155.546 22.6333 155.896 22.9833 156.263 23.35C156.629 23.6833 156.996 24 157.363 24.3C158.329 23.8667 159.279 23.4833 160.213 23.15C161.146 22.8167 162.096 22.3667 163.063 21.8C163.463 21.5667 163.829 21.4333 164.163 21.4C164.329 21.4 164.496 21.4333 164.663 21.5C164.829 21.5333 164.946 21.6667 165.013 21.9C164.913 22.2 164.746 22.4167 164.513 22.55C164.279 22.65 164.046 22.7333 163.813 22.8C163.346 23 162.796 23.2167 162.163 23.45C161.529 23.65 160.896 23.8833 160.263 24.15C159.629 24.3833 159.046 24.65 158.513 24.95C157.979 25.25 157.596 25.5667 157.363 25.9C157.096 26.4333 156.646 26.9167 156.013 27.35C155.313 27.8167 154.579 28.2167 153.813 28.55C153.079 28.85 152.279 29.05 151.412 29.15C150.979 29.1833 150.512 29.15 150.012 29.05C149.879 29.0167 149.779 28.9333 149.712 28.8C149.612 28.6667 149.546 28.5167 149.512 28.35C149.446 28.1833 149.479 28.0667 149.612 28C149.746 27.9333 149.879 27.85 150.012 27.75C150.812 27.0833 151.679 26.5 152.612 26C153.512 25.4667 154.546 25.0167 155.713 24.65C155.613 24.55 155.496 24.4667 155.363 24.4C155.263 24.3 155.163 24.1833 155.063 24.05C154.829 23.85 154.596 23.65 154.363 23.45C154.163 23.25 153.979 23.0333 153.813 22.8C153.446 22.3333 153.262 21.85 153.262 21.35C153.262 20.8167 153.462 20.3167 153.863 19.85C154.429 19.25 155.046 18.75 155.713 18.35C156.413 17.95 157.179 17.7 158.013 17.6C159.046 17.4333 159.713 17.7167 160.013 18.45C160.213 18.8167 160.263 19.1833 160.162 19.55C160.063 19.9167 159.879 20.25 159.613 20.55C159.346 20.8833 159.096 21.1333 158.863 21.3C158.629 21.4333 158.329 21.5833 157.963 21.75C157.929 21.6833 157.896 21.6333 157.863 21.6C157.829 21.5667 157.796 21.5167 157.763 21.45ZM151.812 27.6C151.579 28 151.579 28.2167 151.812 28.25C152.046 28.2833 152.396 28.2 152.862 28C153.296 27.8 153.796 27.5167 154.363 27.15C154.929 26.75 155.446 26.3333 155.913 25.9C155.279 25.9 154.546 26.05 153.713 26.35C152.879 26.6167 152.246 27.0333 151.812 27.6ZM172.25 19.65C171.983 19.7833 171.767 19.8833 171.6 19.95C171.467 20.0167 171.317 20.1 171.15 20.2C170.417 20.6333 169.733 21.15 169.1 21.75C168.467 22.35 167.833 22.95 167.2 23.55C166.533 24.1833 165.883 24.8 165.25 25.4C164.617 26 163.983 26.6167 163.35 27.25C163.217 27.35 163.1 27.4667 163 27.6C162.867 27.7 162.717 27.7667 162.55 27.8C162.383 27.8667 162.217 27.9 162.05 27.9C161.85 27.8667 161.717 27.8 161.65 27.7C161.55 27.6333 161.483 27.5167 161.45 27.35C161.383 27.15 161.383 26.9833 161.45 26.85C161.483 26.5833 161.55 26.35 161.65 26.15C161.717 25.95 161.817 25.7333 161.95 25.5C163.183 23.2 164.45 20.9333 165.75 18.7C167.083 16.4667 168.5 14.2667 170 12.1C170.5 11.3667 171.083 10.5 171.75 9.5C172.417 8.46667 173.1 7.43333 173.8 6.4C174.533 5.36667 175.25 4.38333 175.95 3.45C176.65 2.48333 177.3 1.68333 177.9 1.05C178.1 0.816665 178.3 0.716666 178.5 0.749999C178.733 0.749999 178.917 0.816665 179.05 0.949999C179.183 1.08333 179.267 1.26667 179.3 1.5C179.333 1.7 179.25 1.86666 179.05 2C178.05 3.23333 177 4.61666 175.9 6.15C174.8 7.65 173.7 9.2 172.6 10.8C171.533 12.3667 170.5 13.9333 169.5 15.5C168.5 17.0667 167.583 18.5167 166.75 19.85C166.317 20.55 165.883 21.25 165.45 21.95C165.05 22.65 164.65 23.3833 164.25 24.15C164.483 24.15 164.65 24.1 164.75 24C164.85 23.9 164.95 23.7833 165.05 23.65C165.55 23.1833 166.033 22.7333 166.5 22.3C167 21.8333 167.483 21.3833 167.95 20.95C168.783 20.2167 169.683 19.5167 170.65 18.85C170.75 18.75 170.883 18.6833 171.05 18.65C171.217 18.5833 171.383 18.5167 171.55 18.45C172.317 18.1833 172.883 18.2167 173.25 18.55C173.617 18.85 173.767 19.4167 173.7 20.25C173.667 20.5167 173.617 20.7833 173.55 21.05C173.517 21.2833 173.467 21.5333 173.4 21.8C173.333 22.0667 173.283 22.3333 173.25 22.6C173.217 22.8667 173.167 23.1833 173.1 23.55C173.367 23.4167 173.617 23.3167 173.85 23.25C174.083 23.1833 174.3 23.1167 174.5 23.05C174.967 22.7833 175.433 22.5167 175.9 22.25C176.4 21.9833 176.883 21.7333 177.35 21.5C177.85 21.3 178.233 21.2167 178.5 21.25C178.767 21.2833 178.917 21.3833 178.95 21.55C179.017 21.7167 178.967 21.9167 178.8 22.15C178.633 22.3833 178.383 22.5833 178.05 22.75C177.383 23.1167 176.717 23.4667 176.05 23.8C175.383 24.1 174.717 24.4333 174.05 24.8C173.85 24.9 173.567 24.95 173.2 24.95C172.233 25.0167 171.75 24.5667 171.75 23.6C171.75 23.2333 171.783 22.8667 171.85 22.5C171.917 22.1 171.983 21.7 172.05 21.3C172.083 21.0667 172.1 20.8333 172.1 20.6C172.133 20.3333 172.183 20.0167 172.25 19.65ZM188.171 21.65C188.337 21.5833 188.487 21.5333 188.621 21.5C188.754 21.4333 188.904 21.3667 189.071 21.3C189.471 21.2333 189.754 21.35 189.921 21.65C190.087 22.05 189.987 22.3333 189.621 22.5C188.387 23.1333 187.104 23.6167 185.771 23.95C184.437 24.2833 183.104 24.4833 181.771 24.55C181.304 24.5833 180.804 24.5833 180.271 24.55C179.771 24.5167 179.304 24.4 178.871 24.2C178.471 24 178.171 23.7167 177.971 23.35C177.771 22.95 177.754 22.4167 177.921 21.75C178.154 21.0833 178.371 20.6167 178.571 20.35C178.771 20.0833 179.154 19.8 179.721 19.5C180.321 19.2333 180.937 19.05 181.571 18.95C182.237 18.8167 182.871 18.75 183.471 18.75C184.037 18.8167 184.371 19.1 184.471 19.6C184.571 20.1333 184.387 20.5333 183.921 20.8C183.587 21 183.237 21.1833 182.871 21.35C182.504 21.4833 182.121 21.6167 181.721 21.75C181.421 21.8167 181.104 21.8667 180.771 21.9C180.437 21.9333 180.104 21.95 179.771 21.95C179.271 21.95 178.987 22.0667 178.921 22.3C178.887 22.5 178.987 22.7167 179.221 22.95C179.554 23.2833 180.137 23.4667 180.971 23.5C181.804 23.5 182.687 23.4333 183.621 23.3C184.587 23.1333 185.487 22.9 186.321 22.6C187.187 22.3 187.804 21.9833 188.171 21.65ZM183.121 20.2C183.354 19.9 183.354 19.75 183.121 19.75C182.921 19.7167 182.604 19.7667 182.171 19.9C181.771 20.0333 181.304 20.2333 180.771 20.5C180.237 20.7667 179.771 21.0333 179.371 21.3C179.871 21.3667 180.521 21.3 181.321 21.1C182.121 20.8667 182.721 20.5667 183.121 20.2ZM197.414 23.25C197.014 23.2167 196.697 23.1167 196.464 22.95C196.231 22.7833 196.031 22.5667 195.864 22.3C195.731 22.0333 195.614 21.75 195.514 21.45C195.447 21.15 195.381 20.85 195.314 20.55C195.114 20.0833 194.831 19.85 194.464 19.85C194.097 19.85 193.714 19.9667 193.314 20.2C192.947 20.4 192.597 20.6667 192.264 21C191.931 21.3333 191.664 21.5833 191.464 21.75C190.297 22.7167 189.397 23.8 188.764 25C188.664 25.2667 188.514 25.4833 188.314 25.65C188.081 25.8167 187.864 25.9333 187.664 26C187.464 26.0333 187.297 26 187.164 25.9C186.997 25.8 186.914 25.6 186.914 25.3C186.914 25.1333 186.947 25 187.014 24.9C187.081 24.8 187.147 24.6833 187.214 24.55C187.847 23.4167 188.464 22.2833 189.064 21.15C189.664 20.0167 190.281 18.8833 190.914 17.75C191.081 17.4167 191.297 17.1167 191.564 16.85C191.631 16.7833 191.714 16.7333 191.814 16.7C191.947 16.6667 192.047 16.6833 192.114 16.75C192.347 16.8833 192.431 17.0667 192.364 17.3C192.364 17.5333 192.297 17.8167 192.164 18.15C191.931 18.5833 191.714 19.0167 191.514 19.45C191.314 19.8833 191.131 20.3333 190.964 20.8C191.231 20.6 191.397 20.4667 191.464 20.4C191.797 20.1333 192.097 19.8833 192.364 19.65C192.664 19.3833 192.964 19.15 193.264 18.95C193.664 18.6167 194.114 18.4167 194.614 18.35C195.614 18.1167 196.264 18.4833 196.564 19.45C196.631 19.7167 196.681 19.9667 196.714 20.2C196.747 20.4333 196.797 20.6667 196.864 20.9C196.931 21.2667 197.047 21.5167 197.214 21.65C197.381 21.75 197.664 21.7833 198.064 21.75C198.231 21.75 198.397 21.75 198.564 21.75C198.764 21.7167 198.947 21.7 199.114 21.7C199.581 21.6667 199.897 21.7333 200.064 21.9C200.231 22.0667 200.247 22.2667 200.114 22.5C199.981 22.7 199.681 22.8833 199.214 23.05C198.781 23.2167 198.181 23.2833 197.414 23.25Z" fill="#545353"/>
</svg>
