<svg width="26" height="19" viewBox="0 0 26 19" fill="none" xmlns="http://www.w3.org/2000/svg">
<path fill-rule="evenodd" clip-rule="evenodd" d="M11.6545 0.32478C12.1443 -0.10826 12.9383 -0.10826 13.4281 0.32478L18.4446 4.76025C18.9344 5.19329 18.9344 5.89539 18.4446 6.32843C17.9549 6.76147 17.1608 6.76147 16.671 6.32843L13.7954 3.78591V13.3064C13.7954 13.9188 13.2339 14.4153 12.5413 14.4153C11.8487 14.4153 11.2872 13.9188 11.2872 13.3064V3.78591L8.41159 6.32843C7.92182 6.76147 7.12775 6.76147 6.63798 6.32843C6.14821 5.89539 6.14821 5.19329 6.63798 4.76025L11.6545 0.32478ZM3.76239 3.32661C3.06975 3.32661 2.50826 3.82306 2.50826 4.43547V15.5242C2.50826 16.1366 3.06975 16.633 3.76239 16.633H21.3202C22.0128 16.633 22.5743 16.1366 22.5743 15.5242V4.43547C22.5743 3.82306 22.0128 3.32661 21.3202 3.32661C20.6276 3.32661 20.0661 2.83015 20.0661 2.21774C20.0661 1.60533 20.6276 1.10887 21.3202 1.10887C23.3981 1.10887 25.0826 2.59824 25.0826 4.43547V15.5242C25.0826 17.3614 23.3981 18.8508 21.3202 18.8508H3.76239C1.68448 18.8508 0 17.3614 0 15.5242V4.43547C0 2.59824 1.68448 1.10887 3.76239 1.10887C4.45503 1.10887 5.01652 1.60533 5.01652 2.21774C5.01652 2.83015 4.45503 3.32661 3.76239 3.32661Z" fill="black"/>
</svg>
