<svg width="54" height="54" viewBox="0 0 54 54" fill="none" xmlns="http://www.w3.org/2000/svg">
<circle cx="27" cy="27" r="27" fill="#4857EC" fill-opacity="0.1"/>
<path d="M31.0802 31.4233C29.8825 32.532 28.2582 33.1549 26.5646 33.1549C24.8709 33.1549 23.2467 32.532 22.0489 31.4233M21.7742 24.2851H21.7902M31.3549 24.2851H31.3709M40.9355 27.2421C40.9355 28.9895 40.5638 30.7199 39.8416 32.3343C39.1194 33.9487 38.0608 35.4156 36.7264 36.6513C35.3919 37.8869 33.8077 38.8671 32.0641 39.5358C30.3205 40.2045 28.4518 40.5487 26.5646 40.5487C24.6773 40.5487 22.8086 40.2045 21.065 39.5358C19.3215 38.8671 17.7372 37.8869 16.4028 36.6513C15.0683 35.4156 14.0097 33.9487 13.2875 32.3343C12.5653 30.7199 12.1936 28.9895 12.1936 27.2421C12.1936 23.713 13.7077 20.3284 16.4028 17.8329C19.0978 15.3374 22.7532 13.9355 26.5646 13.9355C30.376 13.9355 34.0313 15.3374 36.7264 17.8329C39.4215 20.3284 40.9355 23.713 40.9355 27.2421Z" stroke="#4857EC" stroke-width="3" stroke-linecap="round" stroke-linejoin="round"/>
</svg>
