<svg width="23" height="23" viewBox="0 0 23 23" fill="none" xmlns="http://www.w3.org/2000/svg">
<path fill-rule="evenodd" clip-rule="evenodd" d="M11.3593 0.539398C11.6345 0.945999 11.5872 1.46233 11.2414 1.82439C9.74747 3.38845 8.84813 5.40758 8.84813 7.61531C8.84813 12.5754 13.3958 16.5964 19.0057 16.5964C19.7347 16.5964 20.4445 16.5287 21.1278 16.4003C21.6521 16.3019 22.1892 16.5089 22.4645 16.9155C22.7397 17.3221 22.6924 17.8384 22.3466 18.2004C20.0251 20.6309 16.5491 22.1774 12.6659 22.1774C5.6707 22.1774 0 17.1636 0 10.9786C0 5.59424 4.29648 1.09967 10.0226 0.0242662C10.5469 -0.0741938 11.084 0.132797 11.3593 0.539398ZM7.28754 3.35807C4.41728 4.94528 2.50826 7.76555 2.50826 10.9786C2.50826 15.9387 7.05597 19.9597 12.6659 19.9597C14.5155 19.9597 16.2493 19.5231 17.7432 18.7592C11.3408 18.199 6.33987 13.4235 6.33987 7.61531C6.33987 6.1087 6.67684 4.67081 7.28754 3.35807Z" fill="black"/>
</svg>
