<svg width="400" height="450" viewBox="0 0 400 450" fill="none" xmlns="http://www.w3.org/2000/svg">
<path fill-rule="evenodd" clip-rule="evenodd" d="M369.611 350.525C369.635 352.254 368.973 352.206 369.989 354.006C370.232 355.211 371.005 355.806 371.028 357.534C371.117 357.972 370.853 359.896 371.008 360.663C370.723 362.478 370.37 362.344 370.099 363.692C371.447 367.135 371.625 369.63 375.742 368.486C377.8 367.914 377.954 367.062 378.909 365.871C379.797 364.352 379.841 364.571 381.495 363.07C383.662 361.427 383.066 360.089 382.951 354.684C383.037 351.884 383.545 352.784 382.33 349.998C381.623 348.113 382.461 347.417 382.732 346.069C382.024 344.184 381.208 343.37 380.831 341.508C380.653 339.012 381.359 339.279 381.586 337.712C383.647 331.24 382.34 333.917 382.515 331.555C382.316 330.569 382.779 331.25 382.425 329.497C379.859 329.169 379.152 327.284 375.344 328.342C372.668 329.085 372.956 330.509 371.759 332.114C369.989 334.11 369.68 334.196 369.549 336.777C369.155 339.663 368.352 338.382 367.759 341.901C367.337 347.34 367.293 347.121 369.464 350.335L369.611 350.525ZM374.317 154.421C374.317 154.421 370.224 157.294 369.467 157.851C367.188 158.947 337.702 163.092 335.864 163.14L324.313 162.995C325.088 166.828 328.828 163.823 331.754 173.999C334.341 181.955 336.046 181.25 337.845 187.46C339.99 194.845 342.98 202.111 347.029 208.158C349.111 210.934 349.574 209.996 352.493 210.457C355.728 209.79 365.51 195.273 368.009 193.653C369.294 192.486 368.935 193.396 370.132 191.79L376.879 178.927C378.648 175.312 379.711 171.43 376.658 168.693C375.725 169.993 375.931 169.936 375.704 171.503L372.408 178.318C370.264 181.69 369.067 183.295 365.305 186.191C364.019 187.358 362.447 188.721 361.014 189.697L345.389 198.434L342.315 197.207C342.645 195.611 342.535 196.683 343.976 196.282C347.166 195.396 345.835 194.725 350.95 192.609C353.582 191.647 355.691 190.251 358.278 189.069L357.948 190.665C358.992 189.912 360.425 188.935 361.115 188.05L358.595 189.56C359.703 187.517 359.836 188.174 361.453 187.03C361.761 186.945 362.805 186.192 363.047 185.778C364.708 184.853 364.179 185.463 364.532 185.596C365.06 183.367 368.426 181.738 369.313 178.6C369.643 177.004 369.114 177.614 370.047 176.314C370.935 174.794 370.884 175.618 371.398 173.856C372.125 172.613 372.331 172.556 372.44 171.484C373.078 169.803 373.415 167.165 373.06 165.413C371.708 166.251 368.498 170.266 367.463 171.595C365.185 174.31 364.362 174.539 361.107 176.716C358.116 178.588 343.044 188.444 340.1 184.635C340.783 183.173 341.65 183.163 344.796 182.058L355.108 177.689C360.202 175.464 362.744 174.063 367.351 169.428L372.816 162.589C371.484 161.918 369.92 163.856 367.722 164.814L366.508 163.647C360.731 165.715 362.392 164.791 357.452 166.164C352.718 167.479 353.997 167.355 353.181 166.541C354.731 165.069 358.12 165.168 360.179 164.597C363.942 163.319 374.651 159.302 375.515 154.435L374.074 154.836L374.317 154.421ZM342.408 350.912C343.828 352.021 342.607 351.898 344.556 352.397L343.143 350.245L342.305 350.941L342.408 350.912ZM350.823 355.977C352.795 358.205 356.044 357.071 358.971 358.109C364.508 359.693 363.928 361.127 365.437 362.674L368.867 358.135C367.186 351.43 363.289 352.05 361.78 348.884C363.309 348.922 363.729 349.383 365.096 349.697C364.807 346.654 364.763 337.297 365.586 335.449C366.114 334.839 366.159 335.059 366.518 334.149C366.783 333.844 367.047 333.539 367.245 332.906C368.663 330.777 370.72 328.586 370.857 324.962C371.384 322.733 371.059 320.047 369.748 317.867C368.335 315.714 366.521 317.491 364.726 316.139C363.35 315.249 362.135 312.463 361.185 310.992C359.861 309.278 358.75 308.083 359.041 305.226C360.571 305.263 359.615 304.835 360.814 306.468C360.989 304.106 360.855 301.83 360.882 299.277C361.284 295.349 364.288 282.252 364.354 280.962C364.195 275.338 364.884 272.833 363.975 266.723C363.399 262.256 360.719 258.143 359.283 254.262C357.382 249.7 356.342 244.553 354.633 240.401C353.617 238.601 352.55 237.625 351.137 235.473C349.164 231.625 347.309 228.902 344.189 225.836C340.628 222.198 338.12 221.623 335.692 219.29C334.478 218.123 333.565 216.295 332.043 215.214C330.78 218.11 332.615 223.962 333.463 227.081C334.922 231.071 335.035 234.857 336.427 238.519C337.422 241.828 341.207 258.938 340.459 261.69L330.604 218.853L329.476 224.025C328.875 226.968 328.883 236.683 328.746 240.307C328.104 247.888 328.389 255.212 328.638 262.893C328.658 270.522 329.901 270.755 329.04 280.479C329.064 282.208 329.24 281.465 329.374 283.741C329.573 284.727 329.397 285.47 329.552 286.237C329.621 289.803 330.595 294.622 331.017 298.322C331.151 300.599 331.174 302.327 331.617 304.518C331.64 306.246 332.503 308.899 331.614 310.418C330.399 307.632 330.218 301.899 330.149 298.332L328.002 287.708C327.67 286.066 327.913 287.27 328.176 285.346C328.488 279.36 325.983 262.127 326.275 259.27C326.56 257.455 326.848 258.879 326.92 256.546L327.271 235.164C326.852 214.806 331.3 215.305 331.431 212.724C330.964 208.805 332.803 208.757 332.315 206.347C330.213 206.7 331.139 206.443 330.192 208.21C328.556 212.482 328.841 210.667 328.535 213.991C328.47 215.282 324.663 227.097 324.134 227.707C324.11 225.979 324.617 225.259 324.579 223.997C324.865 222.183 323.807 223.402 324.908 220.783C325.752 219.045 326.809 216.206 326.925 214.092C325.572 214.93 324.627 218.316 323.165 220.226L318.338 225.385C318.624 223.57 320.174 222.098 321.107 220.798C322.039 219.498 322.942 217.512 323.522 216.078C324.719 214.473 328.458 209.848 328.589 207.267C327.236 208.106 326.201 209.435 324.297 210.773C319.851 213.512 312.762 220.919 309.023 225.544C307.826 227.149 306.635 227.711 305.813 229.559L300.791 238.589C299.44 241.047 298.201 245.671 297.005 248.895C296.162 252.253 295.032 255.805 294.55 259.872C293.491 268.611 294.286 270.935 294.946 278.501C295.194 284.564 293.221 291.474 295.343 297.131L300.101 308.301C301.875 311.163 301.757 311.658 301.429 314.873C301.254 317.235 301.807 318.354 302.911 320.592C303.971 322.61 310.197 330.828 312.743 332.666C313.868 333.394 315.861 334.113 316.619 335.175C318.9 337.317 319.807 340.188 323.213 343.059C327.244 346.335 327.089 345.568 332.575 346.357C337.09 347.185 338.15 349.204 341.099 350.351C340.06 346.822 338.529 345.165 337.181 341.723C336.54 340.166 336.583 338.765 335.854 336.77C331.781 327.376 334.591 328.908 332.447 323.142C331.74 321.256 330.323 314.247 330.653 312.652C332.248 313.018 331.778 313.38 331.801 315.109C332.378 319.575 333.13 321.68 334.522 325.342C335.672 329.418 336.117 334.846 338.083 338.117L343.37 348.679C344.43 350.697 345.408 351.235 346.402 352.926C347.977 354.802 348.374 355.154 350.367 355.872L350.823 355.977ZM243.42 99.4115C242.731 101.917 247.252 110.84 249.355 112.106C250.687 112.777 250.326 112.068 251.304 112.605C252.43 113.334 250.842 113.544 252.635 113.277C252.48 112.51 251.178 110.905 250.464 110.063C249.956 109.163 249.603 109.03 249.095 108.13C246.968 105.135 245.864 102.897 244.45 100.745C243.545 99.4925 243.634 99.9306 243.236 99.5783L243.42 99.4115ZM241.626 99.6786C240.855 100.703 239.901 103.513 239.792 104.584C239.308 107.032 240.787 107.893 240.392 110.779C239.902 114.27 238.221 118.323 237.003 121.438C236.476 123.666 236.16 124.795 235.257 126.781C234.039 129.896 232.4 130.93 230.719 133.363C228.126 137.207 225.453 141.189 224.037 144.937C222.4 149.209 221.047 168.324 224.922 169.214C225.937 169.394 226.452 169.251 227.842 169.675C231.673 170.345 236.387 172.159 237.934 176.587C236.405 176.549 237.714 177.111 236.294 176.002C235.124 175.054 234.631 173.688 232.932 173.35C234.877 178.131 233.975 181.736 237.074 186.311C238.134 188.33 239.31 188.235 241.612 188.868C242.627 189.048 246.171 189.914 247.039 189.905C252.222 189.737 253.567 188.322 259.677 189.516C261.582 189.796 268.023 191.014 269.701 192.861C265.805 193.481 262.134 190.915 258.127 190.988C262.796 201.72 263.88 196.329 269.595 198.79C270.676 199.299 272.405 200.323 273.692 200.775C279.229 202.359 283.122 196.882 287.948 200.862C295.694 206.922 294.411 202.189 301.89 203.697C306.096 204.61 308.352 203.405 312.315 203.114C315.388 202.723 330.578 203.129 332.571 203.847C331.819 201.743 327.788 198.467 326.309 197.606C322.727 195.478 314.752 187.746 312.876 186.532C310.022 184.78 309.006 182.98 306.681 180.619C304.753 178.61 301.943 177.077 299.795 175.592C298.626 174.644 299.089 175.325 298.067 174.568C297.294 173.973 297.25 173.754 296.603 173.24C294.102 171.622 291.138 170.941 288.682 169.542C280.826 164.553 281.357 167.181 279.055 166.549C278.702 166.415 277.415 165.963 277.062 165.83C276.225 166.525 276.644 166.987 275.357 166.535C273.1 166.121 271.415 165.317 269.378 164.379C266.26 162.932 263.732 165.485 260.812 163.405L265.634 162.528C263.354 160.385 262.87 162.833 259.637 155.981C258.025 152.843 256.162 149.544 255.476 146.149C256.763 146.601 256.358 145.672 257.051 148.024C258.995 152.805 261.939 156.614 265.86 159.342C266.632 159.937 266.632 159.937 267.324 160.67C267.986 160.718 268.449 161.399 268.744 161.779C269.825 162.289 271.663 162.241 272.641 162.779C274.546 163.059 279.458 164.239 280.788 163.291C280.345 161.101 278.976 159.167 277.754 157.425C276.893 156.392 276.224 155.768 275.716 154.868C274.141 152.992 274.811 153.616 274.567 152.411C274.103 151.73 271.184 151.269 269.366 148.188C273.108 148.421 272.888 148.945 275.28 151.635C278.068 154.677 276.165 156.016 279.084 156.477C279.726 159.653 280.124 160.005 281.61 161.443C283.449 163.014 282.715 163.681 285.061 164.533C288.223 166.199 294.666 169.036 297.013 171.507C298.588 173.382 298.786 172.749 300.845 173.796C303.611 175.11 306.289 177.605 308.701 178.785C308.303 176.814 304.563 170.681 304.893 169.086C305.555 169.133 305.775 168.609 306.313 170.195L306.756 172.385C307.507 174.49 310.894 180.489 312.005 181.684C314.396 184.374 316.522 185.75 318.914 188.44C320.952 190.997 324.224 191.591 326.461 193.515C329.734 195.728 337.329 205.879 339.984 206.646C339.696 205.222 338.68 203.422 338.084 202.084C336.293 196.451 333.37 191.132 331.065 185.642C329.209 181.3 328.367 177.138 326.306 172.852C325.245 170.833 323.87 169.943 322.236 168.315C322.192 168.096 321.375 167.282 321.022 167.148C315.313 162.026 308.12 158.704 305.996 149.808C302.922 148.581 301.059 145.281 298.624 142.372C296.232 139.682 293.598 137.406 290.171 136.045C288.178 135.326 287.626 134.207 285.831 132.855C284.102 131.832 282.603 132.48 281.381 130.737C279.651 128.095 277.107 127.876 275.268 126.305L268.075 122.983C264.243 120.693 264.333 122.75 259.396 118.223C250.898 110.058 248.504 124.026 241.045 99.4931L241.626 99.6786ZM188.729 279.445C187.288 279.845 187.597 279.76 187.134 280.698C188.016 280.221 188.016 280.221 188.729 279.445ZM109.975 352.804C111.769 352.537 111.769 352.537 112.674 353.789C113.182 354.689 113.69 355.589 114.198 356.489C115.148 357.96 117.008 358.022 118.428 359.131C122.142 361.916 121.128 361.735 127.636 363.281C134.188 365.046 144.502 363.915 152.118 361.799C156.851 360.484 162.015 363.445 173.279 354.647C179.231 350.216 179.057 352.579 185.341 349.791C189.06 348.295 192.778 345.18 195.408 342.598C209.397 328.994 207.205 338.048 213.78 330.784C215.066 329.617 217.364 325.393 217.943 323.959C219.515 320.978 217.902 317.84 222.214 312.824C222.985 311.8 224.293 310.743 225.27 309.662C228.018 306.585 227.812 306.642 228.478 302.408C229.232 298.613 228.525 296.727 229.184 293.536C229.579 290.65 232.35 289.302 233.348 286.711C235.029 282.658 234.323 282.392 233.393 277.792L230.761 267.997C228.747 268.788 229.21 269.469 228.991 271.612C228.546 275.321 227.66 270.941 224.916 278.875C224.587 280.47 223.874 281.247 223.192 282.709C220.732 287.209 217.501 292.734 214.335 296.968L206.387 306.58C201.098 312.677 202.449 310.219 196.917 315.111C195.631 316.278 191.384 320.003 189.635 320.489C190.368 318.203 203.022 309.829 205.637 306.095C211.66 297.712 211.699 300.593 218.542 288.743C219.269 287.5 220.268 286.529 220.995 285.285C223.029 281.366 224.651 277.561 225.934 273.155L228.987 265.135C228.369 265.307 227.855 265.45 227.326 266.059C226.599 267.303 226.973 265.926 227.107 268.202C222.925 270.637 221.818 274.299 218.651 276.914C219.159 277.814 219.115 277.595 219.159 277.814C219.468 277.728 219.379 277.29 219.512 277.947C217.917 279.2 216.256 280.124 214.904 280.963C210.099 284.612 208.198 289.189 202.09 291.233C202.779 288.728 205.101 287.851 208.24 286.169C208.973 283.883 210.832 282.326 212.294 280.416C216.121 276.229 223.894 268.979 225.621 266.765C226.392 265.741 227.126 265.074 227.898 264.05C225.486 264.488 204.283 274.66 202.798 274.842C201.158 274.256 201.628 273.894 199.408 274.742C198.482 275 197.747 275.667 196.307 276.067L200.996 274.533C200.975 276.042 202.077 275.042 199.799 276.138L192.339 279.02C190.369 280.03 185.055 282.779 183.615 283.18C180.63 284.009 182.665 281.708 176.264 284.991C174.294 286.001 170.796 288.592 168.98 288.75C169.199 286.607 180.643 281.923 182.855 280.499C183.782 280.241 184.516 279.575 185.442 279.317L187.765 278.44C189.426 277.516 188.427 278.488 189.823 277.869C190.441 277.697 191.175 277.03 192.344 276.358C194.358 275.567 195.843 275.386 197.548 274.681C204.252 272.355 203.126 271.627 211.095 269.644C214.947 268.805 232.013 261.287 234.401 259.119C238.339 255.48 240.133 255.213 243.477 253.474L262.268 242.122C273.533 234.943 275.899 232.666 285.378 224.711C286.26 224.235 286.73 223.873 286.839 222.801L275.815 227.947C272.36 229.138 273.095 228.471 269.86 229.139C253.416 232.205 245.597 228.478 230.569 227.795C227.738 227.772 223.399 226.202 221.163 224.278C218.882 222.136 216.448 222.465 213.46 218.437C211.93 216.78 208.146 210.429 208.129 207.657C210.431 208.29 212.887 218.828 218.888 221.093C221.587 222.078 223.118 223.735 225.883 225.049C229.002 226.496 231.06 225.924 234.538 226.461C237.104 226.789 241.353 226.302 243.611 226.716L247.861 227.849C255.391 228.533 266.169 228.082 274.048 225.661L277.966 223.532C268.91 226.048 258.821 223.994 249.631 224.234C245.932 224.22 232.653 223.052 230.108 221.214C228.335 219.972 226.592 219.415 224.973 217.32C226.503 217.358 229.687 219.133 231.063 220.024C235.513 222.142 247.756 224.639 252.379 222.776C250.077 222.143 250.012 223.434 249.614 221.462C250.834 221.586 252.533 221.923 253.401 221.914C256.79 222.013 256.1 222.899 257.034 223.218C258.827 222.951 258.43 222.598 259.709 222.474C265.201 222.221 269.672 222.829 275.317 221.723C278.037 221.198 280.456 221.336 283.132 220.593C284.573 220.192 286.476 218.854 288.072 219.22C287.301 220.244 288.425 219.353 287.234 219.915C284.713 221.426 281.588 221.021 279.509 223.103L282.274 222.798C284.067 222.53 283.155 222.321 284.552 221.702C285.684 221.387 285.567 221.883 286.919 221.044C287.962 220.291 287.69 220.02 289.395 219.315L290.565 220.262L308.649 207.024C310.508 205.467 308.12 207.634 309.222 206.634C309.751 206.024 309.487 206.329 309.685 205.695C306.965 206.22 306.494 206.582 303.928 206.254C295.782 205.741 294.916 208.989 292.216 206.385C290.892 204.671 292.436 205.861 290.796 205.276C289.156 204.691 284.728 201.063 283.757 201.101C282.787 201.14 281.589 202.745 276.053 202.779C272.708 202.899 269.765 200.709 266.185 200.2C264.898 199.748 264.038 200.334 262.751 199.882C261.736 199.701 257.793 196.864 257.043 196.379C255.979 189.502 255.231 192.255 246.665 191.281C241.908 190.868 238.143 190.526 235.42 186.193C233.807 183.055 231.992 174.074 229.329 172.732C227.645 171.927 225.498 172.061 223.865 170.433C222.606 169.047 220.873 161.548 220.989 159.433C221.72 153.909 221.054 147.385 224.086 142.494C225.966 139.427 223.4 139.099 222.758 135.922L221.431 130.97C221.143 129.546 221.54 129.899 221.297 128.694C220.233 121.818 221.383 125.894 221.012 121.37C221.122 120.298 221.077 120.079 221.187 119.008C221.032 118.241 221.516 117.413 221.67 116.56C221.691 115.05 220.94 112.946 220.96 111.436C220.802 105.812 220.078 101.155 217.09 97.1271C215.677 94.9749 216.006 93.3796 215.497 90.8605C213.792 82.4273 203.189 80.5154 206.312 68.5428C207.749 63.2851 206.888 62.252 210.583 57.4081C214.681 51.8736 215.962 53.3686 220.856 50.1578C223.376 48.6477 225.706 46.728 228.381 45.9845C230.748 45.3268 231.527 44.879 232.827 43.2453L234.797 42.2353C237.826 41.625 235.967 43.1826 234.269 44.464C232.102 46.1074 228.562 51.718 226.055 51.1424C226.164 50.0709 225.393 51.0949 226.943 49.6231C227.207 49.3182 228.295 48.7846 228.538 48.3703C226.082 48.5899 222.606 51.2908 219.814 52.5296C215.852 54.4401 214.918 54.1212 212.178 57.7744C209.013 62.0086 206.666 70.2952 208.663 75.8711C209.904 74.485 210.878 68.5465 211.942 66.2843C212.742 64.3269 215.194 59.2499 217.208 58.459C217.496 59.8828 217.605 58.8113 216.614 60.3592C215.776 61.0546 215.681 61.6594 215.461 62.1833C212.119 67.1604 210.368 75.1659 210.104 75.4707C212.251 86.0944 213.445 79.632 217.429 88.5886C218.489 90.6075 218.867 94.0885 219.971 96.3264C221.674 101.521 224.931 102.583 223.999 114.64C223.578 121.698 223.026 120.579 224.089 125.836C225.172 129.584 223.733 131.603 225.929 138.165C227.016 137.631 229.623 133.321 230.556 132.02C232.216 129.477 234.03 127.7 235.028 125.11C235.402 123.733 235.717 122.605 236.136 121.447C241.119 109.536 237.706 107.708 238.549 104.351L241.249 96.1976C241.534 94.3832 241.268 93.069 242.268 92.0973C242.665 92.4496 242.532 91.7924 243.04 92.6923C243.437 93.0446 243.195 93.459 243.637 94.0303L244.168 96.6589C244.5 98.3017 245.898 99.3014 246.803 100.554C247.311 101.454 247.355 101.673 247.907 102.792L250.587 106.905C251.603 108.705 253.663 111.372 255.414 112.505C256.79 113.395 259.973 113.551 262.806 116.812C265.595 119.855 267.609 119.064 270.772 120.73C272.456 121.534 272.964 122.434 274.868 122.715C277.17 123.347 277.17 123.347 278.965 124.7C281.466 126.318 284.231 127.632 286.424 129.336C289.322 131.307 289.721 133.278 293.882 133.973C297.36 134.51 299.193 137.124 301.694 138.742C302.82 139.471 302.981 139.194 303.731 139.68C304.813 140.189 304.548 140.494 305.306 141.556C306.123 142.37 306.012 141.822 306.77 142.884C307.587 143.698 307.94 143.832 308.345 144.76C309.559 145.927 309.737 148.422 310.871 149.726C311.334 150.407 311.687 150.541 312.335 151.055C312.887 152.174 312.225 152.126 312.822 153.464C313.33 154.364 315.058 155.388 316.272 156.554L319.414 159.73C321.298 161.52 320.783 161.663 323.202 161.8C326.636 162.118 330.393 161.884 333.716 161.655C337.723 161.583 340.663 160.534 344.912 160.047L361.247 158.053C362.423 157.958 362.776 158.091 364.078 158.076C369.106 157.142 374.39 153.707 378.931 150.363C381.363 148.415 381.363 148.415 383.273 146.033L396.424 133.125C397.974 131.653 400.097 129.791 401.141 129.038C402.427 127.871 404.726 125.266 406.608 125.437C408.022 127.589 400.966 131.4 399.394 132.762C396.808 135.563 393.861 137.654 391.518 140.041L379.873 151.258C378.014 152.816 377.331 154.278 377.612 156.745C380.515 154.434 382.395 151.367 385.539 148.642C389.83 145.137 393.577 141.088 397.449 137.12C400.549 134.177 408.471 128.736 412.279 127.678L411.839 130.345C405.49 134.423 408.899 131.394 405.689 135.409C404.852 136.104 403.302 137.576 402.831 137.938C401.744 138.472 401.435 138.557 400.553 139.034C398.032 140.544 394.976 143.707 392.853 145.569C389.641 147.965 384.308 153.843 382.517 157.348C381.254 160.244 378.555 159.259 379.309 164.602C379.687 168.083 381.923 170.006 380.86 173.887C379.951 176.916 379.026 178.793 377.719 181.469C376.831 182.989 376.257 183.379 375.883 184.756C374.512 188.723 373.36 192.166 370.282 195.219C368.511 197.215 366.917 198.468 365.191 200.682C362.848 204.688 359.411 210.27 355.627 213.056C354.275 213.895 352.481 214.162 350.938 214.591C348.306 215.553 346.423 213.763 344.341 212.607C343.171 211.659 342.348 211.888 340.914 211.246C338.877 210.308 336.955 207.256 334.962 206.537C332.133 208.133 332.658 211.805 334.057 214.423C335.824 218.328 338.059 218.632 340.612 221.046C341.782 221.993 341.01 221.398 341.988 221.936C343.069 222.445 344.18 223.64 344.997 224.455C347.278 226.597 354.49 235.929 354.829 236.529C356.712 238.319 357.663 241.409 358.856 244.085C359.453 245.423 359.851 247.395 360.403 248.514C360.448 248.733 365.982 256.218 366.448 260.137C366.737 263.18 367.313 266.027 369.035 268.093C368.06 272.413 370.252 274.117 369.769 276.565C368.727 278.937 369.035 278.851 368.552 281.299L365.85 295.352C365.366 297.8 364.083 302.205 364.364 304.672C364.323 309.31 362.464 310.868 366.444 313.348C369.01 313.676 370.052 311.304 372.996 315.113C374.254 316.499 373.971 321.551 374.503 324.18C373.526 325.261 373.261 325.566 373.285 327.295C374.77 327.113 375.96 326.551 377.445 326.37C378.416 326.332 379.394 326.869 380.718 326.964C383.239 327.073 382.687 325.954 384.216 325.992C385.393 325.897 385.681 327.32 386.189 328.22C387.341 326.396 386.319 325.639 388.222 324.301C389.969 329.715 387.447 329.606 384.212 330.273C382.971 331.659 383.683 330.883 383.685 332.502C383.619 333.793 382.885 334.459 382.556 337.674C382.58 339.403 382.138 338.831 381.558 340.265C382.09 342.893 383.326 344.169 384.019 346.521C384.306 347.945 384.461 348.712 385.014 349.831C385.721 351.716 385.919 351.083 386.582 352.75C386.187 355.636 384.458 354.612 385.653 358.907C384.72 360.208 384.919 361.193 384.281 362.874C382.445 366.161 378.456 370.624 374.457 371.272C370.495 371.564 370.207 370.14 367.573 367.864C362.019 363.508 366.663 360.135 354.582 358.981C353.053 358.943 351.707 358.739 350.685 357.982L340.836 352.275C339.46 351.384 338.996 350.703 337.562 350.061C336.79 349.466 334.753 348.528 333.841 348.319C326.428 345.52 328.372 350.301 320.05 341.393C318.836 340.227 315.848 336.199 314.826 335.442C311.619 333.557 311.038 333.371 308.557 330.243C306.033 326.896 300.08 320.568 300.231 314.859C300.717 306.511 299.654 310.392 297.798 306.049C290.424 287.855 294.52 288.221 293.859 279.035C293.635 274.702 292.506 269.116 293.172 264.882C293.573 260.954 293.658 256.534 295.03 252.567L297.31 243.952C297.773 243.014 297.993 242.49 298.264 241.142C299.415 237.699 300.921 236.008 301.919 233.417L310.086 221.663C313.914 217.476 318.631 213.389 323.231 209.797C324.825 208.544 327.148 207.668 327.639 205.796C325.955 204.992 323.235 205.516 321.375 205.455C313.008 205.466 315.11 205.113 308.202 209.115C305.681 210.625 304.174 210.697 303.551 213.53C299.126 214.76 290.317 223.339 285.776 226.683C283.035 228.717 280.861 231.403 277.856 233.742C274.909 235.833 272.279 238.415 269.332 240.506C266.385 242.597 262.939 244.365 259.683 246.542C253.128 250.677 246.779 254.755 239.76 258.209C230.22 263.173 235.136 269.21 235.929 277.434C235.888 282.072 238.629 280.038 234.05 291.259C232.898 294.702 231.636 297.598 230.926 301.612C230.325 304.555 229.263 310.056 227.073 311.59C223.553 314.072 220.879 316.434 221.183 320.63C218.325 323.159 219.084 325.84 216.293 328.698C214.258 330.998 212.4 334.175 208.592 335.233C202.418 336.949 201.712 336.682 195.688 343.446C188.584 351.319 179.483 351.997 177.271 353.422C170.098 357.728 162.705 362.559 154.03 362.656C150.64 362.557 151.354 363.4 149.913 363.8C148.075 363.848 148.788 363.072 144.819 364.406C143.378 364.806 136.96 365.317 135.166 365.584C132.711 365.804 120.556 363.745 118.584 361.517C115.198 357.136 113.561 359.789 111.699 358.109C112.029 356.513 111.346 357.975 112.588 356.589C111.418 355.642 109.623 354.29 109.909 352.475L109.975 352.804Z" fill="black"/>
<path fill-rule="evenodd" clip-rule="evenodd" d="M208.343 257.107C207.056 256.655 200.858 256.642 198.601 256.229L184.299 254.303C179.851 253.804 172.591 250.153 171.415 250.249C171.858 252.439 173.563 251.734 175.556 252.453C181.226 254.694 181.954 255.071 188.749 256.421C192.58 257.092 203.823 258.942 208.446 257.079L208.343 257.107ZM153.07 268.649C151.783 268.197 154.114 267.896 151.541 268.611C150.968 269.002 151.541 268.611 150.77 269.635L153.092 268.759L153.07 268.649ZM119.337 276.519C119.337 276.519 120.932 276.885 119.934 279.476C119.134 281.434 117.231 282.772 116.24 284.32C115.131 286.363 116.263 286.049 114.624 287.082C113.958 280.559 118.054 282.543 118.191 278.919C114.716 281.62 113.344 285.587 110.199 288.312C108.076 290.175 109.002 289.917 105.548 292.728C102.602 294.819 105.947 294.699 96.5821 297.301C93.0832 298.274 91.6867 298.893 89.3652 301.389C88.1238 302.775 85.362 306.318 85.5104 308.128C86.2619 310.233 87.1229 311.266 88.8723 310.78C93.812 309.407 91.9453 310.389 94.0113 310.393C96.0695 309.821 98.3024 306.887 100.411 305.491C102.27 303.934 104.747 302.204 106.878 300.918C109.354 299.189 110.507 297.365 112.939 295.416C118.054 291.682 124.273 290.185 127.549 286.498C129.826 283.784 143.194 276.252 147.67 274.198C149.64 273.188 150.411 272.164 148.689 270.098C148.292 269.745 147.475 268.931 147.159 268.441C145.982 268.536 145.718 268.841 144.748 268.88C144.086 268.832 144.086 268.832 143.527 268.756C142.306 268.633 143.527 268.756 142.821 268.49C143.504 267.027 144.724 267.151 146.032 266.093C147.274 264.707 147.185 264.269 148.928 264.826C148.951 266.555 148.554 266.202 148.283 267.55L148.372 267.988C150.673 268.621 150.34 265.359 155.768 268.015C155.483 269.83 155.041 269.258 155.793 271.363C160.776 270.209 160.533 269.005 165.685 266.532C168.581 265.264 171.771 264.378 174.027 263.173C180.62 260.3 183.701 260.485 190.648 259.364C192.531 261.154 193.084 262.273 196.604 259.791C194.831 258.549 185.736 258.184 182.728 257.285C179.301 255.924 172.461 252.735 168.962 253.707C167.83 254.021 166.441 255.217 164.537 254.936C165.778 253.55 165.618 255.446 166.925 252.769C163.542 251.627 166.018 249.898 163.231 248.475L160.024 246.59C157.986 245.652 154.648 244.729 152.919 243.705C149.087 241.416 152.72 242.72 146.652 240.126C144.615 239.188 142.07 237.35 139.636 237.68C139.351 239.494 140.189 238.799 138.991 240.404C137.704 239.952 137.822 239.456 137.019 238.175C135.115 237.895 133.674 238.295 132.968 238.029C133.143 235.667 133.922 235.219 136.444 235.328C138.966 235.437 139.723 234.88 141.98 235.293C145.877 236.292 149.437 238.311 152.652 240.772C155.551 242.743 158.477 243.78 161.331 245.532C163.06 246.556 160.869 246.47 163.369 246.47C167.42 246.616 165.891 246.579 166.511 249.645L169.65 249.583L169.625 246.235C169.735 245.163 169.581 246.016 170.088 245.297C170.949 246.33 170.441 245.43 170.795 247.182L172.324 247.22C174.269 252.001 177.834 251.357 181.776 252.575C185.159 253.717 188.99 254.388 192.777 254.839C195.343 255.167 198.115 255.438 200.681 255.766C203.556 256.008 206.217 255.732 208.784 256.06L216.621 256.658C219.452 256.681 221.76 256.271 224.878 256.099C232.318 256.345 241.079 251.828 247.7 248.022L258.526 241.89C262.134 239.847 265.081 237.755 268.395 235.331C271.18 233.516 275.633 229.734 278.22 228.552C278.001 230.695 276.56 231.095 273.878 232.882C268.543 237.14 263.385 240.656 256.947 244.296C248.378 249.222 241.499 253.909 231.826 256.597C229.459 257.255 229.856 257.607 227.357 257.608C225.452 257.327 223.967 257.509 222.379 257.718L224.681 258.351C227.556 258.593 231.253 256.988 233.621 257.949C233.49 260.53 231.586 260.25 229.748 260.298C228.904 262.036 228.551 261.903 226.493 262.475C224.256 260.551 221.933 261.428 219.058 261.186L210.956 260.893C208.125 260.869 205.464 261.146 202.633 261.123C195.907 261.72 199.025 263.167 194.291 264.482C191.307 265.312 190.151 263.898 188.782 261.964C183.38 264.275 183.805 262.075 179.571 263.714C177.249 264.591 173.42 267.159 170.539 267.959C160.556 270.733 161.97 272.885 157.236 274.201C154.09 275.306 154.934 273.568 149.202 277.474C144.286 280.575 138.619 283.191 133.666 286.649C131.697 287.659 130.808 289.179 129.169 290.213C124.319 293.642 121.092 293.267 117.725 294.896L113.434 298.402C112.149 299.569 110.738 300.655 109.188 302.127C105.976 304.523 102.677 306.481 100.046 309.063C93.0079 315.646 94.9764 313.017 89.9547 312.908C90.6619 314.794 92.1912 314.832 93.0965 316.084C93.9132 316.898 94.3548 317.469 94.7156 318.179C95.5766 319.212 95.841 318.907 96.5548 319.75C98.6376 322.526 100.38 323.082 103.199 326.81C104.016 327.624 106.097 328.781 107.384 329.233C114.709 331.594 113.429 330.099 117.744 329.94C123.942 329.953 123.148 329.249 128.19 327.847C129.631 327.447 131.778 327.313 133.527 326.827C135.585 326.255 136.806 326.379 138.864 325.807C141.54 325.063 141.385 324.297 143.605 323.449C145.619 322.658 146.751 322.343 148.809 321.771C151.44 320.809 165.764 313.705 167.734 312.695C170.564 311.099 173.312 309.641 176.303 307.769C177.185 307.293 177.655 306.931 178.515 306.345C180.485 305.335 181.88 303.096 184.358 302.986C187.078 302.462 196.445 293.959 200.782 292.291C200.518 292.596 200.518 292.596 200.562 292.815L200.297 293.12C198.726 296.101 198.02 295.835 195.427 298.059C193.876 299.531 191.18 301.784 189.166 302.575L189.43 302.271L189.959 301.661C191.994 299.36 188.762 303.266 190.532 301.27C191.061 300.661 190.752 300.746 191.259 300.027C188.363 301.295 186.718 303.371 183.558 304.943C180.728 306.539 178.399 308.459 176.165 309.774L177.341 309.678C176.923 310.836 178.422 310.188 174.909 311.627L165.568 315.957C163.245 316.834 162.224 317.696 159.239 318.526C158.107 318.84 157.225 319.317 156.41 320.122C154.749 321.046 155.366 320.874 153.066 321.861C146.782 324.648 140.895 327.787 134.47 329.341C133.03 329.742 131.75 329.866 130.618 330.18C128.251 330.838 129.781 330.876 124.179 332.201C121.504 332.944 121.659 333.711 118.534 333.307C116.585 332.807 115.769 333.612 109.659 332.419C105.761 331.419 102.753 330.52 100.471 326.759C98.3444 323.764 94.7623 321.636 92.6352 318.641C90.8612 315.779 89.6472 314.613 86.573 313.385C83.1901 312.243 82.7473 310.053 84.0241 306.69C84.3538 305.095 85.6838 304.147 86.6166 302.847C91.9266 295.24 95.1414 297.702 101.381 294.695C103.042 293.771 102.358 293.614 103.46 292.614C103.416 292.395 108.619 289.098 110.808 285.945C112.005 284.34 116.962 276.601 118.888 276.991L119.337 276.519Z" fill="black"/>
<path fill-rule="evenodd" clip-rule="evenodd" d="M55.1862 175.315C57.9504 175.01 58.4596 177.529 60.6506 177.614L61.4948 175.876C62.5096 176.057 61.8479 176.009 62.7154 175.999C62.5814 173.723 62.5814 173.723 61.1029 172.862C60.7056 172.509 59.9332 171.914 59.6831 171.752C58.9771 171.486 58.9771 171.486 58.0431 171.167C59.3055 168.271 62.9553 172.347 64.2423 172.799C65.5293 173.251 65.6178 173.689 66.897 173.565C69.6379 171.531 68.6219 169.731 70.7896 168.088C72.0766 168.54 71.8044 168.269 72.5625 169.33C72.2328 170.926 72.1 170.269 72.0282 172.602C74.7272 173.587 75.1909 174.268 76.3672 174.172L76.4324 172.882L82.0781 171.776C81.4373 170.219 80.4213 168.419 80.2221 167.433C81.9273 166.728 82.3246 167.08 83.1856 168.114L83.1658 171.242L85.0039 171.194L84.7394 171.499L84.0568 172.961C86.5787 173.07 86.3142 173.375 88.3072 174.093C94.3305 176.468 91.5806 176.307 95.082 178.573C97.1636 179.73 97.2288 178.439 97.9151 181.834C100.193 180.739 102.361 179.095 103.187 182.105C99.7322 183.296 101.105 180.948 96.2332 184.268C96.874 185.825 97.3414 191.363 102.391 188.919C103.08 186.414 102.61 186.776 103.454 185.038C104.785 185.709 104.623 185.985 105.337 186.828C109.917 186.365 108.411 188.056 112.308 187.436C113.461 185.612 112.153 186.669 113.769 185.526C116.071 186.159 116.117 187.997 115.985 188.959C113.333 191.431 113.045 190.007 111.333 191.755C112.15 192.57 111.024 191.841 112.105 192.351C112.922 193.165 113.326 192.474 113.525 193.46C114.541 195.26 113.416 194.531 113.46 194.75C113.107 194.617 113.107 194.617 112.688 194.155C110.142 192.318 108.685 189.947 107.133 189.799C105.295 189.847 106.207 190.057 106.046 190.333C106.134 190.771 106.354 190.247 106.995 191.804C104.049 193.895 105.225 193.8 103.565 196.343L102.632 197.643C104.052 198.753 104.47 197.595 105.442 199.176C108.829 205.176 104.626 209.12 99.1538 206.245C98.7553 204.273 98.513 204.687 98.8205 202.983C101.496 202.239 100.351 204.639 102.762 204.201C104.865 203.848 105.397 197.338 99.928 199.32C99.2453 200.782 99.554 200.697 98.577 201.778C97.7357 197.616 101.677 198.834 101.675 195.596C101.65 192.248 96.8932 191.835 97.202 191.749C97.202 191.749 97.1577 191.53 96.849 191.616L96.0089 189.073C95.9191 187.016 96.095 186.273 95.234 185.24L96.8495 182.478L92.5302 177.778C90.2936 175.855 88.0805 175.66 86.955 174.932C83.7923 173.266 84.1896 173.618 79.9846 174.324C76.7059 174.772 75.2885 176.901 72.6128 177.645C72.833 177.121 72.678 176.354 72.5894 175.916L73.2278 174.235C69.3304 173.236 69.9724 176.412 64.4428 175.404C63.7092 177.69 62.5186 178.252 62.2332 180.066L58.337 180.686C57.7195 180.858 51.0124 178.326 54.9947 174.906L55.1862 175.315Z" fill="black"/>
<path fill-rule="evenodd" clip-rule="evenodd" d="M102.909 233.424C97.6165 234.664 99.2536 241.149 103.507 236.381L102.909 233.424ZM105.856 231.333C105.657 230.347 105.657 230.347 104.951 230.081L103.774 230.176C103.157 230.348 101.693 229.02 102.426 226.734C104.022 227.1 102.691 226.429 103.758 227.405C104.221 228.086 104.221 228.086 104.927 228.352C106.612 229.156 108.758 229.023 109.911 227.199L111.128 222.465C113.451 221.588 113.165 223.402 116.156 221.53C115.803 221.397 115.803 221.397 115.759 221.178C116.803 220.425 115.715 220.959 115.295 220.497L115.978 219.035C113.988 212.416 118.366 216.868 120.719 216.677C121.137 215.519 121.181 215.738 121.452 214.391C122.046 212.49 121.562 213.319 122.803 211.933L121.787 210.133C123.492 209.428 124.889 208.809 125.683 209.513C126.191 210.413 126.589 210.765 126.17 211.923C125.576 213.823 125.038 212.237 124.994 212.018C124.62 213.395 124.154 218.614 124.353 219.6L126.875 219.709C126.347 221.937 125.766 221.752 123.311 221.971C122.45 220.938 122.758 220.852 121.691 219.876C117.972 221.373 119.524 221.52 118.018 223.211C116.512 224.902 113.284 224.526 115.294 228.016C116.176 227.54 116.58 226.849 117.661 227.359C119.345 228.163 117.547 232.711 113.651 233.331L111.921 230.689C109.201 231.213 107.914 230.761 106.278 235.033C105.639 236.714 105.633 237.757 104.597 239.086C101.966 240.048 99.664 239.416 98.1335 237.759C97.5812 236.64 97.6871 230.711 102.761 231.615C104.665 231.895 103.731 231.576 105.789 231.004L105.856 231.333Z" fill="black"/>
<path fill-rule="evenodd" clip-rule="evenodd" d="M195.299 77.5024C196.65 75.0449 198.554 75.3254 201.984 70.7864C204.526 67.7666 204.571 69.6048 204.88 69.519C204.147 71.805 204.571 69.6048 201.824 72.6817C201.053 73.7057 199.745 74.7632 198.768 75.8444C196.336 77.7927 197.791 76.9257 196.69 79.5451C196.316 80.9214 195.692 82.1359 194.656 83.4647C192.578 87.1653 192.019 96.2277 190.185 101.133L186.533 113.715C184.852 117.768 182.612 121.745 181.954 126.555C181.334 132.627 183.152 135.707 184.679 141.645L185.763 147.012C188.463 158.755 184.237 160.97 187.539 171.389C188.689 175.465 188.023 179.698 192.123 186.541L196.974 193.868C198.593 195.963 200.426 198.577 202.045 200.672L206.408 205.59C208.138 208.233 207.049 207.147 206.851 207.781C204.77 206.624 198.771 198.458 197.108 196.144C194.672 193.235 189.711 185.36 188.319 181.698C187.368 178.608 186.857 174.47 185.907 171.379C185.176 167.765 184.887 164.722 184.818 161.156C184.728 159.098 185.507 158.651 185.528 157.141C186.056 154.912 183.997 144.727 183.665 143.084C181.785 135.393 179.349 132.484 181.122 124.588C181.723 121.645 182.603 119.55 183.866 116.654C184.086 116.13 184.284 115.497 184.504 114.973L187.784 105.386C188.582 101.81 190.198 99.0473 190.885 93.304C191.44 88.5228 192.922 85.1033 194.383 81.5742C195.645 78.6786 195.47 81.0406 195.181 77.9977L195.299 77.5024Z" fill="black"/>
<path fill-rule="evenodd" clip-rule="evenodd" d="M115.222 241.109C114.889 237.847 113.63 236.461 116.923 235.546C116.505 236.703 116.968 235.765 116.505 236.703C115.734 237.727 115.579 236.961 115.904 239.647L117.191 240.099C119.716 243.446 120.601 237.069 120.468 236.412C120.071 236.06 118.739 235.389 118.276 234.708C117.369 231.836 121.26 233.878 121.775 233.735C123.215 233.335 124.471 231.482 124.786 230.354C123.837 228.882 123.925 229.32 123.167 228.259C124.564 227.639 124.961 227.992 126.087 228.72C126.2 232.506 126.861 232.553 124.893 235.182C125.754 236.216 126.468 237.058 125.579 238.578C128.28 241.182 126.904 240.292 126.839 241.582C126.62 243.725 126.574 241.887 127.347 242.482C128.832 242.301 126.883 241.801 129.47 240.62C129.756 238.805 129.756 238.805 131.747 237.905C132.3 239.024 131.991 239.109 133.116 239.838C134.735 241.933 135.881 239.532 136.125 242.356C136.413 243.78 136.369 243.561 135.531 244.256C134.001 242.6 134.515 242.457 132.015 242.457C127.453 247.311 125.024 243.359 122.833 243.274L121.218 246.036C119.512 246.741 116.433 248.175 115.043 247.752C113.403 247.166 111.637 244.881 113.098 242.971C114.268 243.918 113.695 244.309 114.556 245.342C116.041 245.161 116.658 244.989 117.496 244.294C117.163 241.032 116.237 241.289 115.369 241.299L115.222 241.109Z" fill="black"/>
<path fill-rule="evenodd" clip-rule="evenodd" d="M238.261 171.753C239.593 172.424 240.519 172.166 245.147 176.78C249.819 181.612 252.849 182.621 258.828 184.777C261.527 185.762 263.322 187.114 266.285 187.794C271.353 189.741 277.088 190.692 282.309 191.786L297.272 193.759L297.978 194.025C299.06 194.535 297.758 194.549 298.331 194.159C299.463 193.844 300.743 193.72 301.985 193.953C304.243 194.367 302.758 194.548 304.178 195.657C307.124 193.566 304.398 195.134 313.118 195.255C315.264 195.121 318.918 194.916 320.199 196.411C318.758 196.811 315.883 196.569 314.045 196.617C307.538 196.69 310.811 197.284 308.333 197.395C306.804 197.357 304.502 196.724 302.597 196.444C295.716 196.274 300.076 196.335 297.171 195.407C295.222 194.907 293.119 195.26 291.524 194.894C289.266 194.48 288.252 194.299 285.788 193.943L269.449 191.08C264.626 190.338 269.25 190.094 265.308 188.876C259.977 187.234 262.654 188.11 260.506 186.624C259.336 185.677 257.387 185.177 255.747 184.592C254.372 183.702 254.527 184.468 253.093 183.826C249.371 182.084 245.501 178.532 242.712 175.49C240.321 172.8 240.013 174.505 238.592 171.776L238.261 171.753Z" fill="black"/>
<path fill-rule="evenodd" clip-rule="evenodd" d="M79.9318 191.805C80.4189 194.215 81.5443 194.943 85.2634 193.447L86.5258 190.551L88.6726 190.417C93.6327 196.674 93.5405 191.378 96.1953 192.144C96.4179 194.859 95.153 194.516 93.3383 196.293C93.9792 197.85 94.9131 198.169 94.4884 200.369C94.1144 201.745 93.1374 202.826 91.7852 203.665C88.8385 205.756 86.249 203.699 85.8271 199.999C87.2236 199.38 88.2383 199.561 88.8115 199.17C88.8115 199.17 92.1321 195.702 86.8394 196.942C81.5025 197.962 80.7509 195.857 79.6255 195.129L80.1598 191.857L79.9318 191.805Z" fill="black"/>
<path fill-rule="evenodd" clip-rule="evenodd" d="M156.702 217.784C157.916 218.95 156.681 219.294 156.256 221.494C159.045 224.536 161.014 221.907 163.454 220.535C161.573 212.845 160.136 218.102 157.7 215.193C159.295 213.94 159.405 214.488 161.155 214.002C162.818 216.316 162.442 214.454 163.481 217.982C165.691 224.077 162.771 221.997 166.494 225.358L168.243 224.872C168.199 224.653 168.155 224.434 168.463 224.348L168.131 222.705C170.189 222.133 170.034 221.367 171.342 220.309L172.468 221.038C172.8 222.681 172.094 222.414 173.419 224.128L175.212 223.861C175.902 221.356 174.152 221.842 176.122 220.832L177.823 224.408C174.636 230.152 171.295 225.991 170.986 226.076C170.009 227.158 170.215 227.1 169.878 228.119C162.351 230.674 163.634 226.268 163.346 224.845C158.342 227.508 157.525 226.694 155.066 222.056C155.44 220.68 155.22 221.204 155.866 220.099C156.019 219.246 156.24 218.722 156.666 218.141L156.702 217.784Z" fill="black"/>
<path fill-rule="evenodd" clip-rule="evenodd" d="M76.1502 161.276C76.7468 162.614 76.946 163.599 78.431 163.418C77.57 162.385 77.1063 161.704 76.1502 161.276ZM53.31 155.823C53.0246 157.638 53.663 155.957 52.6716 157.505C52.1427 158.114 52.2091 158.443 51.7831 159.024C52.4904 160.91 53.8216 161.581 55.5047 160.766C57.2099 160.061 54.7322 160.171 57.9577 157.308C58.7954 156.613 58.7954 156.613 59.155 155.703C59.1107 155.484 59.2644 154.632 59.2644 154.632C60.2624 152.041 63.954 153.097 68.8728 153.234L69.0721 154.22C69.3156 155.425 71.1093 155.157 72.2791 156.105C74.1183 157.676 72.2139 157.395 74.8895 156.652C76.5906 160.228 80.0698 162.384 81.1743 164.622C80.0423 164.937 80.2039 164.66 78.9611 164.427C78.0284 165.728 79.0497 164.865 77.6754 165.594C71.0543 160.262 74.7723 157.147 67.2496 155.42C65.3009 154.921 63.8601 155.321 61.7134 155.455C60.4276 156.622 61.4932 155.979 59.8101 156.793C60.8974 165.398 51.3099 165.286 50.9533 160.296C50.7307 157.581 51.7077 156.5 53.4129 155.795L53.31 155.823Z" fill="black"/>
<path fill-rule="evenodd" clip-rule="evenodd" d="M291.032 215.044C290.967 216.334 290.57 215.982 289.438 216.297C288.261 216.392 286.982 216.516 285.784 216.502C282.755 217.113 282.041 216.27 278.947 218.171L278.748 217.185C278.284 216.504 278.659 216.747 278.24 216.285C276.446 216.552 275.3 217.333 273.08 218.181C271.043 217.244 271.043 217.244 267.859 217.087C265.712 217.221 264.381 216.55 262.432 216.051C254.484 214.905 261.75 217.513 251.52 214.224C248.821 213.239 239.613 209.089 237.73 207.299C236.266 205.97 234.655 206.071 233.815 203.528C236.888 203.137 235.229 205.68 242.274 208.812C243.356 209.321 244.775 210.431 245.437 210.478C247.739 211.111 246.319 210.002 248.754 211.292C253.292 213.848 261.594 215.127 266.88 214.93C268.409 214.968 269.644 214.625 271.151 214.553C273.673 214.662 274.629 215.091 278.901 214.713C281.003 214.36 280.541 215.299 282.687 215.165C285.76 214.774 290.193 214.12 291.01 214.934L291.032 215.044Z" fill="black"/>
<path fill-rule="evenodd" clip-rule="evenodd" d="M125.134 224.01C125.707 223.619 123.538 223.643 127.545 223.571C128.515 223.533 129.692 223.437 130.89 223.451C131.484 221.551 131.69 221.494 131.424 220.179C130.381 220.932 131.006 221.337 130.028 220.799C130.49 219.861 130.872 219.06 131.335 218.122C130.827 217.222 130.385 216.651 129.407 216.113C127.767 215.528 128.319 216.647 126.752 215.347C129.808 212.184 133.503 218.098 133.945 218.669C134.806 219.702 135.476 220.326 136.116 221.883C134.521 221.517 135.587 222.493 134.388 220.86C132.813 218.984 133.88 219.96 132.968 219.75C132.33 221.432 133.609 221.308 134.786 222.831L139.813 229.416C144.75 233.943 137.309 233.698 135.677 233.688C136.609 232.388 137.646 232.678 139.396 232.192C138.755 230.635 135.187 228.041 133.863 226.327C133.046 225.513 132.957 225.074 131.935 224.318C129.965 225.328 131.091 226.056 128.282 226.142C126.444 226.19 125.054 225.767 125.075 224.257L125.134 224.01Z" fill="black"/>
<path fill-rule="evenodd" clip-rule="evenodd" d="M155.994 295.482C154.663 294.811 151.833 296.407 150.481 297.245C149.084 297.864 147.071 298.655 145.829 300.041L156.097 295.453L155.994 295.482ZM156.323 293.886C157.273 295.358 157.405 294.396 158.405 295.043C153.335 298.997 140.368 302.6 137.686 304.386C135.518 306.03 120.689 315.472 119.424 315.129C116.151 314.534 122.944 312.647 126.75 309.97C128.036 308.803 129.741 308.098 131.402 307.174C133.063 306.249 134.349 305.082 135.804 304.215C140.5 301.638 151.494 295.807 156.323 293.886Z" fill="black"/>
<path fill-rule="evenodd" clip-rule="evenodd" d="M102.78 168.8C105.521 166.765 103.579 165.223 106.563 164.394L107.161 167.351C109.198 168.289 108.242 167.86 109.244 170.127L112.075 170.15C112.802 168.907 112.713 168.469 114.198 168.287C114.332 170.564 111.717 174.298 105.701 170.88C104.901 172.837 104.503 172.485 101.872 173.448L100.791 172.938C99.6212 171.991 99.93 171.905 99.2162 171.062C97.7963 169.953 98.3785 171.758 97.5594 167.705C99.3089 167.219 100.258 168.691 102.78 168.8Z" fill="black"/>
<path fill-rule="evenodd" clip-rule="evenodd" d="M163.941 334.8C163.479 335.738 164.294 334.933 163.479 335.738L156.107 339.059C152.652 340.25 149.712 341.298 146.345 341.309C142.602 341.076 142.207 343.962 131.849 344.874C130.672 344.97 128.195 345.08 127.4 344.375C127.665 344.07 126.892 343.475 129.37 343.365L136.141 342.987C137.67 343.025 152.827 337.888 155.135 337.478C156.061 337.221 159.649 336.686 159.958 336.601C161.045 336.067 162.081 334.738 163.985 335.019L163.941 334.8Z" fill="black"/>
<path fill-rule="evenodd" clip-rule="evenodd" d="M174.14 276.097C170.905 276.764 170.112 277.679 167.436 278.422C168.236 276.465 168.413 277.341 173.323 275.283C176.219 274.015 191.757 268.078 193.133 268.968C192.361 269.992 183.041 272.814 178.815 275.029C175.206 277.073 168.438 280.689 164.497 281.09C165.915 278.961 171.715 278.621 174.037 276.125L174.14 276.097Z" fill="black"/>
<path fill-rule="evenodd" clip-rule="evenodd" d="M155.921 256.405C156.518 259.362 156.143 259.119 154.637 260.81C151.938 259.825 151.498 260.873 148.614 258.435C145.938 259.178 143.792 259.312 143.032 256.631C145.708 255.888 145.798 257.945 149.008 253.93C151.045 254.868 150.914 257.449 153.216 258.082C154.877 257.157 153.569 258.215 154.678 256.172L155.898 256.295L155.921 256.405Z" fill="black"/>
<path fill-rule="evenodd" clip-rule="evenodd" d="M77.9007 150.032L78.1885 151.455C75.9113 154.17 77.0355 153.279 75.7354 154.913C73.6981 153.975 74.4484 154.461 74.1672 151.994L70.7125 153.186C69.2484 151.857 68.7195 152.467 68.3665 152.334L68.0578 152.42L67.3961 152.372C68.0787 150.91 67.6605 152.067 68.5933 150.767C68.3055 149.343 67.5773 148.967 67.6425 147.677C70.098 147.457 67.6425 147.677 71.0697 149.038C73.107 149.975 72.7097 149.623 74.9659 148.418L75.0102 148.637C75.3189 148.551 75.5625 149.756 77.7756 149.951L77.9007 150.032Z" fill="black"/>
<path fill-rule="evenodd" clip-rule="evenodd" d="M293.663 212.461C292.686 213.542 290.318 212.58 288.95 212.266C287.045 211.986 285.516 211.948 283.303 211.753C281.09 211.559 280.339 211.073 278.082 210.659L268.147 207.752C267.485 207.704 266.551 207.386 265.889 207.338C264.602 206.886 264.205 206.534 263.499 206.267C261.506 205.549 260.065 205.949 258.234 204.954C254.004 202.312 255.27 204.274 253.696 202.398C255.842 202.264 255.997 203.031 258.41 204.211C260.447 205.149 261.329 204.672 263.631 205.305C264.646 205.486 264.962 205.976 265.668 206.243C269.345 207.766 271.448 207.413 273.235 208.189C278.95 210.65 284.236 210.453 288.442 211.366C292.229 211.818 292.493 211.513 293.663 212.461Z" fill="black"/>
<path fill-rule="evenodd" clip-rule="evenodd" d="M135.183 192.53L135.009 194.892C138.591 197.02 135.915 197.764 138.635 197.239C139.362 195.996 138.789 196.387 139.229 195.339C141.288 194.767 141.84 195.886 142.547 197.772C140.623 200.62 140.777 199.767 137.278 200.74C135.528 201.226 136.749 201.349 135.308 201.75C134.667 200.193 135.528 201.226 135.285 200.021C134.732 198.902 134.579 199.755 134.136 197.564C133.649 195.155 132.942 193.269 135.309 192.611L135.183 192.53Z" fill="black"/>
<path fill-rule="evenodd" clip-rule="evenodd" d="M318.059 253.571C318.964 254.823 316.712 271.644 316.773 274.634C316.886 278.42 317.058 281.958 317.238 286.073C317.042 289.944 317.286 291.149 318.016 294.763C318.614 297.72 318.459 296.954 318.041 298.111C317.997 297.892 317.688 297.978 317.533 297.211C317.533 297.211 317.642 296.14 317.598 295.921C317.132 292.001 316.647 292.83 316.312 286.33C316.027 279.006 316.087 271.239 316.795 263.986C317.014 261.843 317.035 260.334 317.217 258.548C317.083 256.272 317.104 254.762 318.081 253.681L318.059 253.571Z" fill="black"/>
<path fill-rule="evenodd" clip-rule="evenodd" d="M296.186 185.154C293.267 184.693 282.708 183 281.089 180.905C283.103 180.114 286.31 181.999 288.259 182.499C289.899 183.084 293.126 183.46 295.384 183.873C297.641 184.287 300.45 184.201 302.707 184.615C306.097 184.714 306.23 185.371 309.26 186.38C307.907 187.218 306.848 186.819 305.561 186.366C303.26 185.734 304.341 186.243 301.554 186.439C298.656 184.468 299.517 185.501 296.289 185.126L296.186 185.154Z" fill="black"/>
<path fill-rule="evenodd" clip-rule="evenodd" d="M166.196 232.496C165.115 231.987 166.152 232.277 165.115 231.987C164.762 231.854 164.498 232.159 164.145 232.025C165.05 233.278 164.3 232.792 166.093 232.525L166.196 232.496ZM163.85 231.645C164.739 230.125 170.958 228.629 169.294 235.453C163.274 237.935 163.956 234.854 163.006 233.383C162.454 232.264 162.389 233.554 161.946 231.364C163.078 231.049 163.078 231.049 163.85 231.645Z" fill="black"/>
<path fill-rule="evenodd" clip-rule="evenodd" d="M130.821 207.508L133.849 206.898L135.424 208.774C138.1 208.03 140.649 205.587 141.884 205.243C142.591 207.129 141.02 210.11 139.535 210.292C136.506 210.902 135.484 210.145 133.336 208.66L131.939 209.279C131.719 209.803 131.631 209.365 131.786 210.132L132.029 211.336C130.191 211.384 130.544 211.518 129.793 209.413L130.946 207.589L130.821 207.508Z" fill="black"/>
<path fill-rule="evenodd" clip-rule="evenodd" d="M159.423 258.671L161.437 257.88L162.696 259.266C165.769 258.875 163.739 258.513 166.26 257.003C167.385 257.731 167.591 257.674 167.056 259.327C166.373 260.789 166.218 260.022 166.102 262.136C164.352 262.623 163.117 262.966 161.433 262.161C160.102 261.49 159.241 260.457 159.526 258.643L159.423 258.671Z" fill="black"/>
<path fill-rule="evenodd" clip-rule="evenodd" d="M249.123 127.091C248.527 125.753 248.725 125.12 247.548 125.215C247.593 125.434 248.012 125.896 248.056 126.115C249.27 127.282 248.454 126.468 249.226 127.063L249.123 127.091ZM246.712 127.53L247.55 126.834C246.291 125.449 246.424 126.106 245.643 123.316C251.025 124.134 249.962 128.015 250.294 129.658C250.493 130.643 251.907 132.796 252.106 133.781C252.857 135.886 253.674 136.7 252.992 138.162C251.866 137.434 252.175 137.348 251.732 135.158C248.548 135.001 250.714 130.12 246.837 127.611L246.712 127.53Z" fill="black"/>
<path fill-rule="evenodd" clip-rule="evenodd" d="M162.056 242.669C159.645 243.107 154.643 239.87 152.297 239.018C150.568 237.995 145.258 234.844 144.198 232.825C146.718 231.315 145.728 234.482 152.921 237.804C154.561 238.389 161.401 241.578 161.953 242.697L162.056 242.669Z" fill="black"/>
<path fill-rule="evenodd" clip-rule="evenodd" d="M226.691 212.91C225.14 214.382 218.609 211.107 215.974 207.212L207.98 195.09C210.811 195.113 209.4 196.199 212.344 200.008L218.056 208.369C218.917 209.402 222.021 211.316 223.719 211.653L226.021 212.286C226.727 212.553 226.374 212.42 226.793 212.881L226.691 212.91Z" fill="black"/>
<path fill-rule="evenodd" clip-rule="evenodd" d="M155.921 256.404L154.816 254.166C156.895 252.085 156.432 251.404 158.58 252.889C159.352 253.484 159.286 253.156 160.264 253.694C161.551 254.146 162.102 253.646 161.721 256.065L156.826 257.657L155.921 256.404Z" fill="black"/>
<path fill-rule="evenodd" clip-rule="evenodd" d="M146.938 287.241C146.652 289.056 140.427 291.595 137.024 293.582C132.843 296.016 130.631 297.441 125.824 299.47C126.109 297.656 127.021 297.865 130.674 296.041C133.261 294.859 144.504 287.57 146.813 287.16L146.938 287.241Z" fill="black"/>
<path fill-rule="evenodd" clip-rule="evenodd" d="M119.25 199.734C116.834 193.696 117.881 197.801 116.416 194.853C118.165 194.367 117.636 194.977 119.379 195.534C120.972 201.8 122.456 200 122.039 202.776C120.509 202.738 121.024 202.595 119.891 201.291C119.383 200.391 119.427 200.61 119.03 200.258L119.936 203.129L118.342 204.382C117.876 200.463 117.038 201.158 116.242 198.834C117.374 198.52 117.213 198.796 118.544 199.467L119.25 199.734Z" fill="black"/>
<path fill-rule="evenodd" clip-rule="evenodd" d="M251.695 162.931L249.019 163.675L248.666 163.541C248.512 164.394 247.49 163.637 248.954 164.965L247.205 165.451C248.463 166.837 250.058 167.203 251.877 170.284C249.266 169.737 240.481 160.148 239.987 158.781C242.818 158.804 243.084 161.738 244.769 162.542C245.85 163.051 250.46 163.274 251.695 162.931Z" fill="black"/>
<path fill-rule="evenodd" clip-rule="evenodd" d="M283.194 143.999L278.368 140.019C280.117 139.533 278.941 139.628 280.272 140.3C281.045 140.895 283.017 143.123 286.334 145.555L291.778 149.364C292.55 149.959 293.103 151.078 294.059 151.506C295.479 152.616 297.509 154.596 298.422 156.425C296.937 156.606 297.893 157.034 296.738 155.62C296.341 155.268 296.23 154.72 295.833 154.368C292.889 150.559 292.007 151.035 290.632 150.145C289.55 149.636 289.101 148.488 288.351 148.003L285.761 145.946C284.989 145.351 284.033 144.923 283.216 144.109L283.194 143.999Z" fill="black"/>
<path fill-rule="evenodd" clip-rule="evenodd" d="M316.642 228.285C317.239 229.623 314.632 233.933 313.281 236.39L310.492 242.487C309.854 244.168 310.691 243.472 309.339 244.311C309.27 240.744 314.806 229.952 316.62 228.175L316.642 228.285Z" fill="black"/>
<path fill-rule="evenodd" clip-rule="evenodd" d="M110.676 179.908C112.426 179.422 113.86 180.065 114.398 181.65C112.913 181.832 113.317 181.141 111.126 181.056L110.354 182.08C108.231 183.942 110.773 180.923 107.187 184.695C106.659 185.305 105.835 185.533 105.284 186.033C105.394 184.962 105.349 184.743 105.503 183.891C106.347 182.152 108.824 180.423 110.573 179.937L110.676 179.908Z" fill="black"/>
<path fill-rule="evenodd" clip-rule="evenodd" d="M64.018 179.224C66.3849 178.566 66.2312 179.418 68.2894 178.846C68.5981 178.761 72.2508 176.936 70.6797 179.917C69.7912 181.437 64.2197 183.447 64.018 179.224Z" fill="black"/>
<path fill-rule="evenodd" clip-rule="evenodd" d="M205.526 86.6919C207.254 87.7153 205.66 88.9681 205.239 96.0256C205.328 98.0828 204.594 98.7497 204.728 101.026C204.443 104.459 204.951 105.359 203.952 106.331C203.555 105.979 203.688 106.636 203.444 105.431C203.356 104.993 203.356 104.993 203.51 104.141L205.526 86.6919Z" fill="black"/>
<path fill-rule="evenodd" clip-rule="evenodd" d="M325.7 326.868C326.63 331.468 329.046 337.506 331.453 341.348C332.358 342.601 332.225 341.943 331.852 343.32C329.506 342.468 326.918 332.892 325.275 329.068C323.972 325.845 325.252 327.34 325.803 326.84L325.7 326.868Z" fill="black"/>
<path fill-rule="evenodd" clip-rule="evenodd" d="M324.393 228.444C324.482 230.502 320.894 240.174 320.184 244.189C319.546 245.87 320.119 245.479 318.833 246.646C318.435 244.675 319.117 243.213 319.653 241.56C320.071 240.403 320.071 240.403 320.453 239.603C321.253 237.645 323.577 229.249 324.415 228.554L324.393 228.444Z" fill="black"/>
<path fill-rule="evenodd" clip-rule="evenodd" d="M308.457 253.926L307.796 264.636C307.643 265.488 307.467 266.231 307.269 266.865C307.159 267.936 307.358 268.922 307.249 269.993C307.228 271.503 307.208 274.632 306.518 275.518C306.01 274.618 306.919 260.831 307.248 259.236C307.783 255.964 307.07 256.741 308.377 254.064L308.457 253.926Z" fill="black"/>
<path fill-rule="evenodd" clip-rule="evenodd" d="M229.833 275.774C229.439 278.66 228.307 278.974 227.867 281.641C226.785 288.651 224.787 292.213 221.712 298.505C221.842 295.924 224.171 294.004 225.073 290.399L227.909 278.622C228.952 276.25 228.709 276.664 229.833 275.774Z" fill="black"/>
<path fill-rule="evenodd" clip-rule="evenodd" d="M376.723 341.61C375.878 343.348 371.19 346.501 368.624 346.173C369.042 345.016 368.778 345.321 369.821 344.568C373.65 342.001 374.891 340.615 376.62 341.638L376.723 341.61Z" fill="black"/>
<path fill-rule="evenodd" clip-rule="evenodd" d="M184.659 323.838C183.932 325.082 171.645 333.123 169.344 332.49C170.026 331.028 168.946 332.138 173.216 330.141C177.553 328.474 183.644 323.658 184.659 323.838Z" fill="black"/>
<path fill-rule="evenodd" clip-rule="evenodd" d="M123.349 344.228C122.087 347.124 117.658 343.496 115.871 342.721C114.231 342.135 113.967 342.44 113.37 341.102C115.119 340.616 116.201 341.125 118.326 342.501C119.408 343.01 119.702 343.391 120.717 343.572C122.246 343.61 122.157 343.172 123.327 344.119L123.349 344.228Z" fill="black"/>
<path fill-rule="evenodd" clip-rule="evenodd" d="M146.006 181.541C145.163 184.899 142.311 186.385 140.363 185.886C140.957 183.985 142.575 184.461 143.066 182.59C143.066 182.59 143.621 177.808 146.006 181.541Z" fill="black"/>
<path fill-rule="evenodd" clip-rule="evenodd" d="M350.086 166.822C348.337 167.308 346.499 167.356 344.683 167.513C343.712 167.552 342.889 167.78 341.61 167.905L340.169 168.305C338.331 168.353 339.86 168.391 339.088 167.796C339.352 167.491 338.58 166.896 341.917 166.2L349.041 165.955C350.571 165.993 349.57 165.345 350.167 166.683L350.086 166.822Z" fill="black"/>
<path fill-rule="evenodd" clip-rule="evenodd" d="M119.579 208.896C120.043 209.576 119.779 209.881 120.067 211.305C118.273 211.572 118.735 210.634 116.994 211.696C115.024 212.706 115.752 213.082 113.892 213.021C114.111 210.878 114.486 211.121 116.081 209.868C116.609 209.258 116.543 208.93 117.741 208.944L119.579 208.896Z" fill="black"/>
<path fill-rule="evenodd" clip-rule="evenodd" d="M210.022 318.641C210.465 320.832 206.901 323.095 204.997 324.433C203.645 325.272 199.421 329.106 198.442 328.568C199.595 326.744 206.812 322.656 207.848 321.328C209.045 319.723 208.575 320.085 210.125 318.613L210.022 318.641Z" fill="black"/>
<path fill-rule="evenodd" clip-rule="evenodd" d="M87.1935 187.936C89.7351 184.916 88.3022 185.893 91.8011 184.92C93.5949 184.653 92.3743 184.53 93.0881 185.372L88.7515 187.04C88.0246 188.283 88.1131 188.721 86.7166 189.341C84.4801 187.417 87.1791 188.402 83.1345 187.213C82.1198 187.032 83.1345 187.213 82.0533 186.704C84.6404 185.522 85.1927 186.641 86.1931 187.288C86.8991 187.555 86.5904 187.641 86.9655 187.883L87.1935 187.936Z" fill="black"/>
<path fill-rule="evenodd" clip-rule="evenodd" d="M109.157 341.233C109.554 341.585 109.774 341.061 109.974 342.047C110.262 343.471 109.445 342.657 110.44 345.966C110.772 347.609 111.59 350.042 110.841 351.176C109.826 350.995 110.07 352.2 109.293 346.747C108.961 345.104 108.452 342.585 109.135 341.123L109.157 341.233Z" fill="black"/>
<path fill-rule="evenodd" clip-rule="evenodd" d="M78.5363 154.251C80.0214 154.07 79.3088 154.846 81.367 154.274C81.3227 154.055 81.3227 154.055 81.6314 153.97C82.2046 153.579 81.2341 153.617 82.3141 152.507C83.3288 152.688 83.8434 152.545 83.3301 154.307C82.6917 155.988 79.4572 156.656 78.7954 156.608C76.9574 156.656 78.1337 156.561 77.5085 156.156L78.6614 154.332L78.5363 154.251Z" fill="black"/>
<path fill-rule="evenodd" clip-rule="evenodd" d="M77.9002 150.032L80.8026 147.722C80.7583 147.503 80.714 147.284 81.0228 147.198L81.3967 145.822C81.7264 144.226 81.2417 145.055 82.3738 144.741C83.5878 145.907 83.3233 146.212 82.5964 147.455C80.8272 151.07 80.6722 150.303 77.9002 150.032Z" fill="black"/>
<path fill-rule="evenodd" clip-rule="evenodd" d="M320.188 308.734C320.96 309.329 320.408 308.21 321.403 311.52C321.558 312.286 322.154 313.624 322.354 314.61C322.642 316.034 323.99 319.476 323.88 320.548C321.843 319.61 322.062 317.467 321.53 314.839C321.132 312.867 320.072 310.848 320.313 308.815L320.188 308.734Z" fill="black"/>
<path fill-rule="evenodd" clip-rule="evenodd" d="M344.291 331.188C345.417 331.916 346.878 339.145 346.923 340.983C345.703 340.859 346.241 342.445 345.156 337.079C344.515 335.521 343.344 332.955 344.291 331.188Z" fill="black"/>
<path fill-rule="evenodd" clip-rule="evenodd" d="M146.315 193.833C146.315 193.833 146.096 195.975 143.595 194.357C142.47 193.629 142.131 193.029 141.821 191.495C143.571 191.009 146.578 191.909 146.315 193.833Z" fill="black"/>
<path fill-rule="evenodd" clip-rule="evenodd" d="M216.752 263.214C216.025 264.457 207.298 265.378 205.173 265.621C205.393 265.097 204.909 265.926 205.393 265.097C205.856 264.159 215.84 263.005 216.752 263.214Z" fill="black"/>
<path fill-rule="evenodd" clip-rule="evenodd" d="M188.975 302.165C188.241 304.451 180.693 308.515 178.393 309.501C178.922 308.892 178.349 309.282 179.326 308.201L188.975 302.165Z" fill="black"/>
<path fill-rule="evenodd" clip-rule="evenodd" d="M266.769 176.209C264.556 176.015 264.312 174.81 262.166 174.944C261.702 174.263 262.121 174.725 261.084 174.434C258.583 172.816 255.576 171.916 254.751 170.526C257.009 170.94 264.268 174.591 266.747 176.1L266.769 176.209Z" fill="black"/>
<path fill-rule="evenodd" clip-rule="evenodd" d="M143.439 230.145C141.072 230.803 138.17 223.974 138.059 223.427C139.14 223.936 138.721 223.474 139.832 224.669C140.737 225.921 143.217 229.05 143.417 230.035L143.439 230.145Z" fill="black"/>
<path fill-rule="evenodd" clip-rule="evenodd" d="M113.979 288.186C114.311 289.829 113.893 290.986 113.224 291.982C110.412 296.349 114.285 294.001 111.146 295.683C110.197 294.211 112.957 289.049 113.979 288.186Z" fill="black"/>
<path fill-rule="evenodd" clip-rule="evenodd" d="M259.6 163.857C258.424 163.953 257.189 164.296 255.946 164.063C252.873 164.454 253.49 164.282 253.247 163.077C258.025 161.981 258.584 162.057 259.6 163.857Z" fill="black"/>
<path fill-rule="evenodd" clip-rule="evenodd" d="M350.824 355.977C350.669 355.211 346.885 348.859 348.192 346.183C348.744 347.301 349.033 350.344 349.629 351.682C350.137 352.582 350.843 352.849 351.249 353.777C352.154 355.03 351.845 355.115 350.721 356.006L350.824 355.977Z" fill="black"/>
<path fill-rule="evenodd" clip-rule="evenodd" d="M352.188 264.331C351.814 265.707 351.968 264.855 351.505 265.793C350.819 262.398 351.084 262.093 350.154 257.493C349.314 254.95 349.513 255.936 350.02 255.217L351.523 259.426L352.188 264.331Z" fill="black"/>
<path fill-rule="evenodd" clip-rule="evenodd" d="M147.862 187.503C148.569 189.389 148.613 189.608 147.372 190.994C146.047 189.28 148.017 188.27 145.09 187.232C143.494 186.866 144.208 187.709 143.714 186.342C145.772 185.77 146.942 186.718 147.965 187.475L147.862 187.503Z" fill="black"/>
<path fill-rule="evenodd" clip-rule="evenodd" d="M391.15 336.095C390.66 339.586 389.558 340.586 387.39 342.23C386.992 340.258 388.073 340.768 388.917 339.029C389.806 337.51 389.401 336.581 391.15 336.095Z" fill="black"/>
<path fill-rule="evenodd" clip-rule="evenodd" d="M222.77 298.905C222.441 300.5 218.739 306.387 217.395 307.802C217.989 305.901 219.384 303.663 220.273 302.144C221.206 300.843 221.006 299.858 221.006 299.858C221.116 298.786 220.477 300.467 222.667 298.933L222.77 298.905Z" fill="black"/>
<path fill-rule="evenodd" clip-rule="evenodd" d="M158.253 246.964C157.879 248.341 158.099 247.817 157.453 248.922C156.52 250.222 157.432 250.431 155.241 250.346C155.218 248.617 156.26 246.246 158.253 246.964Z" fill="black"/>
<path fill-rule="evenodd" clip-rule="evenodd" d="M112.716 164.187C110.922 164.454 112.098 164.359 110.458 163.774C108.554 163.493 109.621 164.469 108.774 162.969C109.927 161.145 112.185 161.559 112.716 164.187Z" fill="black"/>
<path fill-rule="evenodd" clip-rule="evenodd" d="M202.735 121.823C203.507 122.418 203.109 120.446 203.685 123.294L203.842 127.299C203.667 129.661 203.997 128.065 202.998 129.037L202.713 121.713L202.735 121.823Z" fill="black"/>
<path fill-rule="evenodd" clip-rule="evenodd" d="M223.558 52.7631L223.602 52.9822L221.523 55.0637C220.237 56.2307 219.708 56.8403 218.583 56.112C219.31 54.8689 219.56 55.0308 220.706 54.2495L222.874 52.6061C223.756 52.1297 223.182 52.5203 223.535 52.6536L223.558 52.7631Z" fill="black"/>
<path fill-rule="evenodd" clip-rule="evenodd" d="M102.643 161.665L97.9532 163.2C97.974 161.689 98.327 161.823 99.7235 161.203C101.429 160.498 101.737 160.412 102.643 161.665Z" fill="black"/>
<path fill-rule="evenodd" clip-rule="evenodd" d="M108.584 332.485C108.937 332.618 109.003 331.328 109.445 333.518L109.669 337.851C109.207 338.79 109.405 338.156 109.207 338.79C108.302 337.537 108.188 333.752 108.607 332.594L108.584 332.485Z" fill="black"/>
<path fill-rule="evenodd" clip-rule="evenodd" d="M112.277 215.784C112.609 217.426 111.169 219.446 110.067 220.446C108.743 218.732 111.086 216.346 112.277 215.784Z" fill="black"/>
<path fill-rule="evenodd" clip-rule="evenodd" d="M107.7 317.346C106.856 319.085 107.436 317.651 102.805 318.938C102.716 318.5 101.679 318.209 104.973 317.294C105.281 317.208 106.105 316.98 106.458 317.113C109.178 316.589 107.384 316.856 107.678 317.237L107.7 317.346Z" fill="black"/>
<path fill-rule="evenodd" clip-rule="evenodd" d="M80.9251 135.427C82.4933 138.346 81.7209 137.751 81.1477 138.142C80.7504 137.789 80.8389 138.227 80.6397 137.242L80.0874 136.123L77.8755 137.547C78.0944 135.404 79.2265 135.089 80.8222 135.456L80.9251 135.427Z" fill="black"/>
<path fill-rule="evenodd" clip-rule="evenodd" d="M163.719 292.295C162.742 293.377 160.934 294.111 159.493 294.511C159.823 292.915 160.911 292.381 162.66 291.895C164.101 291.495 163.675 292.076 163.741 292.405L163.719 292.295Z" fill="black"/>
<path fill-rule="evenodd" clip-rule="evenodd" d="M165.954 242.048C166.969 242.229 166.571 241.876 167.285 242.719C167.838 243.838 167.485 243.705 167.684 244.691L165.052 245.653C165.338 243.839 164.523 246.263 165.206 244.801C165.889 243.338 166.132 244.543 165.851 242.077L165.954 242.048Z" fill="black"/>
<path fill-rule="evenodd" clip-rule="evenodd" d="M262.167 174.943C262.675 175.843 261.903 175.248 263.028 175.976C263.425 176.329 263.028 175.976 263.8 176.571C264.882 177.081 264.462 176.619 265.176 177.462C263.338 177.51 263.536 176.876 261.749 176.1C260.418 175.429 260.153 175.734 258.851 174.13L262.167 174.943Z" fill="black"/>
<path fill-rule="evenodd" clip-rule="evenodd" d="M90.7838 172.363C89.3431 172.763 90.5194 172.668 88.8794 172.082C86.9307 171.583 87.9975 172.559 87.1066 170.84C88.3923 169.673 90.496 170.939 90.7838 172.363Z" fill="black"/>
<path fill-rule="evenodd" clip-rule="evenodd" d="M269.713 180.019C271.198 179.837 271.971 180.432 273.236 180.775C276.619 181.917 274.941 180.07 276.31 182.003C274.825 182.184 270.574 181.052 269.713 180.019Z" fill="black"/>
<path fill-rule="evenodd" clip-rule="evenodd" d="M181.715 338.305C180.989 339.549 178.857 340.835 176.975 340.664C178.018 339.911 178.018 339.911 179.451 338.934C180.804 338.096 180.134 337.472 181.818 338.277L181.715 338.305Z" fill="black"/>
<path fill-rule="evenodd" clip-rule="evenodd" d="M111.126 307.95C112.566 307.549 112.052 307.692 112.655 307.987C111.678 309.069 109.4 310.164 108.076 310.069C108.494 308.912 109.891 308.293 111.023 307.978L111.126 307.95Z" fill="black"/>
<path fill-rule="evenodd" clip-rule="evenodd" d="M209.019 157.208C209.904 161.589 209.043 160.556 210.302 161.941C211.118 162.756 211.832 163.598 211.561 164.946C211.164 164.594 210.7 163.913 210.192 163.013C209.287 161.761 208.425 159.108 209.019 157.208Z" fill="black"/>
<path fill-rule="evenodd" clip-rule="evenodd" d="M71.9178 143.02L72.8883 142.981C73.2413 143.115 73.197 142.895 73.6608 143.577L73.8601 144.563C71.8462 145.354 71.8019 145.135 71.1609 143.577C71.1609 143.577 71.7341 143.186 72.0428 143.1L71.9178 143.02Z" fill="black"/>
<path fill-rule="evenodd" clip-rule="evenodd" d="M341.656 269.223C342.737 269.733 341.921 268.918 342.737 269.733C343.245 270.632 343.071 272.995 342.895 273.737C341.769 273.009 341.988 270.866 341.656 269.223Z" fill="black"/>
<path fill-rule="evenodd" clip-rule="evenodd" d="M350.248 314.956C348.719 314.918 348.873 314.066 348.519 312.313C350.357 312.265 350.909 313.384 350.248 314.956Z" fill="black"/>
<path fill-rule="evenodd" clip-rule="evenodd" d="M357.016 298.966C355.222 299.233 355.53 299.147 354.779 297.042C356.617 296.994 356.617 296.994 357.016 298.966Z" fill="black"/>
<path fill-rule="evenodd" clip-rule="evenodd" d="M206.477 141.951C207.338 142.984 207.009 144.58 206.076 145.88C205.832 144.675 205.654 142.18 206.477 141.951Z" fill="black"/>
<path fill-rule="evenodd" clip-rule="evenodd" d="M216.728 308.798C216.354 310.174 214.958 312.412 213.651 313.47C213.716 312.179 215.949 309.245 216.728 308.798Z" fill="black"/>
<path fill-rule="evenodd" clip-rule="evenodd" d="M86.6419 170.162C85.4213 170.038 85.0461 169.795 84.7139 168.152C86.1547 167.751 86.9715 168.566 86.6419 170.162Z" fill="black"/>
<path fill-rule="evenodd" clip-rule="evenodd" d="M269.713 180.019C267.764 179.519 266.638 178.791 265.174 177.462C266.461 177.915 266.506 178.134 267.873 178.448C269.16 178.9 268.888 178.628 269.713 180.019Z" fill="black"/>
<path fill-rule="evenodd" clip-rule="evenodd" d="M105.239 311.09C103.688 312.562 103.027 312.515 102.048 311.977C102.622 311.586 102.577 311.367 103.709 311.053C106.032 310.176 104.886 310.957 105.239 311.09Z" fill="black"/>
<path fill-rule="evenodd" clip-rule="evenodd" d="M274.741 179.083C276.028 179.535 277.969 179.458 278.463 180.825C277.242 180.701 275.235 180.449 274.741 179.083Z" fill="black"/>
<path fill-rule="evenodd" clip-rule="evenodd" d="M66.0535 166.165C65.6796 167.541 64.9006 167.989 63.5771 167.894C64.3039 166.651 64.6192 165.522 66.0535 166.165Z" fill="black"/>
<path fill-rule="evenodd" clip-rule="evenodd" d="M168.67 238.285C168.758 238.723 169.067 238.638 169.222 239.404C169.709 241.814 169.377 240.171 169.201 240.914C169.157 240.695 168.364 241.609 167.943 239.528C167.788 238.762 167.788 238.762 168.67 238.285Z" fill="black"/>
<path fill-rule="evenodd" clip-rule="evenodd" d="M95.4246 174.89C96.756 175.562 97.1976 176.134 96.5293 177.129C95.8233 176.863 95.9561 177.52 95.4481 176.62C94.8071 175.062 95.4246 174.89 95.4246 174.89Z" fill="black"/>
<path fill-rule="evenodd" clip-rule="evenodd" d="M203.133 113.034C204.464 113.706 204.238 115.272 203.158 116.382C202.826 114.739 202.759 114.411 203.133 113.034Z" fill="black"/>
<path fill-rule="evenodd" clip-rule="evenodd" d="M170.373 214.447C168.887 214.629 168.27 214.8 167.409 213.767C169.423 212.976 169.467 213.195 170.373 214.447Z" fill="black"/>
<path fill-rule="evenodd" clip-rule="evenodd" d="M216.193 183.554L218.32 186.549C217.099 186.426 216.238 185.393 216.127 184.845C215.376 182.74 216.039 184.407 216.193 183.554Z" fill="black"/>
<path fill-rule="evenodd" clip-rule="evenodd" d="M132.282 205.598C132.128 206.451 133.363 206.108 131.555 206.842C130.114 207.242 131.246 206.928 130.474 206.332C131.825 203.874 132.179 205.627 132.179 205.627L132.282 205.598Z" fill="black"/>
<path fill-rule="evenodd" clip-rule="evenodd" d="M74.1081 133.967C74.3959 135.39 74.3074 134.952 73.2639 135.705L71.8884 134.815L74.2111 133.938L74.1081 133.967Z" fill="black"/>
<path fill-rule="evenodd" clip-rule="evenodd" d="M147.712 251.283C146.535 251.378 146.116 250.916 145.564 249.797C146.74 249.701 147.402 249.749 147.712 251.283Z" fill="black"/>
<path fill-rule="evenodd" clip-rule="evenodd" d="M100.053 179.504C98.9208 179.819 98.9208 179.819 98.3242 178.481C100.118 178.214 100.029 177.776 100.053 179.504Z" fill="black"/>
<path fill-rule="evenodd" clip-rule="evenodd" d="M208.029 151.236L206.461 148.317C208.101 148.902 208.145 149.122 208.029 151.236Z" fill="black"/>
<path fill-rule="evenodd" clip-rule="evenodd" d="M122.945 205.648C122.636 205.734 123.717 206.243 122.018 205.905C121.357 205.858 121.665 205.772 121.246 205.31C122.017 204.285 122.443 203.704 122.842 205.676L122.945 205.648Z" fill="black"/>
<path fill-rule="evenodd" clip-rule="evenodd" d="M284.078 168.277C285.718 168.862 284.696 168.106 286.116 169.215C286.822 169.481 286.513 169.567 287.285 170.162C286.065 170.039 284.939 169.31 284.078 168.277Z" fill="black"/>
<path fill-rule="evenodd" clip-rule="evenodd" d="M100.962 176.476C101.49 175.866 100.189 175.881 101.49 175.866C102.461 175.828 101.755 175.561 102.572 176.376C101.889 177.838 101.286 177.543 101.087 176.557L100.962 176.476Z" fill="black"/>
<path fill-rule="evenodd" clip-rule="evenodd" d="M128.411 198.809C127.369 201.181 126.706 199.514 126.661 199.295C126.926 198.99 125.955 199.028 127.543 198.818C128.984 198.418 127.499 198.599 128.514 198.78L128.411 198.809Z" fill="black"/>
<path fill-rule="evenodd" clip-rule="evenodd" d="M97.1073 164.938C97.4395 166.582 97.2623 165.705 96.822 166.753C95.5349 166.301 95.6079 165.586 97.1073 164.938Z" fill="black"/>
<path fill-rule="evenodd" clip-rule="evenodd" d="M70.9083 386.447C71.8137 387.699 71.7251 387.261 70.9982 388.505C70.5345 387.823 70.4694 389.114 70.4902 387.604C70.511 386.094 70.9526 386.666 70.9083 386.447Z" fill="black"/>
<path fill-rule="evenodd" clip-rule="evenodd" d="M115.197 306.587C113.78 308.716 113.801 307.207 113.448 307.073C114.285 306.378 113.05 306.721 114.33 306.597C115.256 306.34 114.638 306.511 115.3 306.559L115.197 306.587Z" fill="black"/>
<path fill-rule="evenodd" clip-rule="evenodd" d="M123.585 207.205C124.447 208.239 124.291 207.472 123.918 208.849C123.145 208.253 123.499 210.006 123.101 208.034C123.122 206.524 123.057 207.815 123.563 207.096L123.585 207.205Z" fill="black"/>
<path fill-rule="evenodd" clip-rule="evenodd" d="M109.157 220.236C109.091 221.527 109.4 221.441 107.804 221.075C108.576 220.051 108.267 220.137 109.157 220.236Z" fill="black"/>
<path fill-rule="evenodd" clip-rule="evenodd" d="M80.1761 165.595C80.0223 166.448 81.0814 166.848 79.7136 166.534C79.3606 166.4 78.1179 166.167 80.1761 165.595Z" fill="black"/>
<path fill-rule="evenodd" clip-rule="evenodd" d="M112.215 338.07C112.215 338.07 113.097 337.593 112.304 338.508C111.775 339.118 112.039 338.813 111.422 338.984C111.531 337.913 111.223 337.999 112.193 337.96L112.215 338.07Z" fill="black"/>
<path fill-rule="evenodd" clip-rule="evenodd" d="M168.628 219.791C167.407 219.668 168.363 220.096 167.502 219.063C168.723 219.186 168.34 218.367 168.628 219.791Z" fill="black"/>
<path fill-rule="evenodd" clip-rule="evenodd" d="M307.505 287.39C308.88 288.28 307.878 286.013 308.277 287.985C308.168 289.057 308.277 287.985 307.815 288.924L307.527 287.499L307.505 287.39Z" fill="black"/>
<path fill-rule="evenodd" clip-rule="evenodd" d="M362.439 275.248C363.571 274.933 363.365 274.991 362.947 276.148L362.439 275.248Z" fill="black"/>
<path fill-rule="evenodd" clip-rule="evenodd" d="M77.477 135.576C76.5064 135.614 76.8595 135.747 76.3956 135.065C77.5721 134.97 77.0131 134.894 77.477 135.576Z" fill="black"/>
<path fill-rule="evenodd" clip-rule="evenodd" d="M115.223 241.109C114.849 242.485 115.466 242.314 114.385 241.805L115.223 241.109Z" fill="black"/>
<path fill-rule="evenodd" clip-rule="evenodd" d="M57.4201 155.722C58.3465 155.465 57.7733 155.856 57.7733 155.856C57.8176 156.076 57.5089 156.161 57.5089 156.161C57.2001 156.247 56.4938 155.98 57.4201 155.722Z" fill="black"/>
<path fill-rule="evenodd" clip-rule="evenodd" d="M117.17 239.99C117.279 238.917 116.464 239.723 117.632 239.051C117.876 240.257 117.986 239.184 117.17 239.99Z" fill="black"/>
<path fill-rule="evenodd" clip-rule="evenodd" d="M341.013 262.81L341.565 263.929C340.439 263.201 340.639 264.186 341.013 262.81Z" fill="black"/>
<path fill-rule="evenodd" clip-rule="evenodd" d="M202.132 83.3536C202.376 84.5583 202.53 83.7059 201.714 84.5109C201.934 83.987 201.824 83.4394 202.132 83.3536Z" fill="black"/>
<path fill-rule="evenodd" clip-rule="evenodd" d="M270.448 177.733L269.227 177.609C269.491 177.304 268.521 177.342 269.845 177.437C270.815 177.399 270.153 177.352 270.551 177.704L270.448 177.733Z" fill="black"/>
<path fill-rule="evenodd" clip-rule="evenodd" d="M270.447 177.732C271.976 177.77 271.462 177.913 271.778 178.403L270.447 177.732Z" fill="black"/>
<path fill-rule="evenodd" clip-rule="evenodd" d="M172.302 218.075C172.502 219.06 172.7 218.427 171.884 219.232L172.302 218.075Z" fill="black"/>
<path fill-rule="evenodd" clip-rule="evenodd" d="M79.9308 191.806C79.996 190.515 79.5335 191.454 80.6578 190.563C80.3933 190.868 80.1289 191.173 79.9308 191.806Z" fill="black"/>
<path fill-rule="evenodd" clip-rule="evenodd" d="M77.6734 142.46L77.211 143.399C76.9229 141.974 76.8579 143.266 77.6734 142.46Z" fill="black"/>
<path fill-rule="evenodd" clip-rule="evenodd" d="M266.769 176.21C268.056 176.662 267.431 176.257 267.895 176.938L266.769 176.21Z" fill="black"/>
<path fill-rule="evenodd" clip-rule="evenodd" d="M282.35 167.254C283.431 167.763 282.658 167.168 283.519 168.201L282.35 167.254Z" fill="black"/>
<path fill-rule="evenodd" clip-rule="evenodd" d="M147.16 270.058L146.697 270.997C146.762 269.706 146.653 270.778 147.16 270.058Z" fill="black"/>
<path fill-rule="evenodd" clip-rule="evenodd" d="M162.722 226.058C161.436 227.226 162.811 226.497 161.436 227.226L162.722 226.058Z" fill="black"/>
</svg>
