<svg width="50" height="50" viewBox="0 0 50 50" fill="none" xmlns="http://www.w3.org/2000/svg">
<circle cx="25" cy="25" r="25" fill="#CEF0FF"/>
<path fill-rule="evenodd" clip-rule="evenodd" d="M25.0121 13.1183C24.7368 13.5782 24.7841 14.1622 25.13 14.5717C26.6239 16.3407 27.5233 18.6244 27.5233 21.1214C27.5233 26.7315 22.9754 31.2793 17.3654 31.2793C16.6363 31.2793 15.9266 31.2027 15.2432 31.0576C14.7189 30.9462 14.1818 31.1803 13.9065 31.6402C13.6312 32.1001 13.6786 32.6841 14.0244 33.0935C16.3459 35.8425 19.822 37.5917 23.7054 37.5917C30.7008 37.5917 36.3716 31.9208 36.3716 24.9254C36.3716 18.8355 32.075 13.752 26.3487 12.5357C25.8244 12.4243 25.2873 12.6584 25.0121 13.1183ZM29.0839 16.3063C31.9542 18.1015 33.8633 21.2913 33.8633 24.9254C33.8633 30.5355 29.3155 35.0833 23.7054 35.0833C21.8557 35.0833 20.1218 34.5895 18.6279 33.7255C25.0305 33.0919 30.0316 27.6907 30.0316 21.1214C30.0316 19.4174 29.6946 17.7911 29.0839 16.3063Z" fill="white"/>
</svg>
