<svg width="31" height="31" viewBox="0 0 31 31" fill="none" xmlns="http://www.w3.org/2000/svg">
<path fill-rule="evenodd" clip-rule="evenodd" d="M5.09414 13.7954H10.0646C10.2254 10.6101 10.9952 7.65994 12.233 5.41726C8.45109 6.52127 5.59334 9.79212 5.09414 13.7954ZM15.0496 5.6498C13.7535 7.42907 12.7695 10.3238 12.576 13.7954H17.5231C17.3296 10.3238 16.3457 7.42907 15.0496 5.6498ZM17.5231 16.3037H12.576C12.7695 19.7753 13.7535 22.67 15.0496 24.4493C16.3457 22.67 17.3296 19.7753 17.5231 16.3037ZM12.233 24.6819C10.9952 22.4392 10.2254 19.489 10.0646 16.3037H5.09414C5.59334 20.307 8.45109 23.5778 12.233 24.6819ZM17.8661 24.6819C19.1039 22.4392 19.8737 19.489 20.0345 16.3037H25.005C24.5058 20.307 21.648 23.5778 17.8661 24.6819ZM25.005 13.7954H20.0345C19.8737 10.6101 19.1039 7.65994 17.8661 5.41726C21.648 6.52127 24.5058 9.79212 25.005 13.7954ZM2.50826 15.0496C2.50826 8.12319 8.12319 2.50826 15.0496 2.50826C21.9759 2.50826 27.5909 8.12319 27.5909 15.0496C27.5909 21.9759 21.9759 27.5909 15.0496 27.5909C8.12319 27.5909 2.50826 21.9759 2.50826 15.0496Z" fill="black"/>
</svg>
