<svg width="31" height="31" viewBox="0 0 31 31" fill="none" xmlns="http://www.w3.org/2000/svg">
<path fill-rule="evenodd" clip-rule="evenodd" d="M13.5948 5.12107L13.2625 6.50023C12.7582 8.59317 10.6039 9.83699 8.53918 9.22725L7.17969 8.82577C6.5787 9.58454 6.08551 10.4317 5.72267 11.3441L6.75211 12.3226C8.3125 13.8057 8.3125 16.2934 6.75211 17.7766L5.72267 18.7551C6.08551 19.6675 6.5787 20.5146 7.17969 21.2734L8.53918 20.8719C10.6039 20.2621 12.7582 21.506 13.2625 23.5989L13.5948 24.9781C14.0692 25.0469 14.5549 25.0826 15.0496 25.0826C15.5442 25.0826 16.0299 25.0469 16.5044 24.9781L16.8367 23.5989C17.3409 21.506 19.4953 20.2621 21.56 20.8719L22.9195 21.2734C23.5205 20.5146 24.0137 19.6675 24.3765 18.7551L23.3471 17.7766C21.7867 16.2934 21.7867 13.8057 23.3471 12.3226L24.3765 11.3441C24.0137 10.4317 23.5205 9.58454 22.9195 8.82576L21.56 9.22725C19.4953 9.837 17.3409 8.59317 16.8367 6.50023L16.5044 5.12107C16.0299 5.05223 15.5442 5.01653 15.0496 5.01653C14.5549 5.01653 14.0692 5.05223 13.5948 5.12107ZM12.2914 2.81283C13.18 2.6133 14.1033 2.50827 15.0496 2.50827C15.9959 2.50827 16.9191 2.6133 17.8078 2.81283C18.2741 2.91753 18.6403 3.27812 18.7523 3.74272L19.2751 5.91269C19.4432 6.61034 20.1614 7.02495 20.8496 6.8217L22.9877 6.19027C23.4455 6.05508 23.9403 6.19146 24.2642 6.5421C25.5114 7.89237 26.4665 9.51881 27.0269 11.3209C27.1687 11.7767 27.0394 12.2735 26.6934 12.6024L25.0751 14.1406C24.555 14.635 24.555 15.4642 25.0751 15.9586L26.6934 17.4968C27.0394 17.8257 27.1687 18.3224 27.0269 18.7782C26.4665 20.5803 25.5114 22.2068 24.2642 23.5571C23.9403 23.9077 23.4455 24.0441 22.9877 23.9089L20.8496 23.2774C20.1614 23.0742 19.4432 23.4888 19.2751 24.1865L18.7523 26.3564C18.6404 26.821 18.2741 27.1816 17.8078 27.2863C16.9191 27.4858 15.9959 27.5909 15.0496 27.5909C14.1033 27.5909 13.18 27.4858 12.2914 27.2863C11.8251 27.1816 11.4588 26.821 11.3469 26.3564L10.824 24.1865C10.6559 23.4888 9.93782 23.0742 9.24959 23.2774L7.11148 23.9089C6.65371 24.0441 6.15888 23.9077 5.83501 23.5571C4.5878 22.2068 3.63271 20.5803 3.07224 18.7782C2.93048 18.3224 3.05977 17.8257 3.40576 17.4968L5.02404 15.9586C5.54417 15.4642 5.54417 14.635 5.02404 14.1406L3.40576 12.6024C3.05977 12.2735 2.93048 11.7767 3.07224 11.3209C3.63271 9.51882 4.58779 7.89237 5.83501 6.5421C6.15888 6.19146 6.65371 6.05508 7.11148 6.19027L9.24959 6.8217C9.93782 7.02495 10.6559 6.61034 10.824 5.91269L11.3469 3.74272C11.4588 3.27813 11.8251 2.91753 12.2914 2.81283ZM15.0496 12.5413C13.6643 12.5413 12.5413 13.6643 12.5413 15.0496C12.5413 16.4348 13.6643 17.5578 15.0496 17.5578C16.4349 17.5578 17.5578 16.4348 17.5578 15.0496C17.5578 13.6643 16.4349 12.5413 15.0496 12.5413ZM10.0331 15.0496C10.0331 12.279 12.279 10.0331 15.0496 10.0331C17.8201 10.0331 20.0661 12.279 20.0661 15.0496C20.0661 17.8201 17.8201 20.0661 15.0496 20.0661C12.279 20.0661 10.0331 17.8201 10.0331 15.0496Z" fill="black"/>
</svg>
