<svg width="2080" height="2080" viewBox="0 0 2080 2080" fill="none" xmlns="http://www.w3.org/2000/svg">
<path d="M1964.31 2031.49L1974.93 2025.24C1976.98 2028.77 1978.85 2031.76 1983.32 2031.76C1987.61 2031.76 1990.32 2030.13 1990.32 2023.79L2003.37 1980.63V2023.97C2003.37 2037.11 1995.45 2043.1 1983.88 2043.1C1973.44 2043.1 1967.38 2037.84 1964.31 2031.49Z" fill="white"/>
<path d="M1997.23 1979.21C2000.83 1979.21 2003.74 1976.43 2003.74 1973.01C2003.74 1969.58 2000.83 1966.81 1997.23 1966.81C1993.64 1966.81 1990.72 1969.58 1990.72 1973.01C1990.72 1976.43 1993.64 1979.21 1997.23 1979.21Z" fill="white"/>
<path d="M2045.69 1991.34L2035.06 1997.59C2033.01 1994.06 2031.14 1991.07 2026.67 1991.07C2022.38 1991.07 2019.67 1992.7 2019.67 1999.04L2006.62 2042.2V1998.86C2006.62 1985.72 2014.55 1979.73 2026.11 1979.73C2036.55 1979.73 2042.61 1984.99 2045.69 1991.34" fill="white"/>
<g filter="url(#filter0_d_11_4)">
<circle cx="1040.59" cy="1033.18" r="467.219" fill="#252525"/>
<g filter="url(#filter1_i_11_4)">
<path d="M1536.92 1088.89C1509.06 1338.98 1296.95 1533.44 1039.43 1533.44C781.8 1533.44 569.624 1338.8 541.905 1088.56C540.63 1077.05 549.829 1067.23 561.411 1067.23L1517.43 1067.55C1529.01 1067.55 1538.2 1077.38 1536.92 1088.89Z" fill="#F8F8F8"/>
</g>
<path d="M1039.43 1523.44C1291.8 1523.44 1499.68 1332.87 1526.98 1087.78C1527.57 1082.48 1523.33 1077.55 1517.43 1077.55L561.407 1077.23C555.502 1077.23 551.256 1082.15 551.844 1087.46C579.008 1332.69 786.954 1523.44 1039.43 1523.44Z" stroke="#252525" stroke-width="20"/>
<g filter="url(#filter2_i_11_4)">
<path d="M1538.08 978.472C1510.22 728.382 1298.12 533.924 1040.59 533.924C782.962 533.924 570.786 728.563 543.066 978.804C541.791 990.315 550.991 1000.14 562.572 1000.13L1518.59 999.815C1530.17 999.811 1539.36 989.982 1538.08 978.472Z" fill="#2E6A6D"/>
</g>
<path d="M1040.59 543.924C1292.97 543.924 1500.84 734.496 1528.14 979.58C1528.74 984.888 1524.49 989.813 1518.59 989.815L562.569 990.135C556.664 990.137 552.418 985.213 553.006 979.905C580.17 734.673 788.116 543.924 1040.59 543.924Z" stroke="#252525" stroke-width="20"/>
<path d="M939.062 1182.11C939.062 1182.11 881.396 1282.72 828.259 1323.93C795.054 1349.67 741.428 1364.85 700.356 1373.42C700.356 1373.42 684.804 1359.19 675.949 1349.04C666.92 1338.69 654.743 1320.97 654.743 1320.97C665.557 1277.31 684.293 1220.51 716.095 1182.11C759.483 1129.73 805.824 1103.46 868.759 1086.46L939.062 1182.11Z" fill="#719B39"/>
<path d="M1139.98 1182.11C1139.98 1182.11 1197.65 1282.72 1250.78 1323.93C1283.99 1349.67 1337.53 1364.77 1378.6 1373.34C1378.6 1373.34 1394.25 1359.2 1403.09 1349.04C1411.99 1338.82 1423.89 1321.27 1423.89 1321.27C1413.08 1277.61 1394.75 1220.51 1362.95 1182.11C1319.56 1129.73 1273.22 1103.46 1210.28 1086.46L1139.98 1182.11Z" fill="#719B39"/>
<path d="M1423.89 1321.27C1413.08 1277.61 1394.75 1220.51 1362.95 1182.11C1359.8 1178.31 1356.63 1174.65 1353.45 1171.11C1353.45 1171.11 1332.31 1224.39 1312.55 1255.03C1293.02 1285.32 1253.75 1326.16 1253.75 1326.16C1287.12 1350.55 1338.73 1365.02 1378.6 1373.34C1378.6 1373.34 1394.25 1359.2 1403.09 1349.04C1411.99 1338.82 1423.89 1321.27 1423.89 1321.27Z" fill="black" fill-opacity="0.25"/>
<path d="M1378.32 692.577C1280.05 760.268 1235.46 801.874 1158.38 891.924L1207.32 975.827C1338 960.146 1396.96 947.356 1505.72 913.134C1505.72 913.134 1492.12 851.404 1452.89 787.411C1413.66 723.417 1378.32 692.577 1378.32 692.577Z" fill="#719B39"/>
<path d="M1452.79 787.262C1411.64 718.784 1378.32 692.573 1378.32 692.573C1353.44 709.71 1332.02 725.168 1312.62 740.171C1312.62 740.171 1338.35 775.657 1350.44 804.451C1371.64 854.955 1387.21 946.467 1387.21 946.467C1423.73 937.928 1460.77 927.276 1505.73 913.132C1505.73 913.132 1493.94 855.741 1452.79 787.262Z" fill="black" fill-opacity="0.25"/>
<path d="M703.468 691.922C801.734 759.613 846.707 801.874 923.787 891.924L874.843 975.827C744.165 960.146 684.167 947.557 575.406 913.335C575.406 913.335 587.877 856.144 627.83 788.208C667.782 720.272 703.468 691.922 703.468 691.922Z" fill="#719B39"/>
<path d="M1142.07 811.734C1138.61 817.054 1131.87 822.7 1124.93 826.346C1121.48 828.159 1118.11 829.407 1115.2 829.901C1112.25 830.405 1110.13 830.072 1108.81 829.214C1107.49 828.356 1106.33 826.553 1105.6 823.643C1104.88 820.784 1104.66 817.197 1104.92 813.308C1105.46 805.488 1107.9 797.047 1111.37 791.727C1118.38 780.97 1130.83 777.62 1138.97 782.924C1147.11 788.228 1149.08 800.977 1142.07 811.734Z" fill="#9B413C" stroke="#252525" stroke-width="5"/>
<path d="M937.929 811.734C941.395 817.054 948.129 822.7 955.068 826.345C958.519 828.158 961.889 829.407 964.796 829.901C967.754 830.405 969.872 830.072 971.189 829.214C972.506 828.355 973.666 826.553 974.4 823.642C975.122 820.784 975.341 817.196 975.076 813.308C974.544 805.487 972.099 797.047 968.632 791.727C961.623 780.97 949.166 777.62 941.026 782.924C932.886 788.228 930.919 800.977 937.929 811.734Z" fill="#9B413C" stroke="#252525" stroke-width="5"/>
<circle cx="1040.59" cy="1033.18" r="183.55" fill="#252525"/>
<circle cx="1040.59" cy="1033.18" r="116.805" fill="#F8F8F8"/>
<g filter="url(#filter3_d_11_4)">
<circle cx="1040.59" cy="1033.18" r="83.432" fill="#F8F8F8"/>
<circle cx="1040.59" cy="1033.18" r="73.432" stroke="#252525" stroke-width="20"/>
</g>
</g>
<path d="M721.305 802.424C721.305 802.424 825.98 717.186 881.401 653.863C893.962 639.512 907.892 627.223 912.597 616.456C921.155 596.872 871.136 612.921 849.175 621.748C766.165 655.112 684.209 726.875 660.227 804.174C653.684 825.26 654.963 843.433 671.764 842.031C683.262 841.072 721.305 802.424 721.305 802.424Z" fill="white" fill-opacity="0.8"/>
<path d="M618.588 875.596C614.999 886.595 615.573 900.872 626.685 904.093C637.633 907.266 648.886 885.145 648.886 885.145C648.886 885.145 658.364 861.022 648.128 856.455C640.358 852.988 622.965 862.186 618.588 875.596Z" fill="white" fill-opacity="0.8"/>
<path d="M601.035 927.803C601.28 932.52 602.484 936.341 606.687 938.495C613.826 942.154 620.223 930.821 619.942 922.804C619.791 918.511 619.115 915.193 615.627 912.686C608.964 907.897 600.608 919.609 601.035 927.803Z" fill="white" fill-opacity="0.8"/>
<defs>
<filter id="filter0_d_11_4" x="541.786" y="533.924" width="1021.42" height="1049.52" filterUnits="userSpaceOnUse" color-interpolation-filters="sRGB">
<feFlood flood-opacity="0" result="BackgroundImageFix"/>
<feColorMatrix in="SourceAlpha" type="matrix" values="0 0 0 0 0 0 0 0 0 0 0 0 0 0 0 0 0 0 127 0" result="hardAlpha"/>
<feOffset dx="25" dy="50"/>
<feColorMatrix type="matrix" values="0 0 0 0 0 0 0 0 0 0 0 0 0 0 0 0 0 0 0.25 0"/>
<feBlend mode="normal" in2="BackgroundImageFix" result="effect1_dropShadow_11_4"/>
<feBlend mode="normal" in="SourceGraphic" in2="effect1_dropShadow_11_4" result="shape"/>
</filter>
<filter id="filter1_i_11_4" x="541.786" y="1067.23" width="995.254" height="466.211" filterUnits="userSpaceOnUse" color-interpolation-filters="sRGB">
<feFlood flood-opacity="0" result="BackgroundImageFix"/>
<feBlend mode="normal" in="SourceGraphic" in2="BackgroundImageFix" result="shape"/>
<feColorMatrix in="SourceAlpha" type="matrix" values="0 0 0 0 0 0 0 0 0 0 0 0 0 0 0 0 0 0 127 0" result="hardAlpha"/>
<feOffset dx="-150" dy="-50"/>
<feComposite in2="hardAlpha" operator="arithmetic" k2="-1" k3="1"/>
<feColorMatrix type="matrix" values="0 0 0 0 0 0 0 0 0 0 0 0 0 0 0 0 0 0 0.25 0"/>
<feBlend mode="normal" in2="shape" result="effect1_innerShadow_11_4"/>
</filter>
<filter id="filter2_i_11_4" x="542.948" y="533.924" width="995.254" height="466.211" filterUnits="userSpaceOnUse" color-interpolation-filters="sRGB">
<feFlood flood-opacity="0" result="BackgroundImageFix"/>
<feBlend mode="normal" in="SourceGraphic" in2="BackgroundImageFix" result="shape"/>
<feColorMatrix in="SourceAlpha" type="matrix" values="0 0 0 0 0 0 0 0 0 0 0 0 0 0 0 0 0 0 127 0" result="hardAlpha"/>
<feOffset dx="-150" dy="-25"/>
<feComposite in2="hardAlpha" operator="arithmetic" k2="-1" k3="1"/>
<feColorMatrix type="matrix" values="0 0 0 0 0 0 0 0 0 0 0 0 0 0 0 0 0 0 0.25 0"/>
<feBlend mode="normal" in2="shape" result="effect1_innerShadow_11_4"/>
</filter>
<filter id="filter3_d_11_4" x="957.16" y="949.751" width="176.864" height="176.864" filterUnits="userSpaceOnUse" color-interpolation-filters="sRGB">
<feFlood flood-opacity="0" result="BackgroundImageFix"/>
<feColorMatrix in="SourceAlpha" type="matrix" values="0 0 0 0 0 0 0 0 0 0 0 0 0 0 0 0 0 0 127 0" result="hardAlpha"/>
<feOffset dx="10" dy="10"/>
<feColorMatrix type="matrix" values="0 0 0 0 0 0 0 0 0 0 0 0 0 0 0 0 0 0 0.25 0"/>
<feBlend mode="normal" in2="BackgroundImageFix" result="effect1_dropShadow_11_4"/>
<feBlend mode="normal" in="SourceGraphic" in2="effect1_dropShadow_11_4" result="shape"/>
</filter>
</defs>
</svg>
