<svg width="2080" height="2080" viewBox="0 0 2080 2080" fill="none" xmlns="http://www.w3.org/2000/svg">
<path d="M1964.31 2031.49L1974.93 2025.24C1976.98 2028.77 1978.85 2031.76 1983.32 2031.76C1987.61 2031.76 1990.32 2030.13 1990.32 2023.79L2003.37 1980.63V2023.97C2003.37 2037.11 1995.45 2043.1 1983.88 2043.1C1973.44 2043.1 1967.38 2037.84 1964.31 2031.49Z" fill="#252525"/>
<path d="M1997.23 1979.21C2000.83 1979.21 2003.74 1976.43 2003.74 1973.01C2003.74 1969.58 2000.83 1966.81 1997.23 1966.81C1993.64 1966.81 1990.72 1969.58 1990.72 1973.01C1990.72 1976.43 1993.64 1979.21 1997.23 1979.21Z" fill="#252525"/>
<path d="M2045.69 1991.34L2035.06 1997.59C2033.01 1994.06 2031.14 1991.07 2026.67 1991.07C2022.38 1991.07 2019.67 1992.7 2019.67 1999.04L2006.62 2042.2V1998.86C2006.62 1985.72 2014.55 1979.73 2026.11 1979.73C2036.55 1979.73 2042.61 1984.99 2045.69 1991.34" fill="#252525"/>
<g filter="url(#filter0_d_7_83)">
<circle cx="1040.59" cy="1039.26" r="467.219" fill="#252525"/>
<g filter="url(#filter1_i_7_83)">
<path d="M1536.92 1094.97C1509.06 1345.06 1296.95 1539.52 1039.43 1539.52C781.8 1539.52 569.624 1344.88 541.904 1094.64C540.629 1083.12 549.829 1073.3 561.41 1073.3L1517.43 1073.62C1529.01 1073.63 1538.2 1083.46 1536.92 1094.97Z" fill="#F8F8F8"/>
</g>
<path d="M1039.43 1529.52C1291.8 1529.52 1499.68 1338.94 1526.98 1093.86C1527.57 1088.55 1523.33 1083.63 1517.43 1083.62L561.407 1083.3C555.502 1083.3 551.256 1088.23 551.844 1093.53C579.008 1338.77 786.954 1529.52 1039.43 1529.52Z" stroke="#252525" stroke-width="20"/>
<g filter="url(#filter2_i_7_83)">
<path d="M1538.08 984.549C1510.22 734.459 1298.12 540 1040.59 540C782.962 540 570.785 734.64 543.066 984.88C541.791 996.391 550.991 1006.21 562.572 1006.21L1518.59 1005.89C1530.17 1005.89 1539.36 996.059 1538.08 984.549Z" fill="#60CF6B"/>
</g>
<path d="M1040.59 550C1292.97 550 1500.84 740.572 1528.14 985.656C1528.74 990.964 1524.49 995.89 1518.59 995.892L562.569 996.211C556.664 996.213 552.417 991.29 553.005 985.981C580.17 740.75 788.115 550 1040.59 550Z" stroke="#252525" stroke-width="20"/>
<circle cx="1040.59" cy="1039.26" r="183.55" fill="#252525"/>
<circle cx="1040.59" cy="1039.26" r="116.805" fill="#F8F8F8"/>
<g filter="url(#filter3_d_7_83)">
<circle cx="1040.59" cy="1039.26" r="83.432" fill="#F8F8F8"/>
<circle cx="1040.59" cy="1039.26" r="73.432" stroke="#252525" stroke-width="20"/>
</g>
<path d="M721.545 798.645C721.545 798.645 826.22 713.407 881.641 650.084C894.202 635.733 908.132 623.444 912.837 612.677C921.395 593.093 871.376 609.142 849.415 617.969C766.405 651.333 684.449 723.096 660.467 800.395C653.924 821.481 655.203 839.654 672.004 838.253C683.502 837.293 721.545 798.645 721.545 798.645Z" fill="white" fill-opacity="0.8"/>
<path d="M618.828 871.817C615.239 882.816 615.813 897.093 626.925 900.314C637.873 903.488 649.126 881.366 649.126 881.366C649.126 881.366 658.604 857.243 648.368 852.676C640.598 849.209 623.205 858.407 618.828 871.817Z" fill="white" fill-opacity="0.8"/>
<path d="M601.275 924.024C601.52 928.741 602.724 932.562 606.927 934.716C614.066 938.375 620.463 927.042 620.182 919.025C620.031 914.732 619.355 911.414 615.867 908.907C609.204 904.119 600.848 915.83 601.275 924.024Z" fill="white" fill-opacity="0.8"/>
</g>
<defs>
<filter id="filter0_d_7_83" x="541.786" y="540" width="1021.42" height="1049.52" filterUnits="userSpaceOnUse" color-interpolation-filters="sRGB">
<feFlood flood-opacity="0" result="BackgroundImageFix"/>
<feColorMatrix in="SourceAlpha" type="matrix" values="0 0 0 0 0 0 0 0 0 0 0 0 0 0 0 0 0 0 127 0" result="hardAlpha"/>
<feOffset dx="25" dy="50"/>
<feColorMatrix type="matrix" values="0 0 0 0 0 0 0 0 0 0 0 0 0 0 0 0 0 0 0.25 0"/>
<feBlend mode="normal" in2="BackgroundImageFix" result="effect1_dropShadow_7_83"/>
<feBlend mode="normal" in="SourceGraphic" in2="effect1_dropShadow_7_83" result="shape"/>
</filter>
<filter id="filter1_i_7_83" x="541.786" y="1073.3" width="995.254" height="466.211" filterUnits="userSpaceOnUse" color-interpolation-filters="sRGB">
<feFlood flood-opacity="0" result="BackgroundImageFix"/>
<feBlend mode="normal" in="SourceGraphic" in2="BackgroundImageFix" result="shape"/>
<feColorMatrix in="SourceAlpha" type="matrix" values="0 0 0 0 0 0 0 0 0 0 0 0 0 0 0 0 0 0 127 0" result="hardAlpha"/>
<feOffset dx="-150" dy="-50"/>
<feComposite in2="hardAlpha" operator="arithmetic" k2="-1" k3="1"/>
<feColorMatrix type="matrix" values="0 0 0 0 0 0 0 0 0 0 0 0 0 0 0 0 0 0 0.25 0"/>
<feBlend mode="normal" in2="shape" result="effect1_innerShadow_7_83"/>
</filter>
<filter id="filter2_i_7_83" x="542.948" y="540" width="995.254" height="466.211" filterUnits="userSpaceOnUse" color-interpolation-filters="sRGB">
<feFlood flood-opacity="0" result="BackgroundImageFix"/>
<feBlend mode="normal" in="SourceGraphic" in2="BackgroundImageFix" result="shape"/>
<feColorMatrix in="SourceAlpha" type="matrix" values="0 0 0 0 0 0 0 0 0 0 0 0 0 0 0 0 0 0 127 0" result="hardAlpha"/>
<feOffset dx="-150" dy="-25"/>
<feComposite in2="hardAlpha" operator="arithmetic" k2="-1" k3="1"/>
<feColorMatrix type="matrix" values="0 0 0 0 0 0 0 0 0 0 0 0 0 0 0 0 0 0 0.25 0"/>
<feBlend mode="normal" in2="shape" result="effect1_innerShadow_7_83"/>
</filter>
<filter id="filter3_d_7_83" x="957.16" y="955.825" width="176.864" height="176.864" filterUnits="userSpaceOnUse" color-interpolation-filters="sRGB">
<feFlood flood-opacity="0" result="BackgroundImageFix"/>
<feColorMatrix in="SourceAlpha" type="matrix" values="0 0 0 0 0 0 0 0 0 0 0 0 0 0 0 0 0 0 127 0" result="hardAlpha"/>
<feOffset dx="10" dy="10"/>
<feColorMatrix type="matrix" values="0 0 0 0 0 0 0 0 0 0 0 0 0 0 0 0 0 0 0.25 0"/>
<feBlend mode="normal" in2="BackgroundImageFix" result="effect1_dropShadow_7_83"/>
<feBlend mode="normal" in="SourceGraphic" in2="effect1_dropShadow_7_83" result="shape"/>
</filter>
</defs>
</svg>
