<svg width="2080" height="2080" viewBox="0 0 2080 2080" fill="none" xmlns="http://www.w3.org/2000/svg">
<g filter="url(#filter0_d_1_2)">
<circle cx="1046.67" cy="1033.18" r="467.219" fill="#252525"/>
<g filter="url(#filter1_i_1_2)">
<path d="M1543 1088.89C1515.14 1338.98 1303.03 1533.44 1045.51 1533.44C787.875 1533.44 575.699 1338.8 547.98 1088.56C546.705 1077.05 555.904 1067.23 567.486 1067.23L1523.5 1067.55C1535.09 1067.55 1544.28 1077.38 1543 1088.89Z" fill="#F8F8F8"/>
</g>
<path d="M1045.51 1523.44C1297.88 1523.44 1505.76 1332.87 1533.06 1087.78C1533.65 1082.48 1529.41 1077.55 1523.5 1077.55L567.482 1077.23C561.577 1077.23 557.331 1082.15 557.919 1087.46C585.084 1332.69 793.029 1523.44 1045.51 1523.44Z" stroke="#252525" stroke-width="20"/>
<g filter="url(#filter2_i_1_2)">
<path d="M1544.16 978.473C1516.3 728.383 1304.19 533.924 1046.67 533.924C789.037 533.924 576.861 728.564 549.142 978.804C547.866 990.315 557.066 1000.14 568.647 1000.14L1524.67 999.816C1536.25 999.812 1545.44 989.983 1544.16 978.473Z" fill="#746EAF"/>
</g>
<path d="M1046.67 543.924C1299.04 543.924 1506.92 734.496 1534.22 979.58C1534.81 984.888 1530.57 989.814 1524.66 989.816L568.644 990.135C562.739 990.137 558.493 985.214 559.081 979.905C586.245 734.674 794.191 543.924 1046.67 543.924Z" stroke="#252525" stroke-width="20"/>
<circle cx="1046.67" cy="1033.18" r="183.55" fill="#252525"/>
<circle cx="1046.67" cy="1033.18" r="116.805" fill="#F8F8F8"/>
<g filter="url(#filter3_d_1_2)">
<circle cx="1046.67" cy="1033.18" r="83.432" fill="#F8F8F8"/>
<circle cx="1046.67" cy="1033.18" r="73.432" stroke="#252525" stroke-width="20"/>
</g>
<path d="M1039.24 684.743C1018.7 648.866 1005.62 629.975 979.351 598.582C912.563 671.607 887.684 725.287 843.692 828.346L844.767 828.06C865.432 822.557 877.346 819.385 904.8 813.069C927.306 763.642 940.518 735.528 969.574 681.688L1039.24 802.681L1112.57 681.688L1173.06 818.569C1199.48 822.592 1212.17 826.409 1234.78 833.234C1196.22 728.475 1170.74 675.252 1112.57 598.582C1076.37 637.22 1060.64 658.129 1039.24 684.743Z" fill="#F8F8F8"/>
<path d="M634.656 636.518C701.991 562.824 812.148 551.352 884.223 571.823C882.685 573.915 880.949 576.269 879.033 578.855C870.649 590.175 858.83 605.941 845.097 623.716C817.576 659.338 782.582 702.755 752.206 734.661C720.558 767.903 675.075 805.7 637.226 835.363C618.355 850.152 601.483 862.841 589.331 871.831C586.194 874.152 583.372 876.226 580.912 878.025C561.547 809.468 571.028 706.154 634.656 636.518Z" fill="#D14780" stroke="#252525" stroke-width="20"/>
<path d="M1445.34 626.421C1378.01 552.727 1267.85 541.255 1195.78 561.726C1197.32 563.818 1199.05 566.172 1200.97 568.759C1209.35 580.078 1221.17 595.844 1234.9 613.619C1262.42 649.241 1297.42 692.658 1327.79 724.564C1359.44 757.806 1404.93 795.603 1442.77 825.266C1461.64 840.055 1478.52 852.744 1490.67 861.734C1493.81 864.055 1496.63 866.129 1499.09 867.928C1518.45 799.371 1508.97 696.057 1445.34 626.421Z" fill="#D14780"/>
<path d="M1445.34 626.421C1378.01 552.727 1267.85 541.255 1195.78 561.726C1197.32 563.818 1199.05 566.172 1200.97 568.759C1209.35 580.078 1221.17 595.844 1234.9 613.619C1262.42 649.241 1297.42 692.658 1327.79 724.564C1359.44 757.806 1404.93 795.603 1442.77 825.266C1461.64 840.055 1478.52 852.744 1490.67 861.734C1493.81 864.055 1496.63 866.129 1499.09 867.928C1518.45 799.371 1508.97 696.057 1445.34 626.421Z" fill="black" fill-opacity="0.25"/>
<path d="M1445.34 626.421C1378.01 552.727 1267.85 541.255 1195.78 561.726C1197.32 563.818 1199.05 566.172 1200.97 568.759C1209.35 580.078 1221.17 595.844 1234.9 613.619C1262.42 649.241 1297.42 692.658 1327.79 724.564C1359.44 757.806 1404.93 795.603 1442.77 825.266C1461.64 840.055 1478.52 852.744 1490.67 861.734C1493.81 864.055 1496.63 866.129 1499.09 867.928C1518.45 799.371 1508.97 696.057 1445.34 626.421Z" stroke="#252525" stroke-width="20"/>
<path d="M664.7 706.324C664.7 706.324 725.153 657.232 754.863 621.202C761.597 613.037 769.522 605.982 771.364 599.948C774.714 588.975 742.711 598.816 728.884 604.12C676.623 624.165 629.926 665.374 623.368 708.495C621.579 720.257 624.743 730.258 635.996 729.153C643.698 728.397 664.7 706.324 664.7 706.324Z" fill="white" fill-opacity="0.8"/>
<path d="M602.195 759.088C602.44 763.804 603.644 767.626 607.848 769.78C614.986 773.438 621.383 762.105 621.102 754.089C620.951 749.796 620.276 746.478 616.787 743.971C610.124 739.182 601.768 750.893 602.195 759.088Z" fill="white" fill-opacity="0.8"/>
</g>
<defs>
<filter id="filter0_d_1_2" x="547.862" y="533.924" width="1021.42" height="1049.52" filterUnits="userSpaceOnUse" color-interpolation-filters="sRGB">
<feFlood flood-opacity="0" result="BackgroundImageFix"/>
<feColorMatrix in="SourceAlpha" type="matrix" values="0 0 0 0 0 0 0 0 0 0 0 0 0 0 0 0 0 0 127 0" result="hardAlpha"/>
<feOffset dx="25" dy="50"/>
<feColorMatrix type="matrix" values="0 0 0 0 0 0 0 0 0 0 0 0 0 0 0 0 0 0 0.25 0"/>
<feBlend mode="normal" in2="BackgroundImageFix" result="effect1_dropShadow_1_2"/>
<feBlend mode="normal" in="SourceGraphic" in2="effect1_dropShadow_1_2" result="shape"/>
</filter>
<filter id="filter1_i_1_2" x="547.862" y="1067.23" width="995.254" height="466.211" filterUnits="userSpaceOnUse" color-interpolation-filters="sRGB">
<feFlood flood-opacity="0" result="BackgroundImageFix"/>
<feBlend mode="normal" in="SourceGraphic" in2="BackgroundImageFix" result="shape"/>
<feColorMatrix in="SourceAlpha" type="matrix" values="0 0 0 0 0 0 0 0 0 0 0 0 0 0 0 0 0 0 127 0" result="hardAlpha"/>
<feOffset dx="-150" dy="-50"/>
<feComposite in2="hardAlpha" operator="arithmetic" k2="-1" k3="1"/>
<feColorMatrix type="matrix" values="0 0 0 0 0 0 0 0 0 0 0 0 0 0 0 0 0 0 0.25 0"/>
<feBlend mode="normal" in2="shape" result="effect1_innerShadow_1_2"/>
</filter>
<filter id="filter2_i_1_2" x="549.023" y="533.924" width="995.254" height="466.211" filterUnits="userSpaceOnUse" color-interpolation-filters="sRGB">
<feFlood flood-opacity="0" result="BackgroundImageFix"/>
<feBlend mode="normal" in="SourceGraphic" in2="BackgroundImageFix" result="shape"/>
<feColorMatrix in="SourceAlpha" type="matrix" values="0 0 0 0 0 0 0 0 0 0 0 0 0 0 0 0 0 0 127 0" result="hardAlpha"/>
<feOffset dx="-150" dy="-25"/>
<feComposite in2="hardAlpha" operator="arithmetic" k2="-1" k3="1"/>
<feColorMatrix type="matrix" values="0 0 0 0 0 0 0 0 0 0 0 0 0 0 0 0 0 0 0.25 0"/>
<feBlend mode="normal" in2="shape" result="effect1_innerShadow_1_2"/>
</filter>
<filter id="filter3_d_1_2" x="963.236" y="949.751" width="176.864" height="176.864" filterUnits="userSpaceOnUse" color-interpolation-filters="sRGB">
<feFlood flood-opacity="0" result="BackgroundImageFix"/>
<feColorMatrix in="SourceAlpha" type="matrix" values="0 0 0 0 0 0 0 0 0 0 0 0 0 0 0 0 0 0 127 0" result="hardAlpha"/>
<feOffset dx="10" dy="10"/>
<feColorMatrix type="matrix" values="0 0 0 0 0 0 0 0 0 0 0 0 0 0 0 0 0 0 0.25 0"/>
<feBlend mode="normal" in2="BackgroundImageFix" result="effect1_dropShadow_1_2"/>
<feBlend mode="normal" in="SourceGraphic" in2="effect1_dropShadow_1_2" result="shape"/>
</filter>
</defs>
</svg>
