<svg width="2080" height="2080" viewBox="0 0 2080 2080" fill="none" xmlns="http://www.w3.org/2000/svg">
<g filter="url(#filter0_d_1_24)">
<circle cx="1040.59" cy="1033.18" r="467.219" fill="#252525"/>
<g filter="url(#filter1_i_1_24)">
<path d="M1536.92 1088.89C1509.06 1338.98 1296.95 1533.44 1039.43 1533.44C781.8 1533.44 569.624 1338.8 541.904 1088.56C540.629 1077.05 549.829 1067.23 561.41 1067.23L1517.43 1067.55C1529.01 1067.55 1538.2 1077.38 1536.92 1088.89Z" fill="#F8F8F8"/>
</g>
<path d="M1039.43 1523.44C1291.8 1523.44 1499.68 1332.87 1526.98 1087.78C1527.57 1082.48 1523.33 1077.55 1517.43 1077.55L561.407 1077.23C555.502 1077.23 551.256 1082.15 551.844 1087.46C579.008 1332.69 786.954 1523.44 1039.43 1523.44Z" stroke="#252525" stroke-width="20"/>
<g filter="url(#filter2_i_1_24)">
<path d="M1538.08 978.473C1510.22 728.383 1298.12 533.924 1040.59 533.924C782.962 533.924 570.785 728.563 543.066 978.804C541.791 990.315 550.991 1000.14 562.572 1000.13L1518.59 999.815C1530.17 999.812 1539.36 989.982 1538.08 978.473Z" fill="#30A0F9"/>
</g>
<path d="M1040.59 543.924C1292.97 543.924 1500.84 734.496 1528.14 979.58C1528.74 984.888 1524.49 989.814 1518.59 989.815L562.569 990.135C556.664 990.137 552.417 985.214 553.005 979.905C580.17 734.673 788.115 543.924 1040.59 543.924Z" stroke="#252525" stroke-width="20"/>
<circle cx="1040.59" cy="1033.18" r="183.55" fill="#252525"/>
<circle cx="1040.59" cy="1033.18" r="116.805" fill="#F8F8F8"/>
<g filter="url(#filter3_d_1_24)">
<circle cx="1040.59" cy="1033.18" r="83.432" fill="#F8F8F8"/>
<circle cx="1040.59" cy="1033.18" r="73.432" stroke="#252525" stroke-width="20"/>
</g>
<path d="M721.545 792.569C721.545 792.569 826.22 707.331 881.641 644.008C894.202 629.657 908.132 617.368 912.837 606.601C921.395 587.017 871.376 603.066 849.415 611.893C766.405 645.257 684.449 717.02 660.467 794.319C653.924 815.405 655.203 833.578 672.004 832.176C683.502 831.217 721.545 792.569 721.545 792.569Z" fill="white" fill-opacity="0.8"/>
<path d="M618.828 865.741C615.239 876.74 615.813 891.017 626.925 894.238C637.873 897.411 649.126 875.29 649.126 875.29C649.126 875.29 658.604 851.167 648.368 846.599C640.598 843.132 623.205 852.33 618.828 865.741Z" fill="white" fill-opacity="0.8"/>
<path d="M601.275 917.948C601.52 922.665 602.724 926.486 606.927 928.64C614.066 932.299 620.463 920.966 620.182 912.949C620.031 908.656 619.355 905.338 615.867 902.831C609.204 898.042 600.848 909.754 601.275 917.948Z" fill="white" fill-opacity="0.8"/>
<path d="M1370.79 634.912C1389.11 645.979 1422.75 668.138 1440.92 690.726C1457.6 711.461 1474.43 749.774 1483.25 771.666C1484.92 775.8 1483.34 780.594 1479.27 783.023C1453.1 798.62 1396.75 831.636 1359.86 849.189C1319.9 868.205 1260.48 890.976 1234.82 900.602L1238.33 909.965L1234.82 900.602C1231.11 901.991 1227.06 900.979 1224.49 898.094C1216.83 889.478 1206.16 877.071 1199.15 867.289C1192.86 858.506 1185.32 845.988 1180.03 836.865C1178.13 833.607 1178.38 829.564 1180.71 826.503C1196.81 805.343 1234.51 756.669 1263.81 725.544C1293.23 694.289 1339.65 653.666 1360.31 635.911C1363.39 633.272 1367.55 632.955 1370.79 634.912Z" fill="#FF4C41" stroke="#252525" stroke-width="20"/>
<path d="M709.209 634.912C690.894 645.979 657.249 668.138 639.077 690.726C622.395 711.461 605.569 749.774 596.749 771.666C595.084 775.8 596.657 780.594 600.731 783.023C626.899 798.62 683.251 831.636 720.138 849.189C760.098 868.205 819.522 890.976 845.182 900.602L841.67 909.965L845.182 900.602C848.886 901.991 852.941 900.979 855.507 898.094C863.169 889.478 873.837 877.071 880.847 867.289C887.14 858.506 894.676 845.988 899.974 836.865C901.867 833.607 901.622 829.564 899.293 826.503C883.193 805.343 845.488 756.669 816.188 725.544C786.766 694.289 740.346 653.666 719.686 635.911C716.614 633.272 712.448 632.955 709.209 634.912Z" fill="#FF4C41" stroke="#252525" stroke-width="20"/>
<path d="M645.797 773.442C657.084 735.009 687.446 698.088 725.536 669.417C734.617 677.197 745.614 686.835 779.7 717.72C740.555 749.501 705.577 774.723 705.577 774.723C705.577 774.723 687.416 790.342 673.344 800.11C659.187 793.57 653.778 789.826 643.616 782.968C644.068 779.931 644.841 776.698 645.797 773.442Z" fill="white" fill-opacity="0.8"/>
<path d="M1429.03 692.327C1408.7 669.005 1383.91 651.442 1366.37 643.849C1355.84 653.011 1306.7 697.529 1306.7 697.529C1306.7 697.529 1323.81 709.26 1338.84 737.459C1352.4 762.908 1375.78 829.865 1375.78 829.865C1375.78 829.865 1460.48 783.556 1473.73 774.691C1471.24 771.599 1454.17 721.185 1429.03 692.327Z" fill="black" fill-opacity="0.25"/>
</g>
<defs>
<filter id="filter0_d_1_24" x="541.786" y="533.924" width="1021.42" height="1049.52" filterUnits="userSpaceOnUse" color-interpolation-filters="sRGB">
<feFlood flood-opacity="0" result="BackgroundImageFix"/>
<feColorMatrix in="SourceAlpha" type="matrix" values="0 0 0 0 0 0 0 0 0 0 0 0 0 0 0 0 0 0 127 0" result="hardAlpha"/>
<feOffset dx="25" dy="50"/>
<feColorMatrix type="matrix" values="0 0 0 0 0 0 0 0 0 0 0 0 0 0 0 0 0 0 0.25 0"/>
<feBlend mode="normal" in2="BackgroundImageFix" result="effect1_dropShadow_1_24"/>
<feBlend mode="normal" in="SourceGraphic" in2="effect1_dropShadow_1_24" result="shape"/>
</filter>
<filter id="filter1_i_1_24" x="541.786" y="1067.23" width="995.254" height="466.211" filterUnits="userSpaceOnUse" color-interpolation-filters="sRGB">
<feFlood flood-opacity="0" result="BackgroundImageFix"/>
<feBlend mode="normal" in="SourceGraphic" in2="BackgroundImageFix" result="shape"/>
<feColorMatrix in="SourceAlpha" type="matrix" values="0 0 0 0 0 0 0 0 0 0 0 0 0 0 0 0 0 0 127 0" result="hardAlpha"/>
<feOffset dx="-150" dy="-50"/>
<feComposite in2="hardAlpha" operator="arithmetic" k2="-1" k3="1"/>
<feColorMatrix type="matrix" values="0 0 0 0 0 0 0 0 0 0 0 0 0 0 0 0 0 0 0.25 0"/>
<feBlend mode="normal" in2="shape" result="effect1_innerShadow_1_24"/>
</filter>
<filter id="filter2_i_1_24" x="542.948" y="533.924" width="995.254" height="466.211" filterUnits="userSpaceOnUse" color-interpolation-filters="sRGB">
<feFlood flood-opacity="0" result="BackgroundImageFix"/>
<feBlend mode="normal" in="SourceGraphic" in2="BackgroundImageFix" result="shape"/>
<feColorMatrix in="SourceAlpha" type="matrix" values="0 0 0 0 0 0 0 0 0 0 0 0 0 0 0 0 0 0 127 0" result="hardAlpha"/>
<feOffset dx="-150" dy="-25"/>
<feComposite in2="hardAlpha" operator="arithmetic" k2="-1" k3="1"/>
<feColorMatrix type="matrix" values="0 0 0 0 0 0 0 0 0 0 0 0 0 0 0 0 0 0 0.25 0"/>
<feBlend mode="normal" in2="shape" result="effect1_innerShadow_1_24"/>
</filter>
<filter id="filter3_d_1_24" x="957.16" y="949.75" width="176.864" height="176.864" filterUnits="userSpaceOnUse" color-interpolation-filters="sRGB">
<feFlood flood-opacity="0" result="BackgroundImageFix"/>
<feColorMatrix in="SourceAlpha" type="matrix" values="0 0 0 0 0 0 0 0 0 0 0 0 0 0 0 0 0 0 127 0" result="hardAlpha"/>
<feOffset dx="10" dy="10"/>
<feColorMatrix type="matrix" values="0 0 0 0 0 0 0 0 0 0 0 0 0 0 0 0 0 0 0.25 0"/>
<feBlend mode="normal" in2="BackgroundImageFix" result="effect1_dropShadow_1_24"/>
<feBlend mode="normal" in="SourceGraphic" in2="effect1_dropShadow_1_24" result="shape"/>
</filter>
</defs>
</svg>
