<svg width="27" height="22" viewBox="0 0 27 22" fill="none" xmlns="http://www.w3.org/2000/svg">
<path d="M3.25312 19.6875L7.20844 18.5221L7.91156 18.8072C9.51344 19.5328 11.2519 19.8956 13.1269 19.8956C16.3106 19.8094 18.9619 18.8898 21.0806 17.1369C23.1994 15.3841 24.2981 13.2643 24.3769 10.7775C24.2987 8.29078 23.2 6.17098 21.0806 4.4181C18.9613 2.66523 16.31 1.74569 13.1269 1.65948C9.94312 1.74569 7.29187 2.66523 5.17313 4.4181C3.05438 6.17098 1.95562 8.29078 1.87687 10.7775C1.87687 11.6755 2.05281 12.5649 2.40469 13.4458C2.75656 14.3266 3.27406 15.1556 3.95719 15.9325L4.60219 16.6835L3.25312 19.6875ZM1.905 21.812C1.53375 21.9159 1.21625 21.8424 0.9525 21.5915C0.68875 21.3406 0.625313 21.0513 0.762188 20.7236L2.46187 16.9413C1.68062 16.0262 1.075 15.0461 0.645 14.0012C0.215 12.9562 0 11.8811 0 10.7759C0.078125 7.92661 1.32813 5.4443 3.75 3.32891C6.17188 1.21353 9.29688 0.10389 13.125 0C16.9531 0.10389 20.0781 1.21353 22.5 3.32891C24.9219 5.4443 26.1719 7.92661 26.25 10.7759C26.1719 13.6251 24.9219 16.1074 22.5 18.2228C20.0781 20.3382 16.9531 21.4478 13.125 21.5517C10.9963 21.5517 8.97469 21.1373 7.06031 20.3084L1.905 21.812ZM13.1259 12.098C12.8522 12.098 12.6031 12.0419 12.3788 11.9297C12.1544 11.8175 11.9738 11.6534 11.8369 11.4373C11.7 11.2213 11.6316 11.0011 11.6316 10.7767C11.6316 10.5523 11.7 10.3321 11.8369 10.116C11.9738 9.89998 12.1544 9.73586 12.3788 9.62368C12.6031 9.5115 12.8522 9.45541 13.1259 9.45541C13.5559 9.45541 13.9125 9.58057 14.1956 9.8309C14.4788 10.0812 14.6203 10.3965 14.6203 10.7767C14.6203 11.1569 14.4788 11.4721 14.1956 11.7225C13.9125 11.9728 13.5559 12.098 13.1259 12.098ZM18.7509 12.098C18.4772 12.098 18.2281 12.0419 18.0037 11.9297C17.7794 11.8175 17.5987 11.6534 17.4619 11.4373C17.325 11.2213 17.2566 11.0011 17.2566 10.7767C17.2566 10.5523 17.325 10.3321 17.4619 10.116C17.5987 9.89998 17.7794 9.73586 18.0037 9.62368C18.2281 9.5115 18.4772 9.45541 18.7509 9.45541C19.1809 9.45541 19.5375 9.58057 19.8206 9.8309C20.1038 10.0812 20.2453 10.3965 20.2453 10.7767C20.2453 11.1569 20.1038 11.4721 19.8206 11.7225C19.5375 11.9728 19.1809 12.098 18.7509 12.098ZM7.50094 12.098C7.22719 12.098 6.97813 12.0419 6.75375 11.9297C6.52938 11.8175 6.34875 11.6534 6.21187 11.4373C6.075 11.2213 6.00656 11.0011 6.00656 10.7767C6.00656 10.5523 6.075 10.3321 6.21187 10.116C6.34875 9.89998 6.52938 9.73586 6.75375 9.62368C6.97813 9.5115 7.22719 9.45541 7.50094 9.45541C7.93094 9.45541 8.2875 9.58057 8.57063 9.8309C8.85375 10.0812 8.99531 10.3965 8.99531 10.7767C8.99531 11.1569 8.85375 11.4721 8.57063 11.7225C8.2875 11.9728 7.93094 12.098 7.50094 12.098Z" fill="#08080A" fill-opacity="0.96"/>
</svg>
