<svg width="225" height="45" viewBox="0 0 225 45" fill="none" xmlns="http://www.w3.org/2000/svg">
<g clip-path="url(#clip0_111_1461)">
<path d="M32 22C32 16.4771 27.5229 12 22 12C16.4771 12 12 16.4771 12 22C12 26.9912 15.6568 31.1283 20.4375 31.8785V24.8906H17.8984V22H20.4375V19.7969C20.4375 17.2906 21.9305 15.9063 24.2146 15.9063C25.3084 15.9063 26.4531 16.1016 26.4531 16.1016V18.5625H25.1922C23.95 18.5625 23.5625 19.3334 23.5625 20.125V22H26.3359L25.8926 24.8906H23.5625V31.8785C28.3432 31.1283 32 26.9912 32 22Z" fill="#D9D9D9"/>
</g>
<g clip-path="url(#clip1_111_1461)">
<path d="M67 13.8008C69.6719 13.8008 69.9883 13.8125 71.0391 13.8594C72.0156 13.9023 72.543 14.0664 72.8945 14.2031C73.3594 14.3828 73.6953 14.6016 74.043 14.9492C74.3945 15.3008 74.6094 15.6328 74.7891 16.0977C74.9258 16.4492 75.0898 16.9805 75.1328 17.9531C75.1797 19.0078 75.1914 19.3242 75.1914 21.9922C75.1914 24.6641 75.1797 24.9805 75.1328 26.0313C75.0898 27.0078 74.9258 27.5352 74.7891 27.8867C74.6094 28.3516 74.3906 28.6875 74.043 29.0352C73.6914 29.3867 73.3594 29.6016 72.8945 29.7813C72.543 29.918 72.0117 30.082 71.0391 30.125C69.9844 30.1719 69.668 30.1836 67 30.1836C64.3281 30.1836 64.0117 30.1719 62.9609 30.125C61.9844 30.082 61.457 29.918 61.1055 29.7813C60.6406 29.6016 60.3047 29.3828 59.957 29.0352C59.6055 28.6836 59.3906 28.3516 59.2109 27.8867C59.0742 27.5352 58.9102 27.0039 58.8672 26.0313C58.8203 24.9766 58.8086 24.6602 58.8086 21.9922C58.8086 19.3203 58.8203 19.0039 58.8672 17.9531C58.9102 16.9766 59.0742 16.4492 59.2109 16.0977C59.3906 15.6328 59.6094 15.2969 59.957 14.9492C60.3086 14.5977 60.6406 14.3828 61.1055 14.2031C61.457 14.0664 61.9883 13.9023 62.9609 13.8594C64.0117 13.8125 64.3281 13.8008 67 13.8008ZM67 12C64.2852 12 63.9453 12.0117 62.8789 12.0586C61.8164 12.1055 61.0859 12.2773 60.4531 12.5234C59.793 12.7812 59.2344 13.1211 58.6797 13.6797C58.1211 14.2344 57.7813 14.793 57.5234 15.4492C57.2773 16.0859 57.1055 16.8125 57.0586 17.875C57.0117 18.9453 57 19.2852 57 22C57 24.7148 57.0117 25.0547 57.0586 26.1211C57.1055 27.1836 57.2773 27.9141 57.5234 28.5469C57.7813 29.207 58.1211 29.7656 58.6797 30.3203C59.2344 30.875 59.793 31.2188 60.4492 31.4727C61.0859 31.7188 61.8125 31.8906 62.875 31.9375C63.9414 31.9844 64.2813 31.9961 66.9961 31.9961C69.7109 31.9961 70.0508 31.9844 71.1172 31.9375C72.1797 31.8906 72.9102 31.7188 73.543 31.4727C74.1992 31.2188 74.7578 30.875 75.3125 30.3203C75.8672 29.7656 76.2109 29.207 76.4648 28.5508C76.7109 27.9141 76.8828 27.1875 76.9297 26.125C76.9766 25.0586 76.9883 24.7188 76.9883 22.0039C76.9883 19.2891 76.9766 18.9492 76.9297 17.8828C76.8828 16.8203 76.7109 16.0898 76.4648 15.457C76.2188 14.793 75.8789 14.2344 75.3203 13.6797C74.7656 13.125 74.207 12.7813 73.5508 12.5273C72.9141 12.2812 72.1875 12.1094 71.125 12.0625C70.0547 12.0117 69.7148 12 67 12Z" fill="#D9D9D9"/>
<path d="M67 16.8633C64.1641 16.8633 61.8633 19.1641 61.8633 22C61.8633 24.8359 64.1641 27.1367 67 27.1367C69.8359 27.1367 72.1367 24.8359 72.1367 22C72.1367 19.1641 69.8359 16.8633 67 16.8633ZM67 25.332C65.1602 25.332 63.668 23.8398 63.668 22C63.668 20.1602 65.1602 18.668 67 18.668C68.8398 18.668 70.332 20.1602 70.332 22C70.332 23.8398 68.8398 25.332 67 25.332Z" fill="#D9D9D9"/>
<path d="M73.5391 16.6601C73.5391 17.3242 73 17.8593 72.3398 17.8593C71.6758 17.8593 71.1406 17.3203 71.1406 16.6601C71.1406 15.996 71.6797 15.4609 72.3398 15.4609C73 15.4609 73.5391 15.9999 73.5391 16.6601Z" fill="#D9D9D9"/>
</g>
<g clip-path="url(#clip2_111_1461)">
<path d="M122.119 18.2829L122.119 18.2832C122.313 19.0119 122.416 20.1751 122.468 21.1919C122.494 21.6928 122.507 22.1458 122.514 22.4736C122.517 22.6374 122.518 22.7696 122.519 22.8606L122.52 22.9649L122.52 22.9916L122.52 22.9981L122.52 22.9996V23V23.0003L122.52 23.0019L122.52 23.0084L122.52 23.0351L122.519 23.1394C122.518 23.2304 122.517 23.3626 122.514 23.5264C122.507 23.8542 122.494 24.3071 122.468 24.8081C122.416 25.8248 122.313 26.9881 122.119 27.7168L122.119 27.717C122.028 28.0579 121.85 28.369 121.601 28.6191C121.353 28.8691 121.043 29.0495 120.703 29.1423C120.364 29.2333 119.726 29.31 118.917 29.3694C118.121 29.4278 117.201 29.4669 116.326 29.4931C115.451 29.5193 114.624 29.5323 114.016 29.5389C113.712 29.5422 113.462 29.5438 113.289 29.5446L113.089 29.5453L113.037 29.5454L113.024 29.5454L113.021 29.5454H113.02H113.02L113.02 30.0454L113.02 29.5454H113.02H113.019L113.016 29.5454L113.003 29.5454L112.951 29.5453L112.751 29.5446C112.578 29.5438 112.328 29.5422 112.024 29.5389C111.416 29.5323 110.589 29.5193 109.715 29.4931C108.839 29.4669 107.919 29.4278 107.124 29.3694C106.314 29.31 105.676 29.2334 105.337 29.1423C104.997 29.0495 104.687 28.8691 104.439 28.6191C104.191 28.369 104.012 28.0579 103.921 27.717L103.921 27.7168C103.727 26.9881 103.624 25.8248 103.572 24.8081C103.546 24.3071 103.533 23.8542 103.526 23.5264C103.523 23.3626 103.522 23.2304 103.521 23.1394L103.52 23.0351L103.52 23.0084L103.52 23.0019L103.52 23.0003L103.52 23V23L103.52 22.9996L103.52 22.9981L103.52 22.9916L103.52 22.9649L103.521 22.8606C103.522 22.7696 103.523 22.6374 103.526 22.4736C103.533 22.1458 103.546 21.6928 103.572 21.1919C103.624 20.1751 103.727 19.0119 103.921 18.2832L103.921 18.2829C104.012 17.9421 104.191 17.631 104.439 17.3808C104.687 17.1309 104.997 16.9504 105.337 16.8576C105.676 16.7666 106.315 16.6899 107.124 16.6306C107.919 16.5722 108.839 16.533 109.715 16.5069C110.589 16.4807 111.416 16.4676 112.024 16.4611C112.328 16.4578 112.578 16.4562 112.751 16.4553L112.951 16.4546L113.003 16.4545L113.016 16.4545L113.019 16.4545L113.02 16.4545H113.02L113.02 15.9545L113.02 16.4545H113.02L113.021 16.4545L113.024 16.4545L113.037 16.4545L113.089 16.4546L113.289 16.4553C113.462 16.4562 113.712 16.4578 114.016 16.4611C114.624 16.4676 115.451 16.4807 116.326 16.5069C117.201 16.533 118.121 16.5722 118.917 16.6306C119.726 16.6899 120.364 16.7666 120.703 16.8576C121.043 16.9505 121.353 17.1309 121.601 17.3808C121.85 17.631 122.028 17.9421 122.119 18.2829Z" fill="#D9D9D9" stroke="#D9D9D9"/>
<path d="M110.975 25.9739V20.0262L116.202 23L110.975 25.9739Z" fill="black"/>
</g>
<g clip-path="url(#clip3_111_1461)">
<path fill-rule="evenodd" clip-rule="evenodd" d="M157 12.4167C154.626 12.4179 152.33 13.2587 150.523 14.7888C148.715 16.3188 147.513 18.4384 147.133 20.7684C146.753 23.0983 147.218 25.4869 148.447 27.5068C149.675 29.5268 151.586 31.0465 153.838 31.7942C154.334 31.8864 154.521 31.5785 154.521 31.3167C154.521 31.0549 154.512 30.2959 154.508 29.466C151.726 30.067 151.138 28.2921 151.138 28.2921C150.685 27.1396 150.029 26.8366 150.029 26.8366C149.122 26.2208 150.097 26.2323 150.097 26.2323C151.102 26.3031 151.63 27.2581 151.63 27.2581C152.521 28.7778 153.97 28.3382 154.54 28.0813C154.629 27.4376 154.889 26.9996 155.176 26.751C152.953 26.5007 150.619 25.6478 150.619 21.8379C150.605 20.8498 150.973 19.8942 151.648 19.1689C151.546 18.9187 151.203 17.9077 151.746 16.5345C151.746 16.5345 152.586 16.2678 154.497 17.5537C156.136 17.108 157.865 17.108 159.504 17.5537C161.413 16.2678 162.251 16.5345 162.251 16.5345C162.796 17.9044 162.453 18.9154 162.351 19.1689C163.028 19.8943 163.397 20.8516 163.382 21.8412C163.382 25.6594 161.042 26.5007 158.817 26.746C159.175 27.0556 159.494 27.6598 159.494 28.5885C159.494 29.9188 159.483 30.989 159.483 31.3167C159.483 31.5818 159.663 31.8913 160.17 31.7942C162.422 31.0464 164.333 29.5264 165.561 27.5061C166.789 25.4858 167.255 23.0969 166.874 20.7667C166.493 18.4365 165.291 16.317 163.483 14.7872C161.675 13.2574 159.378 12.4171 157.004 12.4167H157Z" fill="#D9D9D9"/>
<path d="M150.787 26.6933C150.765 26.7427 150.686 26.7576 150.621 26.723C150.557 26.6884 150.509 26.6242 150.532 26.5731C150.555 26.5221 150.633 26.5089 150.697 26.5435C150.762 26.5781 150.812 26.6439 150.787 26.6933Z" fill="#D9D9D9"/>
<path d="M151.193 27.1428C151.159 27.16 151.119 27.1648 151.082 27.1564C151.044 27.148 151.011 27.1269 150.988 27.0967C150.923 27.0276 150.91 26.9321 150.959 26.8893C151.009 26.8465 151.098 26.8662 151.163 26.9354C151.228 27.0045 151.243 27.1 151.193 27.1428Z" fill="#D9D9D9"/>
<path d="M151.587 27.7141C151.525 27.7569 151.421 27.7141 151.363 27.6285C151.347 27.6132 151.334 27.5947 151.326 27.5744C151.317 27.554 151.312 27.5321 151.312 27.51C151.312 27.4878 151.317 27.4659 151.326 27.4456C151.334 27.4252 151.347 27.4068 151.363 27.3914C151.424 27.3503 151.529 27.3914 151.587 27.4754C151.645 27.5594 151.646 27.6713 151.587 27.7141V27.7141Z" fill="#D9D9D9"/>
<path d="M152.122 28.2674C152.067 28.3283 151.956 28.3118 151.865 28.2295C151.774 28.1472 151.752 28.0352 151.807 27.9759C151.862 27.9167 151.973 27.9331 152.067 28.0138C152.161 28.0945 152.18 28.2081 152.122 28.2674V28.2674Z" fill="#D9D9D9"/>
<path d="M152.872 28.5901C152.847 28.6675 152.735 28.702 152.622 28.6691C152.509 28.6362 152.435 28.544 152.456 28.4649C152.478 28.3859 152.592 28.3497 152.706 28.3859C152.821 28.4221 152.894 28.5094 152.872 28.5901Z" fill="#D9D9D9"/>
<path d="M153.69 28.6461C153.69 28.7268 153.597 28.7959 153.478 28.7976C153.358 28.7992 153.261 28.7333 153.261 28.6527C153.261 28.572 153.353 28.5028 153.473 28.5012C153.592 28.4995 153.69 28.5638 153.69 28.6461Z" fill="#D9D9D9"/>
<path d="M154.452 28.5193C154.467 28.6 154.384 28.684 154.265 28.7037C154.145 28.7235 154.041 28.6757 154.026 28.5967C154.011 28.5177 154.097 28.432 154.213 28.4106C154.329 28.3892 154.437 28.4386 154.452 28.5193Z" fill="#D9D9D9"/>
</g>
<path d="M200.24 20.39C199.67 20.39 199.22 20.89 199.22 21.5C199.22 22.11 199.68 22.61 200.24 22.61C200.81 22.61 201.26 22.11 201.26 21.5C201.27 20.89 200.81 20.39 200.24 20.39ZM203.89 20.39C203.32 20.39 202.87 20.89 202.87 21.5C202.87 22.11 203.33 22.61 203.89 22.61C204.46 22.61 204.91 22.11 204.91 21.5C204.91 20.89 204.46 20.39 203.89 20.39Z" fill="#D9D9D9"/>
<path d="M208.75 12H195.35C194.22 12 193.3 12.92 193.3 14.06V27.58C193.3 28.72 194.22 29.64 195.35 29.64H206.69L206.16 27.79L207.44 28.98L208.65 30.1L210.8 32V14.06C210.8 12.92 209.88 12 208.75 12ZM204.89 25.06C204.89 25.06 204.53 24.63 204.23 24.25C205.54 23.88 206.04 23.06 206.04 23.06C205.63 23.33 205.24 23.52 204.89 23.65C204.39 23.86 203.91 24 203.44 24.08C202.48 24.26 201.6 24.21 200.85 24.07C200.28 23.96 199.79 23.8 199.38 23.64C199.15 23.55 198.9 23.44 198.65 23.3C198.62 23.28 198.59 23.27 198.56 23.25C198.54 23.24 198.53 23.23 198.52 23.22C198.34 23.12 198.24 23.05 198.24 23.05C198.24 23.05 198.72 23.85 199.99 24.23C199.69 24.61 199.32 25.06 199.32 25.06C197.11 24.99 196.27 23.54 196.27 23.54C196.27 20.32 197.71 17.71 197.71 17.71C199.15 16.63 200.52 16.66 200.52 16.66L200.62 16.78C198.82 17.3 197.99 18.09 197.99 18.09C197.99 18.09 198.21 17.97 198.58 17.8C199.65 17.33 200.5 17.2 200.85 17.17C200.91 17.16 200.96 17.15 201.02 17.15C201.63 17.07 202.32 17.05 203.04 17.13C203.99 17.24 205.01 17.52 206.05 18.09C206.05 18.09 205.26 17.34 203.56 16.82L203.7 16.66C203.7 16.66 205.07 16.63 206.51 17.71C206.51 17.71 207.95 20.32 207.95 23.54C207.95 23.54 207.1 24.99 204.89 25.06V25.06Z" fill="#D9D9D9"/>
<defs>
<clipPath id="clip0_111_1461">
<rect width="20" height="20" fill="white" transform="translate(12 12)"/>
</clipPath>
<clipPath id="clip1_111_1461">
<rect width="20" height="20" fill="white" transform="translate(57 12)"/>
</clipPath>
<clipPath id="clip2_111_1461">
<rect width="20" height="20" fill="white" transform="translate(103 13)"/>
</clipPath>
<clipPath id="clip3_111_1461">
<rect width="20" height="20" fill="white" transform="translate(147 12)"/>
</clipPath>
</defs>
</svg>
